<svg version="1.1" xmlns="http://www.w3.org/2000/svg" viewBox="0 0 2048 1260" width="1024" height="630">
<defs>
  <!-- Gradient xanh cho chữ Luminia (chính) - chiều dọc -->
  <linearGradient id="BlueGradText" gradientUnits="userSpaceOnUse" x1="0" y1="390" x2="0" y2="990">
    <stop offset="0%"   stop-color="#3b82f6"/>
    <stop offset="35%"  stop-color="#2563eb"/>
    <stop offset="65%"  stop-color="#1d4ed8"/>
    <stop offset="100%" stop-color="#1e3a8a"/>
  </linearGradient>

  <!-- Gradient xanh cho ngôi sao lớn - trung tâm sáng hơn -->
  <linearGradient id="BlueGradStar" gradientUnits="userSpaceOnUse" x1="1271" y1="75" x2="1993" y2="660">
    <stop offset="0%"   stop-color="#60a5fa"/>
    <stop offset="40%"  stop-color="#2563eb"/>
    <stop offset="100%" stop-color="#1e3a8a"/>
  </linearGradient>

  <!-- Gradient cho arc & tagline -->
  <linearGradient id="BlueGradArc" gradientUnits="userSpaceOnUse" x1="542" y1="454" x2="1428" y2="621">
    <stop offset="0%"   stop-color="#3b82f6"/>
    <stop offset="50%"  stop-color="#1d4ed8"/>
    <stop offset="100%" stop-color="#1e3a8a"/>
  </linearGradient>

  <!-- Gradient cho LEARN IT - nổi bật hơn -->
  <linearGradient id="BlueGradLearnIt" gradientUnits="userSpaceOnUse" x1="0" y1="1000" x2="0" y2="1110">
    <stop offset="0%"   stop-color="#3b82f6"/>
    <stop offset="50%"  stop-color="#1d4ed8"/>
    <stop offset="100%" stop-color="#1e3a8a"/>
  </linearGradient>

  <!-- Gradient cho tagline sub-text -->
  <linearGradient id="BlueGradSub" gradientUnits="userSpaceOnUse" x1="0" y1="1120" x2="0" y2="1190">
    <stop offset="0%"   stop-color="#3b82f6"/>
    <stop offset="100%" stop-color="#2563eb"/>
  </linearGradient>

  <!-- Sweep gradient giữ trắng như gốc -->
  <linearGradient id="SweepGrad" gradientUnits="userSpaceOnUse" x1="0" y1="0" x2="500" y2="0">
    <stop offset="0%"   stop-color="white" stop-opacity="0"/>
    <stop offset="30%"  stop-color="white" stop-opacity="0.55"/>
    <stop offset="50%"  stop-color="white" stop-opacity="0.92"/>
    <stop offset="70%"  stop-color="white" stop-opacity="0.55"/>
    <stop offset="100%" stop-color="white" stop-opacity="0"/>
  </linearGradient>

  <!-- MASK: đúng hình dạng logo Luminia + tagline -->
  <mask id="FullMask">
    <path fill="white" d="M 66.8039 692.101 C 65.6863 682.75 66.4127 659.747 66.3356 649.467 C 66.0901 616.741 66.5879 582.448 66.1418 549.87 C 65.9163 533.401 62.6393 514.199 45.1795 509.42 C 41.8326 508.504 34.1576 505.274 31.5406 502.811 L 32.0172 501.602 C 44.1105 497.553 126.212 498.871 143.095 498.894 C 142.752 517.924 143.343 537.106 142.999 556.31 C 144.123 596.401 143.087 640.328 143.085 680.882 L 143.017 931.155 L 200.812 931.318 C 253.323 931.417 269.514 931.652 306.434 889.701 C 304.204 909.796 301.505 950.483 287.004 965.007 C 279.774 972.249 231.436 970.24 219.404 970.245 L 127.259 970.24 L 68.4434 970.204 C 61.4497 970.197 39.1828 971.428 34.5444 967.6 L 34.44 966.31 C 40.6521 961.247 51.7508 957.612 55.6284 951.73 C 70.102 929.775 66.8122 890.382 66.7894 865.01 L 66.6298 749.014 C 66.6102 735.701 65.7287 703.659 66.8039 692.101 z"/>
    <path fill="white" d="M 506.257 661.315 C 528.487 660.525 554.456 661.166 576.974 661.16 L 576.838 820.5 L 576.773 887.899 C 576.766 907.84 572.43 946.882 593.456 956.886 C 598.514 959.293 607.446 959.74 610.46 964.398 C 607.459 967.65 601.819 968.601 597.469 969.245 C 553.579 975.736 515.338 979.028 507.113 926.565 C 491.006 948.717 478.68 961.976 451.168 970.925 C 426.849 978.835 392.074 978.044 369.408 965.898 C 319.819 939.325 325.702 874.194 325.735 826.661 L 325.952 742.001 C 325.994 722.84 326.854 709.16 322.409 690.138 C 318.054 671.505 297.194 672.432 295.249 666.231 C 301.533 662.53 334.014 661.843 343.462 661.439 C 371.046 659.661 393.39 659.314 396.915 693.366 C 398.842 711.988 397.995 730.858 397.954 749.577 L 397.83 846.163 C 397.841 884.319 392.635 939.624 446.851 939.246 C 463.642 939.129 477.868 934.079 489.738 921.838 C 496.747 914.744 501.589 905.799 503.696 896.051 C 508.385 873.615 506.478 820.981 506.377 795.743 C 506.2 751.458 507.113 705.437 506.257 661.315 z"/>
    <path fill="white" d="M 884.906 707.453 C 916.044 663.071 968.483 640.969 1019.29 666.641 C 1009.12 685.872 983.557 693.037 969.104 705.691 C 935.87 689.211 898.21 699.924 892.88 740.194 C 889.315 767.135 890.704 796.097 890.667 823.388 L 890.714 970.23 L 819.702 970.19 L 819.542 823.764 C 819.509 794.925 819.944 770.634 817.397 741.784 C 813.61 698.878 762.107 682.524 733.774 711.034 C 727.429 717.402 723.081 725.483 721.262 734.286 C 717.936 751.093 719.136 798.884 719.137 817.552 L 719.289 970.216 L 647.75 970.189 L 647.949 807.684 C 647.971 773.741 648.514 739.067 646.383 705.143 C 645.871 696.98 644.448 693.026 641.939 686.588 C 636.284 672.074 617.703 671.521 614.476 667.892 C 617.5 663.826 636.475 662.813 641.922 662.633 C 686.767 661.15 703.251 651.598 719.663 698.118 C 730.788 686.15 740.896 676.954 755.634 669.135 C 792.542 649.553 842.878 650.818 870.932 684.988 C 876.996 692.374 880.476 699.091 884.906 707.453 z"/>
    <path fill="white" d="M 1019.29 666.641 C 1068.42 696.885 1063.06 753.373 1063.03 803.713 L 1062.98 885.601 C 1062.99 900.943 1062.86 919.298 1064.78 934.042 C 1068.16 960.038 1098.35 959 1099.67 964.107 C 1094.67 967.386 1081.62 969.539 1075.32 970.608 C 988.987 985.252 992.133 946.657 992.196 880.635 L 992.328 794.257 C 992.377 765.088 995.561 724.863 969.104 705.691 C 983.557 693.037 1009.12 685.872 1019.29 666.641 z"/>
    <path fill="white" d="M 1131.27 750.562 C 1130.52 730.945 1133.05 708.956 1129.12 689.775 C 1126.23 675.682 1110.05 673.638 1101.53 668.138 C 1103.55 662.05 1151.58 661.119 1159.24 661.086 C 1176.19 661.013 1190.81 657.639 1199.45 674.954 C 1202.92 686.073 1201.8 716.405 1201.78 729.152 L 1201.66 850.681 C 1201.64 868.28 1201.35 886.372 1201.61 903.716 C 1201.89 922.098 1199.12 948.546 1218.34 958.053 C 1223.07 960.393 1231.76 961.486 1234.16 963.982 C 1233.87 973.035 1184.61 970.98 1175.45 971.354 C 1154.18 972.223 1133.86 969.859 1131.82 944.183 C 1130.2 916.668 1131.02 887.878 1131.06 860.267 L 1131.17 787.587 C 1131.18 776.128 1130.72 761.628 1131.27 750.562 z"/>
    <path fill="white" d="M 1428.71 656.415 C 1469.65 654.079 1507.84 673.888 1519.9 714.899 C 1527.82 741.848 1526.11 771.905 1526.09 799.887 L 1525.87 892.015 C 1525.84 909.443 1524.51 929.748 1531.74 946.181 C 1537.22 958.654 1559.45 957.602 1563.76 963.024 C 1559.05 970.536 1511.23 974.011 1500.53 973.492 C 1451.39 971.111 1455.62 926.686 1455.69 890.438 L 1455.88 813.024 C 1456 762.875 1461.45 686.259 1383.43 699.108 C 1374.81 700.527 1366.74 706.08 1360.34 711.803 C 1352.82 719.903 1347.11 729.997 1345.79 740.996 C 1342.59 767.679 1343.88 797.021 1343.86 823.906 C 1343.59 872.653 1343.59 921.4 1343.88 970.146 L 1272.95 970.275 L 1273.07 803.855 C 1273.08 772.824 1273.44 741.057 1272.63 710.023 C 1272.46 703.124 1270.05 691.303 1267.45 684.812 C 1263.07 673.908 1248.4 671.841 1237.75 667.57 C 1256.74 663.527 1306.07 655.723 1323.65 664.951 C 1336.61 671.747 1341.54 686.165 1345.19 699.295 C 1369.34 673.433 1392.6 659.325 1428.71 656.415 z"/>
    <path fill="white" d="M 1564.12 667.767 C 1584.26 663.541 1640.22 655.664 1659.19 666.505 C 1666.51 670.683 1668.11 679.327 1669.6 686.927 C 1670.6 707.262 1670 731.136 1669.97 751.669 L 1669.78 864.673 C 1669.74 886.846 1669.16 911.105 1670.78 933.225 C 1671.28 940.141 1674.85 948.422 1679.98 953.378 C 1685.65 958.857 1699.97 959.711 1702.37 966.264 C 1700.53 968.626 1696.42 969.479 1693.76 969.535 C 1673.53 969.962 1624.71 974.798 1607.92 965.014 C 1601.28 955.417 1599.37 945.394 1598.89 933.817 C 1597.9 909.407 1598.35 884.638 1598.4 860.211 L 1598.94 705.072 C 1596.14 678.251 1588.02 675.8 1564.12 667.767 z"/>
    <path fill="white" fill-rule="evenodd" d="M 1851.91 656.406 C 1878.11 653.773 1906.21 660.342 1927.58 675.799 C 1968.33 705.262 1961.63 757.602 1961.32 801.841 L 1961.18 896.728 C 1961.13 911.624 1959.71 932.824 1966.09 946.433 C 1971.98 958.979 1989.67 957.395 1993.36 961.621 L 1992.62 963.685 C 1990.37 965.588 1987.64 966.893 1984.76 967.514 C 1964.1 971.976 1931.65 976.414 1912.94 965.033 C 1898.58 956.304 1895.38 943.766 1891.42 929.082 C 1887.39 934.925 1883.05 940.772 1878.1 945.877 C 1859.74 964.688 1834.66 975.42 1808.37 975.703 C 1783.11 976.076 1764.35 969.521 1746.31 952.016 C 1733.3 937.463 1725.71 921.268 1723.68 901.693 C 1712.99 798.543 1815.48 784.641 1891.68 775.057 C 1891.31 761.388 1891.5 748.795 1888.74 735.331 C 1879.71 691.281 1825.82 689.008 1792.41 704.861 C 1774.05 713.569 1763.88 728.419 1753.74 745.133 C 1751.69 728.773 1751.29 718.432 1752.2 702.099 C 1771.93 672.606 1818.19 659.465 1851.91 656.406 z M 1880.56 800.381 C 1882.82 800.045 1889.64 799.841 1892.22 799.7 C 1892.65 816.942 1892.43 834.785 1892.43 852.064 C 1892.43 871.672 1894.59 896.447 1884.59 913.677 C 1877.86 925.188 1866.83 933.543 1853.93 936.894 C 1840.04 940.519 1828.53 938.116 1816.47 931.024 C 1781.67 902.218 1789.79 840.813 1825.88 816.968 C 1841.55 806.615 1862.11 802.354 1880.56 800.381 z"/>
    <circle fill="white" cx="1160" cy="580" r="44"/>
    <path fill="white" d="M 920.072 454.278 C 1023.87 421.876 1385.6 387.514 1427.65 518.568 C 1410.57 509.511 1391.5 499.244 1373.29 492.954 C 1239.68 446.809 1081.98 459.362 945.125 480.445 C 945.448 478.982 945.427 479.768 945.037 478.088 C 935.801 474.238 927.634 469.171 921.58 460.837 C 921.957 461.356 920.173 454.611 920.072 454.278 z"/>
    <path fill="white" d="M 945.125 480.445 C 925.889 482.801 891.564 490.544 872.048 495.125 C 789.43 514.31 708.823 541.302 631.313 575.74 C 610.9 584.916 591.028 594.833 571.133 605.043 C 565.601 607.881 546.902 619.404 542.861 620.805 C 552.104 611.987 574.969 598.012 586.646 590.782 C 684.516 530.191 808.146 479.901 920.072 454.278 C 920.173 454.611 921.957 461.356 921.58 460.837 C 927.634 469.171 935.801 474.238 945.037 478.088 C 945.427 479.768 945.448 478.982 945.125 480.445 z"/>
    <path fill="white" d="M 1509.13 75.6974 C 1511.87 78.9416 1513.01 92.9478 1513.53 97.855 C 1517.11 131.644 1523.42 165.141 1534.16 197.474 C 1542.22 221.128 1553.91 243.384 1568.81 263.442 C 1614.35 323.553 1681.43 350.806 1754.48 361.013 C 1700.51 369.467 1661.11 378.24 1616.07 410.229 C 1547.67 458.795 1525.24 532.87 1516.49 612.585 C 1514.84 627.621 1513.26 643.776 1510.91 658.813 C 1510.16 662.551 1499.39 581.745 1497.89 573.621 C 1482.04 487.512 1435.85 417.491 1352.82 384.248 C 1326.53 373.724 1299.51 367.457 1271.77 360.873 C 1397.44 337.382 1474.5 273.704 1498.63 145.233 C 1502.91 122.425 1504.87 98.0523 1509.13 75.6974 z"/>
    <path fill="white" d="M 1653.37 494.752 C 1655.71 498.924 1657.61 515.985 1663.09 526.395 C 1676.04 551.023 1692.54 550.348 1714.53 558.362 L 1715.22 558.622 C 1674.68 566.588 1662.64 583.074 1653.18 621.203 C 1649.69 615.647 1648.34 599.94 1641.3 588.672 C 1628.62 568.376 1611.24 564.037 1589.45 558.05 C 1635.26 547.797 1642.16 539.823 1653.37 494.752 z"/>
    <path fill="white" d="M 1205.12 309.503 C 1209.74 313.364 1209.87 329.606 1213.89 336.044 C 1221.92 348.897 1238.75 351.776 1252.34 355.286 C 1217.33 363.183 1215.44 364.589 1206.04 399.015 L 1205.91 399.012 C 1203.39 397.116 1201.31 378.269 1196.41 371.701 C 1187.66 359.967 1172.95 357.865 1159.75 354.956 C 1193.8 347.084 1197.92 344.064 1205.12 309.503 z"/>
    <path fill="white" d="M 1309.21 150.677 C 1311.04 154.182 1312.13 160.697 1312.95 164.659 C 1316.08 179.797 1321.73 200.586 1334.17 210.724 C 1347.63 221.689 1372.05 225.842 1388.63 229.348 C 1322.37 242.052 1326.38 249.625 1309.13 308.757 C 1308.12 305.807 1305.91 296.403 1305.22 293.227 C 1294.09 242.144 1277.57 241.409 1231.16 229.272 C 1297.91 214.809 1290.65 211.068 1309.21 150.677 z"/>
    <line x1="100" y1="1072" x2="630" y2="1072" stroke="white" stroke-width="3"/>
    <circle cx="648" cy="1072" r="10" fill="white"/>
    <line x1="1400" y1="1072" x2="1940" y2="1072" stroke="white" stroke-width="3"/>
    <circle cx="1382" cy="1072" r="10" fill="white"/>
    <text x="1024" y="1098" text-anchor="middle" font-family="Arial Black,Arial,sans-serif" font-weight="900" font-size="98" fill="white">LEARN IT</text>
    <text x="1024" y="1182" text-anchor="middle" font-family="Arial,sans-serif" font-size="52" fill="white">Master Technology Skills</text>
  </mask>
</defs>

<!-- ===== LOGO BODY - Chữ Luminia với gradient xanh ===== -->

<!-- Chữ L -->
<path fill="url(#BlueGradText)" d="M 66.8039 692.101 C 65.6863 682.75 66.4127 659.747 66.3356 649.467 C 66.0901 616.741 66.5879 582.448 66.1418 549.87 C 65.9163 533.401 62.6393 514.199 45.1795 509.42 C 41.8326 508.504 34.1576 505.274 31.5406 502.811 L 32.0172 501.602 C 44.1105 497.553 126.212 498.871 143.095 498.894 C 142.752 517.924 143.343 537.106 142.999 556.31 C 144.123 596.401 143.087 640.328 143.085 680.882 L 143.017 931.155 L 200.812 931.318 C 253.323 931.417 269.514 931.652 306.434 889.701 C 304.204 909.796 301.505 950.483 287.004 965.007 C 279.774 972.249 231.436 970.24 219.404 970.245 L 127.259 970.24 L 68.4434 970.204 C 61.4497 970.197 39.1828 971.428 34.5444 967.6 L 34.44 966.31 C 40.6521 961.247 51.7508 957.612 55.6284 951.73 C 70.102 929.775 66.8122 890.382 66.7894 865.01 L 66.6298 749.014 C 66.6102 735.701 65.7287 703.659 66.8039 692.101 z"/>
<!-- Chữ u -->
<path fill="url(#BlueGradText)" d="M 506.257 661.315 C 528.487 660.525 554.456 661.166 576.974 661.16 L 576.838 820.5 L 576.773 887.899 C 576.766 907.84 572.43 946.882 593.456 956.886 C 598.514 959.293 607.446 959.74 610.46 964.398 C 607.459 967.65 601.819 968.601 597.469 969.245 C 553.579 975.736 515.338 979.028 507.113 926.565 C 491.006 948.717 478.68 961.976 451.168 970.925 C 426.849 978.835 392.074 978.044 369.408 965.898 C 319.819 939.325 325.702 874.194 325.735 826.661 L 325.952 742.001 C 325.994 722.84 326.854 709.16 322.409 690.138 C 318.054 671.505 297.194 672.432 295.249 666.231 C 301.533 662.53 334.014 661.843 343.462 661.439 C 371.046 659.661 393.39 659.314 396.915 693.366 C 398.842 711.988 397.995 730.858 397.954 749.577 L 397.83 846.163 C 397.841 884.319 392.635 939.624 446.851 939.246 C 463.642 939.129 477.868 934.079 489.738 921.838 C 496.747 914.744 501.589 905.799 503.696 896.051 C 508.385 873.615 506.478 820.981 506.377 795.743 C 506.2 751.458 507.113 705.437 506.257 661.315 z"/>
<!-- Chữ m -->
<path fill="url(#BlueGradText)" d="M 884.906 707.453 C 916.044 663.071 968.483 640.969 1019.29 666.641 C 1009.12 685.872 983.557 693.037 969.104 705.691 C 935.87 689.211 898.21 699.924 892.88 740.194 C 889.315 767.135 890.704 796.097 890.667 823.388 L 890.714 970.23 L 819.702 970.19 L 819.542 823.764 C 819.509 794.925 819.944 770.634 817.397 741.784 C 813.61 698.878 762.107 682.524 733.774 711.034 C 727.429 717.402 723.081 725.483 721.262 734.286 C 717.936 751.093 719.136 798.884 719.137 817.552 L 719.289 970.216 L 647.75 970.189 L 647.949 807.684 C 647.971 773.741 648.514 739.067 646.383 705.143 C 645.871 696.98 644.448 693.026 641.939 686.588 C 636.284 672.074 617.703 671.521 614.476 667.892 C 617.5 663.826 636.475 662.813 641.922 662.633 C 686.767 661.15 703.251 651.598 719.663 698.118 C 730.788 686.15 740.896 676.954 755.634 669.135 C 792.542 649.553 842.878 650.818 870.932 684.988 C 876.996 692.374 880.476 699.091 884.906 707.453 z"/>
<!-- Chữ i thân -->
<path fill="url(#BlueGradText)" d="M 1019.29 666.641 C 1068.42 696.885 1063.06 753.373 1063.03 803.713 L 1062.98 885.601 C 1062.99 900.943 1062.86 919.298 1064.78 934.042 C 1068.16 960.038 1098.35 959 1099.67 964.107 C 1094.67 967.386 1081.62 969.539 1075.32 970.608 C 988.987 985.252 992.133 946.657 992.196 880.635 L 992.328 794.257 C 992.377 765.088 995.561 724.863 969.104 705.691 C 983.557 693.037 1009.12 685.872 1019.29 666.641 z"/>
<!-- Chữ n -->
<path fill="url(#BlueGradText)" d="M 1131.27 750.562 C 1130.52 730.945 1133.05 708.956 1129.12 689.775 C 1126.23 675.682 1110.05 673.638 1101.53 668.138 C 1103.55 662.05 1151.58 661.119 1159.24 661.086 C 1176.19 661.013 1190.81 657.639 1199.45 674.954 C 1202.92 686.073 1201.8 716.405 1201.78 729.152 L 1201.66 850.681 C 1201.64 868.28 1201.35 886.372 1201.61 903.716 C 1201.89 922.098 1199.12 948.546 1218.34 958.053 C 1223.07 960.393 1231.76 961.486 1234.16 963.982 C 1233.87 973.035 1184.61 970.98 1175.45 971.354 C 1154.18 972.223 1133.86 969.859 1131.82 944.183 C 1130.2 916.668 1131.02 887.878 1131.06 860.267 L 1131.17 787.587 C 1131.18 776.128 1130.72 761.628 1131.27 750.562 z"/>
<!-- Chữ i+a -->
<path fill="url(#BlueGradText)" d="M 1428.71 656.415 C 1469.65 654.079 1507.84 673.888 1519.9 714.899 C 1527.82 741.848 1526.11 771.905 1526.09 799.887 L 1525.87 892.015 C 1525.84 909.443 1524.51 929.748 1531.74 946.181 C 1537.22 958.654 1559.45 957.602 1563.76 963.024 C 1559.05 970.536 1511.23 974.011 1500.53 973.492 C 1451.39 971.111 1455.62 926.686 1455.69 890.438 L 1455.88 813.024 C 1456 762.875 1461.45 686.259 1383.43 699.108 C 1374.81 700.527 1366.74 706.08 1360.34 711.803 C 1352.82 719.903 1347.11 729.997 1345.79 740.996 C 1342.59 767.679 1343.88 797.021 1343.86 823.906 C 1343.59 872.653 1343.59 921.4 1343.88 970.146 L 1272.95 970.275 L 1273.07 803.855 C 1273.08 772.824 1273.44 741.057 1272.63 710.023 C 1272.46 703.124 1270.05 691.303 1267.45 684.812 C 1263.07 673.908 1248.4 671.841 1237.75 667.57 C 1256.74 663.527 1306.07 655.723 1323.65 664.951 C 1336.61 671.747 1341.54 686.165 1345.19 699.295 C 1369.34 673.433 1392.6 659.325 1428.71 656.415 z"/>
<!-- Chữ i -->
<path fill="url(#BlueGradText)" d="M 1564.12 667.767 C 1584.26 663.541 1640.22 655.664 1659.19 666.505 C 1666.51 670.683 1668.11 679.327 1669.6 686.927 C 1670.6 707.262 1670 731.136 1669.97 751.669 L 1669.78 864.673 C 1669.74 886.846 1669.16 911.105 1670.78 933.225 C 1671.28 940.141 1674.85 948.422 1679.98 953.378 C 1685.65 958.857 1699.97 959.711 1702.37 966.264 C 1700.53 968.626 1696.42 969.479 1693.76 969.535 C 1673.53 969.962 1624.71 974.798 1607.92 965.014 C 1601.28 955.417 1599.37 945.394 1598.89 933.817 C 1597.9 909.407 1598.35 884.638 1598.4 860.211 L 1598.94 705.072 C 1596.14 678.251 1588.02 675.8 1564.12 667.767 z"/>
<!-- Chữ a -->
<path fill="url(#BlueGradText)" fill-rule="evenodd" d="M 1851.91 656.406 C 1878.11 653.773 1906.21 660.342 1927.58 675.799 C 1968.33 705.262 1961.63 757.602 1961.32 801.841 L 1961.18 896.728 C 1961.13 911.624 1959.71 932.824 1966.09 946.433 C 1971.98 958.979 1989.67 957.395 1993.36 961.621 L 1992.62 963.685 C 1990.37 965.588 1987.64 966.893 1984.76 967.514 C 1964.1 971.976 1931.65 976.414 1912.94 965.033 C 1898.58 956.304 1895.38 943.766 1891.42 929.082 C 1887.39 934.925 1883.05 940.772 1878.1 945.877 C 1859.74 964.688 1834.66 975.42 1808.37 975.703 C 1783.11 976.076 1764.35 969.521 1746.31 952.016 C 1733.3 937.463 1725.71 921.268 1723.68 901.693 C 1712.99 798.543 1815.48 784.641 1891.68 775.057 C 1891.31 761.388 1891.5 748.795 1888.74 735.331 C 1879.71 691.281 1825.82 689.008 1792.41 704.861 C 1774.05 713.569 1763.88 728.419 1753.74 745.133 C 1751.69 728.773 1751.29 718.432 1752.2 702.099 C 1771.93 672.606 1818.19 659.465 1851.91 656.406 z M 1880.56 800.381 C 1882.82 800.045 1889.64 799.841 1892.22 799.7 C 1892.65 816.942 1892.43 834.785 1892.43 852.064 C 1892.43 871.672 1894.59 896.447 1884.59 913.677 C 1877.86 925.188 1866.83 933.543 1853.93 936.894 C 1840.04 940.519 1828.53 938.116 1816.47 931.024 C 1781.67 902.218 1789.79 840.813 1825.88 816.968 C 1841.55 806.615 1862.11 802.354 1880.56 800.381 z"/>
<!-- Dấu chấm i -->
<circle fill="url(#BlueGradText)" cx="1160" cy="580" r="44"/>

<!-- Arc phía trên - gradient riêng -->
<path fill="url(#BlueGradArc)" d="M 920.072 454.278 C 1023.87 421.876 1385.6 387.514 1427.65 518.568 C 1410.57 509.511 1391.5 499.244 1373.29 492.954 C 1239.68 446.809 1081.98 459.362 945.125 480.445 C 945.448 478.982 945.427 479.768 945.037 478.088 C 935.801 474.238 927.634 469.171 921.58 460.837 C 921.957 461.356 920.173 454.611 920.072 454.278 z"/>
<path fill="url(#BlueGradArc)" d="M 945.125 480.445 C 925.889 482.801 891.564 490.544 872.048 495.125 C 789.43 514.31 708.823 541.302 631.313 575.74 C 610.9 584.916 591.028 594.833 571.133 605.043 C 565.601 607.881 546.902 619.404 542.861 620.805 C 552.104 611.987 574.969 598.012 586.646 590.782 C 684.516 530.191 808.146 479.901 920.072 454.278 C 920.173 454.611 921.957 461.356 921.58 460.837 C 927.634 469.171 935.801 474.238 945.037 478.088 C 945.427 479.768 945.448 478.982 945.125 480.445 z"/>

<!-- Ngôi sao lớn - gradient xanh riêng -->
<path fill="url(#BlueGradStar)" d="M 1509.13 75.6974 C 1511.87 78.9416 1513.01 92.9478 1513.53 97.855 C 1517.11 131.644 1523.42 165.141 1534.16 197.474 C 1542.22 221.128 1553.91 243.384 1568.81 263.442 C 1614.35 323.553 1681.43 350.806 1754.48 361.013 C 1700.51 369.467 1661.11 378.24 1616.07 410.229 C 1547.67 458.795 1525.24 532.87 1516.49 612.585 C 1514.84 627.621 1513.26 643.776 1510.91 658.813 C 1510.16 662.551 1499.39 581.745 1497.89 573.621 C 1482.04 487.512 1435.85 417.491 1352.82 384.248 C 1326.53 373.724 1299.51 367.457 1271.77 360.873 C 1397.44 337.382 1474.5 273.704 1498.63 145.233 C 1502.91 122.425 1504.87 98.0523 1509.13 75.6974 z"/>
<!-- Ngôi sao nhỏ phải -->
<path fill="url(#BlueGradStar)" d="M 1653.37 494.752 C 1655.71 498.924 1657.61 515.985 1663.09 526.395 C 1676.04 551.023 1692.54 550.348 1714.53 558.362 L 1715.22 558.622 C 1674.68 566.588 1662.64 583.074 1653.18 621.203 C 1649.69 615.647 1648.34 599.94 1641.3 588.672 C 1628.62 568.376 1611.24 564.037 1589.45 558.05 C 1635.26 547.797 1642.16 539.823 1653.37 494.752 z"/>
<!-- Ngôi sao nhỏ giữa -->
<path fill="url(#BlueGradStar)" d="M 1205.12 309.503 C 1209.74 313.364 1209.87 329.606 1213.89 336.044 C 1221.92 348.897 1238.75 351.776 1252.34 355.286 C 1217.33 363.183 1215.44 364.589 1206.04 399.015 L 1205.91 399.012 C 1203.39 397.116 1201.31 378.269 1196.41 371.701 C 1187.66 359.967 1172.95 357.865 1159.75 354.956 C 1193.8 347.084 1197.92 344.064 1205.12 309.503 z"/>
<!-- Ngôi sao nhỏ trái -->
<path fill="url(#BlueGradStar)" d="M 1309.21 150.677 C 1311.04 154.182 1312.13 160.697 1312.95 164.659 C 1316.08 179.797 1321.73 200.586 1334.17 210.724 C 1347.63 221.689 1372.05 225.842 1388.63 229.348 C 1322.37 242.052 1326.38 249.625 1309.13 308.757 C 1308.12 305.807 1305.91 296.403 1305.22 293.227 C 1294.09 242.144 1277.57 241.409 1231.16 229.272 C 1297.91 214.809 1290.65 211.068 1309.21 150.677 z"/>

<!-- Tagline: lines + dots -->
<line x1="100" y1="1072" x2="630" y2="1072" stroke="url(#BlueGradArc)" stroke-width="2.5" stroke-opacity="0.6"/>
<circle cx="648" cy="1072" r="9" fill="#2563eb" fill-opacity="0.9"/>
<line x1="1400" y1="1072" x2="1940" y2="1072" stroke="url(#BlueGradArc)" stroke-width="2.5" stroke-opacity="0.6"/>
<circle cx="1382" cy="1072" r="9" fill="#2563eb" fill-opacity="0.9"/>

<!-- LEARN IT text -->
<text x="1024" y="1098" text-anchor="middle" font-family="Arial Black,Arial,sans-serif" font-weight="900" font-size="98" fill="url(#BlueGradLearnIt)">LEARN IT</text>
<!-- Master Technology Skills -->
<text x="1024" y="1182" text-anchor="middle" font-family="Arial,sans-serif" font-size="52" fill="url(#BlueGradSub)" fill-opacity="0.75">Master Technology Skills</text>

<!-- SWEEP RECT: hiệu ứng ánh sáng quét -->
<rect id="sr" x="-500" y="0" width="500" height="1260" fill="url(#SweepGrad)" mask="url(#FullMask)"/>

<script type="text/javascript"><![CDATA[
  var r = document.getElementById('sr');
  var g = document.getElementById('SweepGrad');
  var sX=-500, eX=2250, dur=2800, pause=1800, tot=dur+pause, t0=null;
  function ease(t){ return t<0.5 ? 2*t*t : -1+(4-2*t)*t; }
  function fr(ts){
    if(!t0) t0=ts;
    var el=(ts-t0)%tot;
    var x = el<dur ? sX+ease(el/dur)*(eX-sX) : eX;
    g.setAttribute('x1', x);
    g.setAttribute('x2', x+500);
    r.setAttribute('x', x);
    requestAnimationFrame(fr);
  }
  requestAnimationFrame(fr);
]]></script>
</svg>
