<svg version="1.1" xmlns="http://www.w3.org/2000/svg" style="display: block;" viewBox="0 0 2048 314" width="600" height="91.97751660705161" preserveAspectRatio="none">
<path transform="translate(0,0)" fill="rgb(0,0,0)" d="M 1529.57 9.24725 L 1532.64 10.616 L 1532.71 309.01 C 1531.39 310.274 1531.06 310.45 1529.37 311.154 C 1507.98 309.161 1361.14 313.264 1355.91 309.09 C 1361.91 301.094 1395.51 268.249 1404.05 259.876 C 1424.67 258.84 1452.71 259.741 1473.88 259.777 C 1474.38 249.097 1475.16 159.335 1472.94 155.039 C 1468.4 155.72 1422.88 203.294 1416.78 209.467 L 1316.64 310.908 L 1254.27 310.881 C 1163.52 310.72 1052.72 291.054 1054.67 176.809 C 1056.15 90.1994 1122.14 59.4379 1199.29 50.5649 C 1231.61 46.8478 1261.5 47.7666 1294.12 47.8831 L 1294.03 98.7921 C 1278.22 98.6952 1262.4 98.7415 1246.58 98.931 C 1191.36 99.5777 1113.16 110.535 1115.55 181.783 C 1118.26 262.323 1224.63 260.571 1281.79 259.549 C 1313.71 228.848 1347.52 193.118 1378.88 161.427 L 1529.57 9.24725 z"/>
<path transform="translate(0,0)" fill="rgb(0,0,0)" d="M 445.287 48.3355 C 445.669 48.2549 446.053 48.1914 446.44 48.1452 C 521.454 39.4048 604.805 86.8437 613.665 166.388 C 616.962 197.736 607.742 229.117 588.012 253.7 C 560.811 287.628 524.868 305.156 482.228 309.821 C 481.554 309.972 480.875 310.1 480.192 310.204 C 409.487 320.677 325.739 271.218 315.094 197.067 C 310.278 165.416 318.427 133.161 337.698 107.597 C 365.147 71.0108 401.234 54.6256 445.287 48.3355 z M 477.761 259.087 C 580.998 239.479 577.154 115.897 477.247 99.5546 C 471.533 98.6199 458.534 98.6476 452.737 99.3584 C 380.408 106.38 344.844 189.654 404.139 239.112 C 426.362 257.649 449.773 260.893 477.761 259.087 z"/>
<path transform="translate(0,0)" fill="rgb(0,0,0)" d="M 301.828 46.8304 C 302.005 46.9601 302.054 46.982 302.192 47.1257 C 305.949 51.0285 303.718 120.43 303.557 130.974 L 186.992 248.905 C 171.593 264.519 139.047 299.264 123.278 312.391 C 121.606 273.453 124.309 231.638 122.592 192.645 L 44.0218 272.125 C 31.8353 284.424 14.7474 300.746 3.74395 313.333 C 1.9546 280.027 3.32964 234.698 3.35532 200.5 L 3.4538 47.7882 C 23.4499 47.7615 44.1636 47.4805 64.0913 48.0658 C 64.517 82.154 62.3233 131.902 64.7182 164.659 C 83.5186 148.766 170.363 53.3439 182.121 48.5529 L 183.261 49.4125 C 184.576 56.4556 184.006 79.1208 183.991 87.3236 C 183.822 113.319 183.859 139.316 184.103 165.311 C 195.521 155.009 211.54 137.824 222.63 126.601 C 248.885 99.8678 275.285 73.2772 301.828 46.8304 z"/>
<path transform="translate(0,0)" fill="rgb(0,0,0)" d="M 1836.49 47.832 L 1956.73 47.8679 C 1964.81 57.9909 1990.31 88.7037 1995.93 98.8604 C 1966.89 98.7005 1925.18 97.4487 1897.11 99.2365 C 1897.52 117.05 1897.22 135.857 1897.22 153.745 C 1924.24 154.973 1957.97 153.736 1985.91 154.029 C 1990.93 158.551 2021.47 198.159 2026.24 204.829 C 1985.73 206.736 1938.78 204.12 1897.09 205.28 C 1897.28 214.918 1897.21 224.836 1897.26 234.5 L 1897.22 259.511 C 1930.23 261.433 1972 258.861 2006.46 259.969 C 2015.1 269.632 2039.1 300.132 2046.07 310.517 C 2027.65 311.876 1994.25 310.873 1974.87 310.872 L 1836.46 310.836 C 1835.68 279.009 1836.38 244.196 1836.37 212.174 L 1836.49 47.832 z"/>
<path transform="translate(0,0)" fill="rgb(0,0,0)" d="M 832.964 47.8374 L 953.094 47.8252 C 961.03 57.6967 986.957 88.8503 992.318 98.8707 C 962.62 98.6874 922.588 97.5308 893.727 99.1984 C 894.25 116.718 893.869 136.109 893.892 153.773 C 927.643 155.101 968.022 153.621 1002.57 154.038 C 1007.77 159.15 1039.42 199.071 1041.28 204.014 C 1039.43 205.223 1036.74 204.935 1034.25 205.059 C 988.79 204.805 938.907 204.101 893.709 205.269 C 894.827 238.499 893.879 277.21 893.807 310.702 C 875.917 311.595 851.38 310.843 832.973 310.85 L 832.964 47.8374 z"/>
<path transform="translate(0,0)" fill="rgb(0,0,0)" d="M 634.965 47.8631 C 654.878 47.8033 675.983 47.4205 695.789 48.0827 C 696.573 71.1535 695.923 97.5624 695.929 120.927 L 695.857 259.505 C 723.291 261.113 756.16 258.802 784.678 260.012 C 789.287 264.348 821.012 304.425 824.25 310.657 C 806.123 311.673 778.635 310.854 759.829 310.851 L 634.978 310.82 L 634.965 47.8631 z"/>
<path transform="translate(0,0)" fill="rgb(0,0,0)" d="M 1553.05 47.7966 C 1571.66 47.7677 1593.83 47.1917 1612.16 48.109 C 1610.34 79.0178 1611.79 125.384 1611.79 157.3 L 1611.78 221.326 C 1611.78 227.803 1610.73 255.603 1613.55 259.37 C 1640.51 261.389 1674.97 258.483 1703.22 260.084 C 1714.05 272.085 1733.18 297.421 1743.26 310.625 C 1724.35 311.632 1697.29 310.855 1677.78 310.855 L 1553.06 310.839 L 1553.05 47.7966 z"/>
<path transform="translate(0,0)" fill="rgb(0,0,0)" d="M 1754.44 47.8111 L 1813.06 47.6943 C 1812.06 54.8829 1812.55 79.3168 1812.56 88.0218 L 1812.58 169.809 L 1812.55 263.958 C 1812.55 271.761 1812.05 301.245 1813.15 307.77 C 1809.36 307.238 1761.01 257.475 1754.66 250.669 C 1753.23 236.391 1754.33 201.182 1754.34 185.048 L 1754.44 47.8111 z"/>
<path transform="translate(0,0)" fill="rgb(0,0,0)" d="M 1202.53 122.4 L 1204.71 123.205 L 1205.34 124.679 L 1204.35 124.567 C 1206.27 126.937 1207.67 132.037 1208.66 135.136 C 1214.63 153.684 1218.4 166.424 1234.04 179.26 C 1220.14 190.116 1211.08 208.863 1208.37 226.038 C 1207.98 233.889 1208.59 231.17 1203.23 232.548 L 1202.94 232.625 C 1200.58 227.728 1199.91 222.368 1198.53 217.074 C 1194.14 200.187 1188.29 190.926 1175.92 179.403 C 1192.41 164.387 1200.4 144.232 1202.53 122.4 z"/>
<path transform="translate(0,0)" fill="rgb(0,0,0)" fill-opacity="0.67451" d="M 1529.57 9.24725 L 1530.27 7.47359 C 1533.77 6.6975 1532.91 6.33164 1535.42 7.90776 C 1534.65 35.8112 1535.44 66.1919 1535.46 94.2788 L 1535.41 252.786 C 1535.42 268.572 1535.48 292.696 1535.39 309.048 C 1534.89 309.696 1534.47 310.25 1534.12 310.71 L 1529.37 311.154 C 1531.06 310.45 1531.39 310.274 1532.71 309.01 L 1532.64 10.616 L 1529.57 9.24725 z"/>
<path transform="translate(0,0)" fill="rgb(0,0,0)" fill-opacity="0.843137" d="M 1813.06 47.6943 L 1815.13 48.6477 C 1816.68 73.325 1815.45 112.582 1815.45 138.14 L 1815.43 306.291 C 1814.22 307.511 1814.56 307.562 1813.15 307.77 C 1812.05 301.245 1812.55 271.761 1812.55 263.958 L 1812.58 169.809 L 1812.56 88.0218 C 1812.55 79.3168 1812.06 54.8829 1813.06 47.6943 z"/>
<path transform="translate(0,0)" fill="rgb(0,0,0)" fill-opacity="0.494118" d="M 1612.16 48.109 L 1613.91 49.5997 C 1614.81 63.5249 1614.27 83.5129 1614.28 97.9633 L 1614.29 185.597 C 1614.29 197.062 1615.67 251.409 1613.55 259.37 C 1610.73 255.603 1611.78 227.803 1611.78 221.326 L 1611.79 157.3 C 1611.79 125.384 1610.34 79.0178 1612.16 48.109 z"/>
</svg>