<svg version="1.1" xmlns="http://www.w3.org/2000/svg" style="display: block;" viewBox="0 0 2048 365" width="841" height="150" preserveAspectRatio="none">
<path transform="translate(0,0)" fill="rgb(4,89,65)" d="M 1291.92 1.4255 C 1345.03 -0.455106 1417.7 0.71871 1463.64 32.4678 C 1476.85 41.5991 1480.52 61.6443 1469.25 73.5779 C 1449.03 94.9867 1408.9 105.796 1380.87 110.678 C 1267.88 130.364 1153.56 119.33 1044.35 85.8309 C 920.396 48.2097 800.505 -1.20294 667.832 13.9763 C 647.007 16.3588 555.02 24.5936 555.701 62.5649 C 556.015 80.0644 593.723 92.9101 610.311 96.5782 C 677.903 111.525 749.485 102.68 815.974 85.3133 C 828.16 82.1789 840.247 78.6706 852.218 74.7935 C 859.381 72.4784 885.019 61.9739 890.542 66.5275 C 888.717 71.3196 871.062 77.9518 865.571 80.4425 C 811.137 105.13 749.1 113.271 689.75 113.127 C 656.282 113.267 558.856 109.75 543.038 72.8706 C 540.486 67.0212 540.391 60.3918 542.775 54.4717 C 550.979 34.1899 591.303 19.9869 611.844 15.4344 C 720.128 -8.56315 837.244 2.98489 943.533 29.928 C 1035.81 53.3193 1131.78 95.143 1224.38 107.301 C 1260.12 111.782 1296.23 112.477 1332.12 109.375 C 1363.74 106.889 1397.89 101.57 1427.4 89.3516 C 1438.93 84.5747 1455.23 75.6429 1460.24 63.3683 C 1461.97 59.1513 1462.11 52.7669 1459.92 49.0599 C 1434.45 5.96792 1316.88 8.22352 1279.21 11.9371 C 1248.27 15.0295 1217.69 21.0104 1187.86 29.8017 C 1161.17 37.4838 1136.94 47.5311 1111.03 57.1907 C 1107.86 58.3734 1102.78 58.0303 1101.25 54.5132 C 1110.61 49.5678 1119.44 44.0703 1129.03 39.1382 C 1180.4 12.7251 1234.64 4.12537 1291.92 1.4255 z"/>
<path transform="translate(0,0)" fill="rgb(4,89,65)" d="M 444.034 53.97 C 458.474 55.5731 472.901 57.2925 487.314 59.1283 C 479.14 68.6587 464.274 79.8514 454.686 88.6405 C 429.949 111.317 399.898 134.013 375.6 156.483 C 399.535 144.507 435.377 133.059 462.294 138.512 C 464.329 138.924 467.933 141.34 468.591 143.307 C 476.677 167.452 421.171 185.497 418.654 199.271 C 431.562 207.816 474.734 181.082 486.488 172.112 C 515.431 150.026 555.196 139.972 590.944 138.024 C 643.49 135.159 629.61 159.638 590.783 170.145 C 569.074 176.02 557.131 175.635 535.709 177.639 C 530.346 182.22 518.145 191.359 523.985 198.741 C 541.345 206.83 571.355 194.375 588.013 186.989 C 666.407 152.23 734.503 126.832 820.262 148.148 C 865.131 122.694 909.776 101.29 960.437 89.719 C 977.342 85.8579 984.433 82.6774 1001.24 88.8041 C 941.201 104.774 911.033 125.303 861.697 164.044 C 898.691 181.929 947.116 199.101 987.04 183.902 C 1013.51 173.825 1134.47 128.653 1148.26 168.181 C 1148.38 168.538 1148.5 168.897 1148.61 169.259 C 1155.04 165.377 1164.66 158.994 1171.97 158.362 C 1190.27 156.782 1209.14 160.118 1227.66 158.974 C 1209.14 173.157 1143.71 213.828 1141.1 234.805 C 1140.76 237.516 1141.24 240.399 1142.99 242.566 C 1145.08 245.144 1148.28 246.293 1151.5 246.59 C 1180.94 249.309 1230.38 200.068 1256.56 186.228 C 1287.98 169.619 1365.99 146.962 1400.84 153.693 C 1408.89 155.247 1414.44 157.885 1420.31 163.733 C 1453 135.398 1494.97 100.938 1529.2 74.4553 C 1543.68 74.8904 1562.62 75.9697 1576.8 75.757 C 1556.18 100.567 1394.57 221.766 1396.24 241.83 C 1397.59 244.081 1400.06 246.687 1402.81 246.848 C 1430.83 248.482 1465.65 224.546 1488.13 211.851 C 1504.24 203.729 1521.59 187.779 1537.14 180.238 C 1579.55 159.685 1635.38 147.828 1682.35 154.011 C 1703.77 156.831 1699.38 176.325 1682.5 185.167 C 1656.8 198.632 1629.81 203.437 1601.04 204.986 C 1591.05 205.547 1578.13 204.511 1568.98 205.717 C 1551.08 223.507 1536.66 247.186 1576.19 246.969 C 1632.73 246.659 1669.22 209.172 1715 184.656 C 1742.96 169.678 1852.87 134.434 1875.81 165.104 C 1911.46 134.867 1948.6 105.197 1983.95 74.8724 C 1997.05 75.2361 2019.94 76.5883 2032.47 76.0631 C 2018.72 90.093 2002.12 104.745 1987.5 118.163 L 1927.34 173.719 C 1894.71 203.732 1857.41 231.564 1849.54 277.927 C 1901.18 277.9 1995.21 274.942 2039.75 310.373 C 2042.65 312.679 2045.3 318.626 2045.15 322.449 C 2045.02 325.803 2043.72 329.527 2041.08 331.767 C 2024.67 345.669 1988.07 345.132 1967.85 344.562 C 1916.85 343.125 1853.22 334.735 1816.33 296.106 C 1814.45 294.13 1812.59 292.136 1810.74 290.125 C 1784.33 290.198 1743.96 294.87 1717.33 297.882 C 1659.46 304.823 1601.65 312.305 1543.92 320.326 C 1442.14 334.441 1339.72 343.395 1237.03 347.153 C 1109.81 351.788 985.585 348.116 861.211 318.434 C 850.056 315.772 783.185 300.158 778.438 295.499 C 778.021 295.09 777.649 294.645 777.301 294.176 L 777.364 292.346 C 783.391 287.302 814.469 296.787 822.6 298.784 C 844.647 304.398 866.804 309.576 889.056 314.313 C 961.168 329.263 1034.61 336.852 1108.26 336.961 C 1250.91 338.438 1368.06 317.537 1508.11 300.383 C 1606.66 288.235 1705.76 281.046 1805.03 278.845 C 1799.67 264.167 1800.44 256.748 1802.46 241.397 C 1772.12 255.989 1687.17 265.933 1681.85 218.621 C 1641.8 246.954 1591.43 257.424 1543.09 251.76 C 1521.53 249.233 1507.58 235.876 1504.21 214.789 C 1474.99 234.768 1445.16 249.723 1409.31 252.638 C 1390.68 254.153 1369.64 256.3 1362.06 234.896 C 1349.04 241.384 1334.41 247.522 1319.96 249.864 C 1287.92 255.06 1240.13 259.971 1226.62 222.572 C 1214.87 231.219 1203.5 239.025 1189.67 244.154 C 1159.9 255.197 1113.57 262.701 1095.58 228.838 C 1064.17 247.534 1022.71 259.109 986.61 250.43 C 955.509 242.952 941.924 219.255 969.189 195.217 C 931.198 205.126 879.047 194.106 843.654 178.751 C 813.315 201.095 788.864 222.128 756.622 243.518 C 656.22 310.125 548.326 341.667 429.934 355.824 C 402.392 359.127 374.726 361.3 347.006 362.338 C 338.942 362.72 305.373 363.614 299.839 365 L 247.169 365 C 228.862 361.811 203.072 363.317 182.423 361.044 C 125.769 353.969 50.6384 349.172 10.1198 303.842 C 4.33401 297.369 1.20044 280.163 3.66405 272.397 C 15.1729 236.12 64.1923 220.984 97.9885 214.467 C 105.191 213.078 113.159 212.288 118.584 216.776 L 118.197 217.77 C 111.985 219.154 105.628 219.516 99.3941 220.863 C 72.3211 226.71 41.129 238.437 25.617 262.737 C 20.9104 270.11 18.5069 278.386 20.4533 287.081 C 23.6377 301.304 35.953 312.275 47.7723 319.693 C 134.253 373.971 350.259 360.732 450.324 337.682 C 540.773 316.846 620.786 277.42 698.191 227.206 C 731.808 205.397 764.498 182.073 798.848 161.411 C 781.769 158.103 759.199 158.88 741.644 158.88 C 719.884 159.112 697.873 162.366 676.69 167.108 C 623.393 179.038 573.427 212.032 517.231 207.076 C 501.247 205.666 489.061 199.551 481.913 184.904 C 463.464 198.197 436.372 210.486 413.446 206.889 C 386.363 202.639 389.514 184.271 408.864 171.232 C 424.208 160.892 443.242 155.618 457.994 145.698 C 424.738 139.95 380.376 159.053 352.727 177.253 C 343.629 183.243 326.067 200.124 316.158 208.065 C 305.251 208.089 282.535 204.741 270.914 203.163 C 285.009 190.141 302.131 177.266 314.909 165.059 C 279.283 184.949 248.886 204.225 206.62 207.014 C 185.743 208.391 152.199 209.511 161.621 177.69 C 167.331 160.179 196.97 138.263 211.601 125.979 C 206.274 125.947 173.956 126.4 171.761 124.564 C 171.877 116.16 210.883 119.423 218.815 119.147 C 228.073 114.123 245.015 99.0412 255.77 91.9496 C 269.65 92.253 268.271 91.8703 281.13 89.5806 C 293.118 87.446 326.411 68.5214 332.993 73.0736 C 331.313 76.4853 275.101 113.695 267.655 119.726 C 274.93 119.591 316.428 118.585 321.061 119.973 C 323.429 122.382 323.06 121.311 323.061 124.472 C 319.91 126.795 268.922 125.709 260.097 126.245 C 246.845 135.853 189.419 179.099 196.102 196.958 C 198.71 199.769 200.741 200.68 204.718 200.829 C 240.762 202.184 338.022 143.052 368.19 118.504 C 385.518 104.405 402.196 89.3322 419.071 74.6897 C 426.991 67.818 435.157 59.5155 444.034 53.97 z M 1850.25 287.994 C 1855.62 303.796 1864.42 313.401 1879.47 320.832 C 1909.1 335.459 1976.78 342.303 2007.95 331.717 C 2008.21 331.627 2008.47 331.535 2008.74 331.44 C 2013.45 329.71 2019.24 328.062 2021.54 323.173 C 2022.19 321.787 2021.83 318.511 2021.3 317.087 C 2019 310.823 2011.4 307.079 2005.7 304.498 C 1967.57 287.235 1901.95 284.52 1860.44 287.535 L 1850.25 287.994 z M 586.013 144.192 C 567.208 148.216 556.715 158.155 542.04 169.979 C 549.117 169.541 561.255 169.168 567.766 167.542 C 578.251 165.49 605.924 159.313 608.34 147.918 C 606.25 142.275 591.083 143.479 586.013 144.192 z M 1664.47 157.196 C 1634 163.343 1595.96 180.295 1572.57 200.68 L 1590.22 199.89 C 1618.85 196.505 1659.39 192.205 1678.33 167.945 C 1680.64 164.985 1680.52 164.175 1680.29 160.981 C 1675.84 155.203 1671.39 156.642 1664.47 157.196 z M 1369.43 160.226 C 1336.43 166.623 1306.37 183.915 1286.47 211.575 C 1266.69 239.07 1286.21 248.94 1313.07 244.66 C 1342.84 240.505 1375.58 204.617 1393.82 182.305 C 1413.61 158.098 1384.76 158.77 1369.43 160.226 z M 1096.69 160.283 C 1066.25 165.332 1046.33 178.098 1024.54 198.74 C 1001.39 220.658 993.964 250.239 1036.94 245.216 C 1068.65 241.038 1089.91 215.796 1110.89 194.079 C 1116.39 188.389 1128.31 175.282 1127.16 167.117 C 1126.86 165.04 1125.71 163.18 1124 161.967 C 1119.18 158.512 1102.54 159.022 1096.69 160.283 z M 1824.7 160.277 C 1793.81 165.553 1760.96 183.799 1742.56 209.831 C 1738.16 216.056 1732.51 226.091 1733.93 234.037 C 1734.48 237.109 1736.14 239.573 1738.71 241.339 C 1746.85 246.948 1758.88 246.132 1768.12 244.669 C 1796.31 241.33 1830.83 205.246 1848.01 183.475 C 1851.38 179.206 1855.63 173.006 1854.91 167.317 C 1854.63 165.157 1853.65 163.425 1851.92 162.11 C 1845.41 157.163 1832.32 159.532 1824.7 160.277 z"/>
</svg>