<svg version="1.1" xmlns="http://www.w3.org/2000/svg" style="display: block;" viewBox="0 0 2048 934" width="150" height="70" preserveAspectRatio="none">
<path transform="translate(0,0)" fill="rgb(254,254,254)" d="M 501.311 182.832 C 510.134 184.331 530.857 191.306 540.33 194.27 C 538.174 200.53 532.7 211.575 529.771 217.922 L 509.774 261.22 L 444.952 401.54 L 439.97 412.553 C 442.827 409.178 446.506 404.559 449.51 401.477 C 501.784 343.497 547.964 363.807 511.711 438.536 C 505.323 451.703 475.1 499.208 478.838 509.135 C 497.924 521.959 536.895 453.299 544.162 438.86 C 560.243 406.906 592.079 380.516 626.797 371.506 C 664.892 361.619 671.713 396.339 652.469 421.346 C 635.579 444.118 611.14 459.01 582.268 457.992 C 578.84 467.375 566.434 497.061 572.153 505.955 C 586.693 528.563 620.161 490.807 630.684 479.206 C 677.655 427.42 762.343 333.327 836.918 394.707 C 867.258 345.579 930.98 270.606 986.002 251.019 C 991.196 254.416 994.034 256.168 998.554 260.47 C 948.989 288.97 921.997 339.215 894.809 387.642 C 888.121 399.555 879.623 418.324 872.612 429.156 C 906.176 463.346 946.544 515.767 993.783 466.137 C 1019.31 439.321 1059.46 407.766 1097.01 403.363 C 1120.99 400.684 1129.01 423.501 1128.94 443.187 C 1153.97 402.835 1153.11 415.488 1199.04 418.687 C 1188.82 437.959 1178.37 457.108 1167.69 476.13 C 1149.77 508.507 1129.1 540.988 1123.8 578.28 C 1122.45 587.802 1120.56 605.802 1128.47 612.784 C 1156.15 624.857 1213.16 493.46 1227.93 475.745 C 1251.05 447.998 1351.87 359.931 1371.38 429.756 C 1393.53 383.089 1415.96 336.556 1438.66 290.159 C 1443.97 279.262 1464.22 236.115 1469.95 228.174 C 1482.82 229.446 1498.14 230.526 1510.77 232.281 C 1504.29 251.401 1483.81 291.95 1474.26 312.341 L 1404.61 461.548 C 1388.76 495.566 1371.91 529.94 1359 565.298 C 1355.27 577.935 1347.49 596.044 1351.69 608.985 C 1354 616.088 1365.36 614.211 1370.12 610.882 C 1405.89 585.852 1427.78 540.979 1451.86 505.403 C 1459.52 494.092 1464.14 482.766 1471.73 471.602 C 1490.25 443.471 1519.48 421.078 1550.68 409.28 C 1568.17 402.278 1604.89 394.769 1614.94 417.026 C 1630.5 451.51 1598.26 493.633 1568.29 508.735 C 1545.67 520.133 1528.64 521.724 1504.03 520.967 C 1498.52 537.744 1493.03 553.79 1489.74 571.05 C 1487.25 584.119 1484.42 608.204 1500.87 612.966 C 1517.92 617.9 1539.18 605.68 1551.01 594.623 C 1584.17 563.656 1603.22 521.603 1627.77 484.2 C 1647.1 455.316 1680.48 430.707 1710.94 414.387 C 1738.3 400.073 1769.42 393.129 1777.45 432.386 C 1787.13 414.128 1796.8 392.408 1805.82 373.447 L 1853.28 274.147 C 1859.9 260.283 1867.68 242.6 1874.73 229.378 L 1917.2 232.742 C 1891.59 296.508 1861.06 361.09 1834.6 424.681 C 1804.83 496.244 1769.13 563.124 1758.9 641.211 C 1757.1 654.955 1754.72 670.269 1755.02 684.089 C 1786.4 683.904 1817.73 682.222 1847.93 692.599 C 1868.46 699.656 1886.01 708.615 1901.67 723.92 C 1944.16 765.438 1940.65 833.453 1868.89 832.862 C 1830.27 832.926 1793.22 817.55 1766 790.155 C 1744.82 768.587 1728.76 738.341 1720.83 709.118 C 1627.92 724.336 1548.41 756.898 1459.75 785.02 C 1312.57 831.701 1118.57 868.372 968.399 817.69 C 910.02 797.987 850.948 761.68 801.197 725.807 C 799.75 724.76 798.313 723.698 796.887 722.623 C 798.58 718.802 801.038 712.766 803.021 709.298 C 841.995 731.541 874.708 754.094 915.779 774.079 C 1024.52 826.988 1150.1 825.417 1264.75 793.48 C 1323.77 777.038 1380.96 755.686 1439.68 737.315 C 1529.09 708.568 1621.78 691.284 1715.53 685.877 C 1711.01 659.887 1710.05 627.112 1713.44 600.805 C 1692.15 622.738 1654.26 641.309 1627.06 615.433 C 1609.45 598.684 1606.95 573.173 1604.96 550.083 C 1587.65 581.62 1562.18 613.699 1526.2 624.139 C 1511.76 628.33 1492.44 630.434 1479.09 622.427 C 1452.73 606.619 1447.53 566.57 1447.93 539.031 C 1430.38 571.595 1402.98 613.927 1366.34 625.4 C 1332.93 635.857 1322.14 613.461 1320.7 584.729 C 1305.32 605.749 1287.81 623.276 1261.08 627.058 C 1217.24 633.265 1202.11 592.728 1199.91 557.643 C 1185.32 584.332 1168 616.49 1136.86 626.042 C 1108.05 634.878 1092.35 609.973 1086.13 586.274 C 1084.91 581.459 1083.96 576.579 1083.28 571.657 C 1066.52 595.819 1046.91 621.031 1016.51 626.939 C 983.01 633.447 962.954 602.683 958.239 574.083 C 954.217 549.678 958.205 520.454 969.707 498.629 C 929.314 521.19 883.55 490.272 857.331 459.706 C 845.896 487.201 828.313 518.045 814.419 544.668 C 749.944 668.207 662.966 788.083 529.898 842.639 C 408.736 892.314 181.685 905.313 121.203 758.552 C 102.979 713.425 103.514 662.892 122.689 618.161 C 137.454 583.079 166.55 547.901 204.892 538.117 C 207.746 541.365 210.618 544.708 213.512 547.907 C 178.269 560.355 155.968 580.631 140.233 614.439 C 100.954 698.832 131.514 799.469 218.946 838.39 C 291.447 870.665 382.31 867.585 456.374 841.218 C 633.517 774.373 722.767 569.958 818.63 421.651 C 772.698 412.489 741.025 413.465 700.74 440.411 C 691.371 446.695 682.474 453.655 674.12 461.234 C 648.501 484.433 608.214 531.151 570.052 525.039 C 546.722 521.302 537.853 493.592 536.607 472.744 C 526.274 490.838 509.725 518.843 488.032 524.56 C 482.049 526.137 475.748 525.817 470.401 522.486 C 463.623 518.262 460.84 509.53 459.221 502.092 C 454.657 481.118 460.3 460.447 471.778 442.769 C 477.708 433.635 513.267 394.258 511.818 386.97 C 511.643 386.089 510.198 385.075 509.534 384.439 C 501.854 381.839 493.863 384.494 486.853 387.93 C 438.421 411.665 405.958 480.263 386.882 528.087 C 374.439 523.712 359.508 520.335 348.017 515.666 C 352.057 503.002 370.078 466.255 376.583 452.199 C 379.547 447.164 384.978 435.079 386.794 429.756 C 383.237 434.258 376.638 444.9 373.546 449.964 C 354.137 477.171 331.308 508.686 299.45 521.62 C 280.673 529.242 257.401 527.435 251.483 504.758 C 237.625 451.651 272.557 389.728 295.02 343.086 L 259.215 343.02 L 259.32 329.406 C 272.136 328.708 288.706 329.193 301.8 329.225 C 309.592 313.568 324.473 281.946 333.67 268.499 C 368.589 271.135 387.598 217.293 403.086 224.143 C 403.362 228.912 391.485 244.677 388.535 249.732 C 373.491 276.008 358.791 302.479 344.438 329.139 C 352.329 329.105 387.27 328.429 392.164 329.823 C 394.284 333.412 393.813 337.835 392.477 341.645 C 388.609 344.495 344.42 343.175 336.894 343.204 C 321.183 374.971 270.889 470.235 280.382 503.28 C 281.189 506.088 282.431 508.516 285.102 509.93 C 288.046 511.488 291.404 511.223 294.494 510.269 C 330.906 499.018 411.668 371.571 431.253 333.518 C 456.551 284.368 475.779 231.883 501.311 182.832 z M 1892.66 806.436 C 1914.43 792.032 1912.34 768.858 1899.61 749.388 C 1884.11 725.688 1853.22 711.51 1826.14 706.748 C 1809.2 703.77 1781.98 702.361 1764.43 704.565 L 1755.48 705.117 C 1762.47 775.009 1794.65 817.272 1870.53 813.602 C 1877.95 813.243 1886.5 810.496 1892.66 806.436 z M 605.793 439.067 C 624.127 431.896 638.438 420.083 646.88 401.984 C 653.809 387.131 646.471 381.606 631.807 382.209 C 607.235 392.38 600.698 420.789 588.629 442.433 C 594.055 441.601 600.696 440.849 605.793 439.067 z M 1022.12 612.364 C 1034.1 610.798 1043.44 604.673 1050.73 595.148 C 1071.21 568.394 1115.35 460.115 1111.08 427.901 C 1111.06 427.721 1111.03 427.541 1111 427.361 C 1105.76 419.139 1103.81 417.68 1093.8 418.334 C 1054.47 421.823 1030.03 476.975 1017.12 509.536 C 1008.2 532.022 987.195 605.948 1022.12 612.364 z M 1593.89 412.184 C 1563.58 419.804 1534.5 463.151 1518.44 489.185 C 1515.76 493.528 1507.52 506.152 1509.13 510.721 L 1518.76 509.464 C 1561.67 501.316 1597.45 474.382 1603.57 428.107 C 1604.28 422.766 1603.42 416.382 1599.26 412.588 C 1596.78 411.938 1596.44 411.874 1593.89 412.184 z M 1335.03 418.353 C 1295.1 424.996 1271.37 480.453 1258.46 514.89 C 1250.62 535.775 1230.75 607.334 1266.38 612.467 C 1284.28 608.115 1292.98 597.844 1302.16 582.699 C 1316.8 558.542 1360.7 454.592 1354.32 429.999 C 1353.32 426.168 1351.52 422.237 1347.97 420.165 C 1344.18 417.948 1339.3 417.84 1335.03 418.353 z M 1741.57 418.232 C 1696.72 425.052 1670.21 494.03 1658.46 533.19 C 1652.47 553.131 1641.01 606.829 1671.26 612.502 C 1686.47 609.467 1695.33 601.858 1703.67 589.38 C 1720.8 563.779 1765.8 457.016 1759.76 428.85 C 1759.01 425.357 1757.3 422.153 1754.17 420.252 C 1750.74 418.17 1745.5 417.834 1741.57 418.232 z"/>
<path transform="translate(0,0)" fill="rgb(254,254,254)" d="M 1266.27 64.3939 C 1329.03 60.8115 1397.84 85.6103 1416.11 149.984 C 1446.79 258.13 1347.79 322.935 1253.84 329.64 C 1080.54 342.006 983.447 184.511 844.228 111.996 C 790.173 83.3736 739.702 82.0174 682.082 98.1958 C 591.474 123.636 567.384 236.985 656.764 281.918 C 740.745 324.136 829.784 259.591 892.413 208.021 C 893.907 206.79 896.508 208.2 897.817 208.849 C 902.968 218.565 866.499 252.898 857.892 260.848 C 815.14 300.334 763.328 317.426 705.414 314.584 C 673.781 311.239 644.975 303.978 621.047 281.394 C 574.207 237.184 579.333 165.327 622.188 120.218 C 649.694 90.4166 688.095 75.7632 727.581 70.2272 C 886.525 47.9427 999.15 172.527 1115.44 257.918 C 1145.05 279.664 1183.88 301.582 1220.04 308.094 C 1255.83 314.541 1298.41 309.159 1331.77 294.54 C 1376.39 275.074 1411.05 233.459 1408.93 182.875 C 1407.98 157.357 1396.72 133.315 1377.73 116.245 C 1350.25 91.0632 1310.42 82.1701 1274.09 84.0579 C 1202.12 87.7979 1140.18 142.31 1094.03 192.878 C 1090.84 190.717 1089.13 189.07 1086.31 186.424 C 1132.16 114.763 1177.34 72.9537 1266.27 64.3939 z"/>
<path transform="translate(0,0)" fill="rgb(254,254,254)" fill-opacity="0.0431373" d="M 373.546 449.964 C 376.638 444.9 383.237 434.258 386.794 429.756 C 384.978 435.079 379.547 447.164 376.583 452.199 L 373.546 449.964 z"/>
<path transform="translate(0,0)" fill="rgb(254,254,254)" fill-opacity="0.0823529" d="M 439.97 412.553 L 444.952 401.54 L 449.51 401.477 C 446.506 404.559 442.827 409.178 439.97 412.553 z"/>
</svg>