<svg version="1.1" xmlns="http://www.w3.org/2000/svg" style="display: block;" viewBox="0 0 2048 1026" width="150" height="70" preserveAspectRatio="none">
<path transform="translate(0,0)" fill="rgb(5,86,65)" d="M 508.765 185.625 C 520.473 188.9 537.037 194.544 548.217 196.833 C 517.992 266.941 480.928 343.984 448.399 413.457 C 462.387 397.681 502.242 355.151 526.469 375.423 C 539.598 386.408 527.07 425.307 520.7 437.718 C 517.066 444.798 513.343 453.166 509.047 460.066 C 504.605 469.302 482.019 501.833 487.51 510.642 C 507.011 522.421 545.389 452.519 553.242 437.861 C 569.27 407.941 599.146 383.57 631.754 373.815 C 666.908 363.298 679.694 391.929 661.793 419.455 C 643.717 447.068 621.676 458.106 589.58 460.214 C 585.356 471.317 574.261 497.951 579.549 507.114 C 594.804 533.551 639.263 479.516 647.796 470.545 C 689.731 426.46 745.613 361.966 813.484 380.59 C 823.45 383.521 834.56 390.554 843.051 396.392 C 873.666 346.41 936.353 274.681 990.97 253.296 C 995.546 256.605 999.484 259.498 1003.86 263.119 C 949.063 294.832 905.424 374.387 879.006 431.224 C 897.786 450.778 927.611 486.64 956.583 487.874 C 984.356 489.058 996.203 467.867 1014.08 452.56 C 1037.68 432.343 1070.78 407.834 1102.6 405.075 C 1126.28 403.568 1133.02 425.401 1133.47 444.598 C 1139.41 435.372 1145.38 425.843 1151.48 416.752 C 1167.11 417.508 1188.67 419.995 1203.41 420.05 C 1193.3 439.075 1182.97 457.985 1172.43 476.777 C 1154.19 509.712 1133.19 542.558 1127.94 580.456 C 1124.05 607.758 1134.03 631.036 1157.72 599.785 C 1173.39 579.118 1193.48 550.783 1203.72 527.155 C 1225.82 476.125 1258.68 442.726 1308.02 416.555 C 1333.29 403.153 1364.42 394.15 1374.78 431.147 C 1395.04 386.521 1417.85 341.207 1439.25 296.979 C 1445.84 283.366 1464.92 242.28 1471.96 231.189 C 1485.95 232.519 1499.97 233.639 1514 234.55 C 1502.7 260.947 1488.78 289.325 1476.56 315.494 L 1409.06 460.123 C 1393.19 494.175 1376.61 528.229 1363.13 563.333 C 1358.5 575.393 1351.57 595.72 1354.33 608.835 C 1355.91 616.299 1366.6 614.854 1371.83 612.147 C 1383.73 605.993 1392.68 595.615 1401.25 585.555 C 1412.22 573.017 1420.62 558.384 1430.09 544.957 C 1446.59 521.805 1458.44 498.193 1473.6 474.139 C 1492.26 444.518 1524.58 421.252 1557.37 409.484 C 1596.98 395.265 1633.5 407.658 1617.06 457.302 C 1602.35 501.751 1552.26 527.307 1506.3 522.402 C 1499.46 544.352 1483.99 582.42 1493.23 604.819 C 1501.39 621.777 1527.2 613.578 1538.4 606.494 C 1567.4 588.148 1591.31 550.815 1607.84 520.996 C 1633.37 474.952 1662.04 442.464 1709.68 417.696 C 1728.68 407.82 1758.68 393.997 1773.62 419.17 C 1776.28 423.714 1777.52 430.134 1778.75 435.329 C 1787.13 413.678 1802.57 383.675 1812.97 361.939 L 1875.28 231.982 C 1889.28 233.383 1903.29 234.567 1917.33 235.534 C 1907.37 260.982 1895.1 288.075 1884.18 313.35 L 1828.84 441.472 C 1791.91 526.928 1760.07 589.534 1755.97 684.787 C 1808.14 681.992 1855.5 684.825 1897.99 720.359 C 1939.48 755.056 1946.82 828.616 1876.58 832.06 C 1797.86 835.92 1742.83 782.942 1722.09 709.671 C 1706.15 711.217 1679.22 717.192 1663.27 721.279 C 1604.78 736.271 1546.05 757.076 1488.77 776.265 C 1380.4 812.571 1275.03 837.262 1160.51 840.378 C 1094.67 842.169 1043.48 840.381 979.624 819.434 C 914.921 798.21 858.012 762.604 802.957 722.917 C 804.791 718.53 806.76 713.383 809.114 709.322 C 848.075 732.089 884.376 756.085 924.67 775.41 C 1095.86 857.515 1265.36 798.666 1432.49 740.32 C 1515.15 711.465 1628 689.679 1716.66 686.219 C 1711.88 658.36 1711.24 629.95 1714.74 601.902 C 1659.17 655.586 1607.54 624.528 1607.21 550.975 C 1587.33 584.656 1566.48 613.996 1527.02 625.178 C 1465.27 642.68 1449.97 589.438 1450.96 540.323 C 1431.34 573.109 1407.42 615.43 1367.98 626.337 C 1333.18 635.962 1327.43 613.732 1323.72 585.976 C 1308.96 606.445 1292.07 623.335 1266.34 627.448 C 1221.47 634.621 1205.19 594.285 1204.09 558.168 C 1194.36 576.206 1186.28 592.336 1171.67 607.111 C 1130.49 648.757 1093.08 625.253 1088.15 572.427 C 1078.45 586.611 1070.76 597.227 1057.76 608.798 C 1017.6 644.52 973.277 629.689 963.79 576.024 C 959.442 550.243 963.417 523.747 975.14 500.378 C 930.475 521.004 893.469 493.527 863.184 461.656 C 847.922 494.967 829.991 528.184 812.688 560.548 C 748.275 681.407 656.484 799.956 523.1 847.817 C 399.746 892.078 184.427 900.675 128.347 752.171 C 100.353 678.04 129.771 568.744 210.08 540.238 C 211.327 539.793 212.583 539.371 213.847 538.973 L 222.855 548.745 C 203.272 556.402 189.687 562.792 175.134 578.535 C 111.595 647.8 121.069 767.112 199.667 821.101 C 275.025 872.863 389.663 870.39 472.21 837.588 C 606.986 784.031 691.057 645.33 761.848 526.448 L 802.165 459.331 C 808.137 449.559 818.098 432.739 824.483 424 C 763.866 407.873 721.875 425.141 676.7 466.633 C 647.634 493.331 587.776 561.1 552.178 506.649 C 547.046 498.882 544.822 484.608 543.928 474.996 C 533.275 493.193 503.612 539.918 478.387 524.079 C 457.64 511.052 465.531 460.415 479.942 444.199 C 483.718 439.95 486.41 434.025 490.534 429.886 C 497.161 420.554 519.002 400.473 519.823 389.502 C 513.379 378.824 491.077 391.231 483.656 396.532 C 438.311 428.921 416.463 479.445 395.337 529.098 C 382.329 525.157 368.929 520.919 355.876 517.274 C 364.562 498.108 377.945 466.898 387.607 449.307 C 389.152 445.838 392.735 439.613 392.104 436.634 L 393.092 436.572 L 392.855 435.586 L 393.133 435.837 L 392.193 436.118 L 392.873 436.539 L 391.668 436.778 C 389.414 439.613 386.042 445.081 383.937 448.271 C 366.737 475.576 316.136 544.542 271.904 522.668 C 264.946 519.227 260.038 507.368 258.885 500.322 C 252.044 458.655 270.339 415.036 288.137 378.238 C 293.12 367.937 298.729 355.024 304.36 345.44 C 293.318 345.389 278.506 345.023 267.735 345.578 L 267.814 331.645 L 310.663 331.917 C 315.238 321.256 336.397 279.65 342.424 270.961 C 361.161 271.864 367.004 264.462 380.123 252.154 C 386.431 246.236 402.28 224.236 410.907 224.869 C 413.181 229.178 408.365 235.225 405.913 238.926 C 386.273 268.582 370.613 301.11 352.863 331.809 C 367.833 331.85 387.659 332.402 402.223 331.343 L 402.139 345.589 C 388.997 345.502 356.091 346.378 345.337 345.351 C 331.777 376.153 277.527 474.299 289.918 505.249 C 290.968 507.871 292.816 510.187 295.503 511.258 C 299.744 512.95 304.463 511.405 308.333 509.486 C 345.768 490.93 419.476 374.48 439.892 334.602 C 464.78 285.99 483.964 234.247 508.765 185.625 z M 1891.8 807.03 C 1909.68 794.71 1914.02 777.377 1904.5 758.065 C 1880.06 708.501 1815.2 701.354 1767.25 704.578 L 1756.7 705.371 C 1759.24 737.447 1767.63 768.831 1792.76 790.903 C 1811.62 807.469 1842.91 815.523 1867.58 813.631 C 1876.01 813.047 1884.24 810.803 1891.8 807.03 z M 641.755 384.196 C 618.752 389.039 604.704 423.863 596.425 443.971 L 609.942 441.477 C 628.438 436.05 641.973 425.11 651.8 408.393 C 658.965 396.204 659.807 383.771 641.755 384.196 z M 1675.24 612.931 C 1695.68 606.445 1704.99 592.244 1714.41 574.03 C 1726.67 550.297 1768.08 454.395 1760.65 430.443 C 1759.52 426.784 1757.48 423.451 1754.03 421.601 C 1749.78 419.328 1744.74 419.688 1740.11 420.11 C 1709.78 428.414 1704.19 445.816 1687.12 469.08 C 1672.53 488.947 1625.29 614.224 1675.24 612.931 z M 1596.15 414.056 C 1564.93 423.008 1535.01 465.312 1519.67 492.846 C 1516.14 499.033 1513.06 505.462 1510.45 512.085 L 1520.24 510.754 C 1549.24 506.077 1571.44 494.549 1589.34 470.577 C 1597.5 459.641 1614.42 425.582 1600.83 414.668 C 1599.25 414.362 1597.76 413.966 1596.15 414.056 z M 1336.88 420.159 C 1314.26 425.717 1298.34 443.425 1286.91 463.432 C 1265.23 501.354 1244.51 551.311 1251.51 595.733 C 1253.07 605.683 1261.05 613.086 1271.26 612.84 C 1289.77 607.698 1298.68 596.014 1307.74 579.968 C 1321.52 555.553 1364.31 455.366 1357.16 429.819 C 1356.16 426.255 1354.13 423.486 1350.83 421.743 C 1346.62 419.52 1341.49 419.485 1336.88 420.159 z M 1094.75 420.157 C 1070.9 426.412 1054.65 445.452 1042.9 466.857 C 1022.81 503.428 1002.39 552.853 1009.46 595.192 C 1011.14 605.3 1018.85 613.046 1029.33 612.901 C 1047.18 608.003 1056.42 596.528 1065.21 581.072 C 1078.91 556.984 1122.43 455.374 1115.49 431.218 C 1114.32 427.155 1112.07 423.378 1108.23 421.379 C 1104.24 419.303 1099.09 419.617 1094.75 420.157 z"/>
<path transform="translate(0,0)" fill="rgb(5,86,65)" d="M 1267.27 68.391 C 1269.64 68.0013 1272.53 68.0959 1274.96 67.9806 C 1325.37 65.5899 1377.56 81.7597 1406.13 125.907 C 1423.19 152.774 1428.8 185.353 1421.69 216.377 C 1404.76 293.764 1324.65 327.449 1252.93 332.358 C 1112.26 341.986 1014.8 227.551 910.009 153.017 C 875.33 128.35 838.517 105.236 796.542 95.6635 C 729.459 80.8925 625.951 102.966 609.826 181.526 C 598.386 237.261 639.734 283.734 692.822 294.482 C 757.076 307.49 814.078 274.577 864.173 238.055 C 875.942 229.509 887.434 217.345 898.777 209.841 C 901.827 209.684 904.598 212.402 907.154 214.341 C 861.6 281.547 798.188 319.016 716.25 317.171 C 684.591 317.145 650.405 305.066 627.358 283.083 C 607.105 263.765 595.979 237.938 595.411 209.987 C 594.725 176.245 608.328 145.317 631.627 121.207 C 660.848 90.9677 703.831 76.1779 744.995 72.6556 C 975.621 52.9215 1090.1 316.458 1257.63 312.946 C 1302.28 312.01 1348.75 298.874 1380.34 265.685 C 1400.21 244.808 1412.82 217.065 1412.07 187.971 C 1411.43 162.53 1400.64 138.403 1382.1 120.966 C 1355.26 95.5528 1315.45 86.2379 1279.46 87.7555 C 1205.67 90.8676 1146.13 145.229 1098.51 196.079 L 1090.58 189.69 C 1136.87 118.349 1180.13 78.2601 1267.27 68.391 z"/>
<path transform="translate(0,0)" fill="rgb(5,86,65)" fill-opacity="0.105882" d="M 383.937 448.271 C 386.042 445.081 389.414 439.613 391.668 436.778 L 392.873 436.539 L 392.193 436.118 L 393.133 435.837 L 392.855 435.586 L 393.092 436.572 L 392.104 436.634 C 392.735 439.613 389.152 445.838 387.607 449.307 L 383.937 448.271 z"/>
</svg>