<svg version="1.1" xmlns="http://www.w3.org/2000/svg" style="display: block;" viewBox="0 0 1356 1200" width="939" height="900" preserveAspectRatio="none">
<defs>
	<linearGradient id="Gradient1" gradientUnits="userSpaceOnUse" x1="582.423" y1="596.42" x2="617.577" y2="583.58">
		<stop class="stop0" offset="0" stop-opacity="1" stop-color="rgb(79,78,79)"/>
		<stop class="stop1" offset="1" stop-opacity="1" stop-color="rgb(107,106,106)"/>
	</linearGradient>
	<linearGradient id="Gradient2" gradientUnits="userSpaceOnUse" x1="1132.29" y1="484.833" x2="1133.67" y2="520.247">
		<stop class="stop0" offset="0" stop-opacity="1" stop-color="rgb(76,75,75)"/>
		<stop class="stop1" offset="1" stop-opacity="1" stop-color="rgb(107,107,108)"/>
	</linearGradient>
</defs>
<path transform="translate(0,0)" fill="rgb(255,255,255)" d="M 189.976 19.3928 C 253.972 17.4571 325.858 19.0387 390.475 19.0389 L 769.508 19.0431 L 1032.65 19.0293 L 1120.74 19.0244 C 1132.3 19.0375 1151.78 17.968 1162.79 19.1557 C 1186.33 21.6937 1212.17 37.1554 1236.38 39.9091 C 1236.35 39.9053 1238.8 46.244 1240.41 47.2811 C 1244.22 49.7264 1248.11 52.1819 1251.99 54.5426 C 1266.4 63.0554 1282.81 79.2641 1293.19 91.8645 C 1302.95 103.707 1302.41 110.496 1316.54 117.306 C 1318.25 133.28 1325.08 150.308 1329.52 165.946 C 1330.4 169.068 1336.66 176.29 1337 180.14 C 1338.53 197.518 1337.82 220.758 1337.82 238.031 L 1337.83 384.087 L 1337.83 626.473 L 1337.82 700.753 C 1337.82 717.598 1338.19 735.035 1336.56 751.773 C 1336.02 757.372 1331.1 760.902 1328.78 766.419 C 1325.77 773.533 1316.93 807.347 1314.52 811.484 C 1303.74 815.373 1306.2 821.846 1299.18 830.97 C 1289.18 843.951 1268.74 859.399 1259.44 871.201 C 1258.13 871.529 1256.84 871.923 1255.57 872.383 C 1245.58 876.059 1242.86 880.157 1238.53 889.435 C 1205.95 891.037 1194.91 908.484 1172.16 909.483 C 1144.03 910.717 1109.41 910.074 1080.73 910.074 L 904.819 910.076 L 663.23 910.082 L 588.246 910.122 C 573.862 910.17 558.263 910.761 544.057 909.989 C 543.253 911.318 541.433 914.172 540.204 914.959 C 526.091 923.994 519.493 941.493 505.055 949.766 C 503.159 956.872 502.762 959.019 502.087 966.332 C 497.508 966.621 492.192 967.841 487.624 968.747 C 485.557 974.843 484.754 978.725 483.484 984.94 C 480.29 986.143 476.799 987.799 473.644 989.21 C 469.678 995.117 467.671 999.064 464.498 1005.35 C 460.265 1007.04 458.742 1007.96 455.922 1011.42 C 440.719 1030.04 423.629 1047.13 408.802 1066.12 C 402.224 1074.54 397.855 1079.7 389.087 1086.07 C 387.95 1090.39 387.099 1097.7 386.425 1102.32 C 381.717 1102.77 376.441 1103.88 371.741 1104.75 C 369.981 1109.86 368.695 1114.92 367.31 1120.14 L 366.126 1120.88 C 351.607 1130.23 334.234 1157.86 318.732 1171.18 C 306.628 1159.54 302.955 1144.74 297.703 1129.1 L 290.176 1124.03 C 290.409 1105.38 287.449 1072.94 272.346 1060.12 C 269.023 1048.78 270.612 1037.81 268.152 1026.35 C 266.262 1017.55 261.087 1009.34 257.128 1001.35 C 255.369 997.797 252.667 993.625 251.918 989.847 C 250.227 981.321 247.134 942.717 239.153 939.746 L 235.224 942.038 C 231.923 937.158 232.187 916.646 232.121 909.873 C 223.216 910.177 188.383 910.708 181.066 909.67 L 180.283 909.554 C 168.831 907.926 148.877 893.7 135.796 891.952 C 130.261 891.212 123.147 890.758 118.035 889.262 C 113.557 876.438 107.032 874.825 94.6021 870.394 C 91.3541 863.782 64.5969 838.722 58.0022 833.392 C 52.8715 813.522 37.252 821.485 37.2153 792.438 C 37.2088 787.304 21.4559 755.179 20.4622 744.048 C 18.0277 716.778 18.8275 690.793 18.8405 663.708 L 18.8308 522.97 L 18.7998 309.581 C 18.7816 271.515 18.2986 232.525 19.4839 194.479 C 19.7753 180.213 25.9717 165.471 29.7648 152.23 C 40.5962 114.418 64.5067 88.6354 93.2072 63.0305 C 102.54 54.7043 111.281 51.0171 119.417 40.2404 C 122.697 39.7061 132.114 38.3635 134.803 37.4303 C 149.498 32.3318 175.04 20.2944 189.976 19.3928 z"/>
<path transform="translate(0,0)" fill="rgb(35,35,35)" d="M 444.889 290.812 C 451.784 290.279 457.077 290.012 464.001 290.01 C 464.079 293.747 465.213 307.717 465.08 309.588 C 464.678 322.588 464.914 335.93 464.988 348.959 C 459.816 348.819 450.568 348.836 445.759 348.12 C 445.669 354.462 445.441 361.32 445.513 367.615 C 445.556 373.819 445.446 380.812 445.671 386.945 L 426.051 386.876 L 426.13 406.026 C 420.625 406.247 411.997 406.851 406.734 406.451 L 406.85 425.985 L 388.274 426.044 C 388.237 438.487 387.738 451.694 387.931 463.97 C 381.619 464.096 373.983 464.072 367.785 464.478 C 367.865 470.905 368.009 477.472 368.001 483.888 L 348.221 483.897 L 349.07 502.843 C 344.993 502.881 332.208 502.654 329.171 503.782 L 329.107 522.082 C 326.312 522.148 311.945 522.338 310.129 522.81 C 310.038 528.895 309.773 535.762 310.01 541.783 L 290.627 542.018 L 290.55 556.326 L 290.85 560.988 L 295.45 561.172 L 465.008 561.097 C 464.969 579.732 465.214 599.1 464.873 617.668 C 465.255 623.902 465.082 632.421 465.126 638.836 L 277.758 638.929 C 243.724 638.908 208.371 638.367 174.438 638.987 C 174.949 622.671 172.238 594.799 174.503 579.209 L 175.112 580.757 C 181.23 580.635 187.68 580.82 193.823 580.893 L 194.001 561.228 L 193.877 541.938 C 200.163 542.094 206.668 541.973 212.973 541.941 C 213.094 535.394 213.112 528.845 213.029 522.298 C 219.589 522.905 225.624 523.108 232.197 522.508 L 232.655 503.031 L 231.823 485.037 C 239.59 484.262 243.996 483.793 251.824 484.151 C 252.221 479.477 251.951 469.305 251.955 464.277 C 258.908 463.912 264.607 464.202 271.528 464.514 C 271.163 456.98 271.145 452.881 271.719 445.367 C 278.185 445.158 283.513 444.844 289.992 445.611 C 291.024 442.206 290.844 429.653 290.888 425.306 C 296.629 426.123 304.281 426.423 309.971 425.301 L 310.212 405.906 C 316.75 406.374 322.678 406.5 329.209 406.606 C 329.176 400.166 329.221 393.726 329.345 387.286 C 335.744 387.218 342.141 387.077 348.536 386.862 C 349.109 382.149 348.86 373.123 348.867 368.071 L 344.062 367.849 C 340.001 368.15 333.922 368.006 329.705 368.04 C 278.275 367.459 225.834 367.927 174.33 367.914 C 174.481 361.515 174.189 353.817 174.105 347.318 C 172.817 334.284 174.19 305.045 174.081 290.125 C 184.048 291.248 199.154 290.938 209.384 290.939 L 263.499 290.908 L 444.889 290.812 z"/>
<path transform="translate(0,0)" fill="rgb(169,168,169)" d="M 174.503 579.209 L 175.112 580.757 C 181.23 580.635 187.68 580.82 193.823 580.893 C 193.821 591.125 194.33 609.656 193.476 619.184 C 220.014 618.248 249.993 618.897 276.747 618.909 L 445.232 618.896 C 445.311 607.386 444.773 591.845 446.081 580.856 L 464.077 581.01 C 463.876 593.355 463.858 605.701 464.025 618.046 L 464.873 617.668 C 465.255 623.902 465.082 632.421 465.126 638.836 L 277.758 638.929 C 243.724 638.908 208.371 638.367 174.438 638.987 C 174.949 622.671 172.238 594.799 174.503 579.209 z"/>
<path transform="translate(0,0)" fill="rgb(113,113,113)" d="M 175.112 580.757 C 181.23 580.635 187.68 580.82 193.823 580.893 C 193.821 591.125 194.33 609.656 193.476 619.184 C 220.014 618.248 249.993 618.897 276.747 618.909 L 445.232 618.896 C 445.311 607.386 444.773 591.845 446.081 580.856 L 464.077 581.01 C 463.876 593.355 463.858 605.701 464.025 618.046 C 459.675 620.743 450.833 618.835 445.187 619.601 C 436.985 620.403 422.385 619.994 413.73 619.969 L 359.807 619.859 C 304.613 620.076 249.418 619.973 194.225 619.55 C 189.774 619.038 179.798 619.561 174.93 619.689 C 174.502 607.765 174.82 592.691 175.112 580.757 z"/>
<path transform="translate(0,0)" fill="rgb(191,190,191)" d="M 174.503 579.209 L 175.112 580.757 C 174.82 592.691 174.502 607.765 174.93 619.689 C 179.798 619.561 189.774 619.038 194.225 619.55 C 193.164 624.876 193.176 632.19 193.483 637.692 C 266.249 638.709 339.284 637.304 412.068 637.844 C 423.246 637.927 434.575 637.92 445.753 637.765 C 445.864 631.333 446.114 626.023 445.187 619.601 C 450.833 618.835 459.675 620.743 464.025 618.046 L 464.873 617.668 C 465.255 623.902 465.082 632.421 465.126 638.836 L 277.758 638.929 C 243.724 638.908 208.371 638.367 174.438 638.987 C 174.949 622.671 172.238 594.799 174.503 579.209 z"/>
<path transform="translate(0,0)" fill="rgb(221,220,220)" d="M 174.081 290.125 C 184.048 291.248 199.154 290.938 209.384 290.939 L 263.499 290.908 L 444.889 290.812 L 445.211 309.861 C 362.98 309.29 280.257 310.644 198.107 309.626 L 194.67 310.457 C 192.252 315.16 193.761 341.237 193.797 348.329 C 189.444 348.485 177.882 349.508 174.815 347.313 L 174.105 347.318 C 172.817 334.284 174.19 305.045 174.081 290.125 z"/>
<path transform="translate(0,0)" fill="rgb(113,113,113)" d="M 175.024 309.912 C 181.317 309.987 192.802 308.826 198.107 309.626 L 194.67 310.457 C 192.252 315.16 193.761 341.237 193.797 348.329 C 189.444 348.485 177.882 349.508 174.815 347.313 C 174.738 334.846 174.807 322.378 175.024 309.912 z"/>
<path transform="translate(0,0)" fill="rgb(113,113,113)" d="M 174.105 347.318 L 174.815 347.313 C 177.882 349.508 189.444 348.485 193.797 348.329 C 198.898 348.728 203.987 348.565 209.096 348.444 C 229.461 347.963 249.836 348.055 270.205 348.053 L 319.544 348.071 C 324.418 348.079 338.747 348.448 342.952 347.966 C 345.006 348.624 346.799 348.689 347.456 350.206 C 349.414 354.722 348.795 363.132 348.867 368.071 L 344.062 367.849 C 340.001 368.15 333.922 368.006 329.705 368.04 C 278.275 367.459 225.834 367.927 174.33 367.914 C 174.481 361.515 174.189 353.817 174.105 347.318 z"/>
<path transform="translate(0,0)" fill="rgb(169,168,169)" d="M 174.105 347.318 L 174.815 347.313 C 177.882 349.508 189.444 348.485 193.797 348.329 L 194.069 367.029 L 294.687 366.855 C 304.995 366.855 335.645 366.343 344.062 367.849 C 340.001 368.15 333.922 368.006 329.705 368.04 C 278.275 367.459 225.834 367.927 174.33 367.914 C 174.481 361.515 174.189 353.817 174.105 347.318 z"/>
<path transform="translate(0,0)" fill="rgb(113,113,113)" d="M 290.85 560.988 L 295.45 561.172 L 465.008 561.097 C 464.969 579.732 465.214 599.1 464.873 617.668 L 464.025 618.046 C 463.858 605.701 463.876 593.355 464.077 581.01 L 446.081 580.856 L 444.997 579.931 C 393.893 579.963 340.606 580.682 289.692 579.812 C 289.848 572.954 289.951 567.838 290.85 560.988 z"/>
<path transform="translate(0,0)" fill="rgb(169,168,169)" d="M 295.45 561.172 L 465.008 561.097 C 464.969 579.732 465.214 599.1 464.873 617.668 L 464.025 618.046 C 463.858 605.701 463.876 593.355 464.077 581.01 L 446.081 580.856 L 444.997 579.931 C 445.901 574.19 445.66 567.91 445.634 562.06 L 345.753 562.23 C 335.307 562.241 304.261 562.855 295.45 561.172 z"/>
<path transform="translate(0,0)" fill="rgb(169,168,169)" d="M 444.889 290.812 C 451.784 290.279 457.077 290.012 464.001 290.01 C 464.079 293.747 465.213 307.717 465.08 309.588 C 464.678 322.588 464.914 335.93 464.988 348.959 C 459.816 348.819 450.568 348.836 445.759 348.12 C 444.929 336.298 446.529 322.159 445.211 309.861 L 444.889 290.812 z"/>
<path transform="translate(0,0)" fill="rgb(221,220,220)" d="M 444.889 290.812 C 451.784 290.279 457.077 290.012 464.001 290.01 C 464.079 293.747 465.213 307.717 465.08 309.588 C 459.739 309.993 450.792 309.819 445.211 309.861 L 444.889 290.812 z"/>
<path transform="translate(0,0)" fill="rgb(70,70,70)" d="M 348.064 483.231 C 347.638 479.067 347.662 474.251 347.52 469.989 C 346.844 449.72 346.386 444.157 367.761 445.193 L 367.965 445.711 L 367.785 464.478 C 367.865 470.905 368.009 477.472 368.001 483.888 L 348.221 483.897 L 348.064 483.231 z"/>
<path transform="translate(0,0)" fill="rgb(221,220,220)" d="M 348.767 464.486 C 355.405 464.767 361.173 464.645 367.785 464.478 C 367.865 470.905 368.009 477.472 368.001 483.888 L 348.221 483.897 L 348.064 483.231 C 349.131 477.949 348.793 470.064 348.767 464.486 z"/>
<path transform="translate(0,0)" fill="rgb(70,70,70)" d="M 342.952 347.966 L 368.067 348.152 L 368.102 386.753 L 348.536 386.862 C 349.109 382.149 348.86 373.123 348.867 368.071 C 348.795 363.132 349.414 354.722 347.456 350.206 C 346.799 348.689 345.006 348.624 342.952 347.966 z"/>
<path transform="translate(0,0)" fill="rgb(70,70,70)" d="M 290.016 556.299 L 290.55 556.326 L 290.85 560.988 C 289.951 567.838 289.848 572.954 289.692 579.812 C 340.606 580.682 393.893 579.963 444.997 579.931 L 446.081 580.856 C 417.2 581.21 387.507 580.554 358.5 580.72 C 330.104 580.883 300.177 581.447 271.949 580.485 L 272.042 559.8 C 276.503 559.964 285.848 560.845 289.403 559.395 L 290.016 556.299 z"/>
<path transform="translate(0,0)" fill="rgb(221,220,220)" d="M 387.293 426.039 L 388.274 426.044 C 388.237 438.487 387.738 451.694 387.931 463.97 C 381.619 464.096 373.983 464.072 367.785 464.478 L 367.965 445.711 C 371.463 444.872 382.841 445.163 387.026 445.163 L 387.293 426.039 z"/>
<path transform="translate(0,0)" fill="rgb(113,113,113)" d="M 309.873 522.29 L 310.129 522.81 C 310.038 528.895 309.773 535.762 310.01 541.783 L 290.627 542.018 L 290.55 556.326 L 290.016 556.299 C 289.508 551.129 289.738 547.188 289.946 542.047 C 290.199 535.719 290.228 529.194 290.336 522.846 C 297.567 522.926 302.63 522.928 309.873 522.29 z"/>
<path transform="translate(0,0)" fill="rgb(221,220,220)" d="M 251.955 464.277 C 258.908 463.912 264.607 464.202 271.528 464.514 C 271.007 471.201 271.114 477.189 271.168 483.874 C 267.014 483.911 255.405 483.685 252.022 484.676 L 251.824 484.151 C 252.221 479.477 251.951 469.305 251.955 464.277 z"/>
<path transform="translate(0,0)" fill="rgb(70,70,70)" d="M 329.345 387.286 C 335.744 387.218 342.141 387.077 348.536 386.862 C 349.107 394.038 348.567 400.022 348.112 407.171 C 344.177 407.028 332.708 406.368 329.209 406.606 C 329.176 400.166 329.221 393.726 329.345 387.286 z"/>
<path transform="translate(0,0)" fill="rgb(113,113,113)" d="M 386.834 406.284 C 393.303 406.728 400.218 406.515 406.734 406.451 L 406.85 425.985 L 388.274 426.044 L 387.293 426.039 C 388.378 421.008 387.291 411.7 386.834 406.284 z"/>
<path transform="translate(0,0)" fill="rgb(113,113,113)" d="M 310.212 405.906 C 316.75 406.374 322.678 406.5 329.209 406.606 C 329.56 413.897 329.219 419.576 328.818 426.846 C 322.826 426.464 316.089 425.878 310.145 425.887 L 309.971 425.301 L 310.212 405.906 z"/>
<path transform="translate(0,0)" fill="rgb(144,143,143)" d="M 309.971 425.301 L 310.145 425.887 L 309.99 445.061 C 306.082 444.994 293.304 444.274 291.001 446.157 L 290.536 447.956 L 289.992 445.611 C 291.024 442.206 290.844 429.653 290.888 425.306 C 296.629 426.123 304.281 426.423 309.971 425.301 z"/>
<path transform="translate(0,0)" fill="rgb(144,143,143)" d="M 406.835 387.798 C 412.212 387.069 420.435 387.054 426.051 386.876 L 426.13 406.026 C 420.625 406.247 411.997 406.851 406.734 406.451 C 406.396 400.258 406.67 394.002 406.835 387.798 z"/>
<path transform="translate(0,0)" fill="rgb(221,220,220)" d="M 231.823 485.037 C 239.59 484.262 243.996 483.793 251.824 484.151 L 252.022 484.676 L 251.958 502.885 C 247.995 503.302 237.067 503.041 232.655 503.031 L 231.823 485.037 z"/>
<path transform="translate(0,0)" fill="rgb(70,70,70)" d="M 252.022 484.676 C 255.405 483.685 267.014 483.911 271.168 483.874 C 271.22 490.271 271.169 496.694 271.685 503.067 C 267.21 503.162 255.412 503.727 251.958 502.885 L 252.022 484.676 z"/>
<path transform="translate(0,0)" fill="rgb(70,70,70)" d="M 368.011 425.999 L 387.293 426.039 L 387.026 445.163 C 382.841 445.163 371.463 444.872 367.965 445.711 L 367.761 445.193 L 368.011 425.999 z"/>
<path transform="translate(0,0)" fill="rgb(70,70,70)" d="M 232.655 503.031 C 237.067 503.041 247.995 503.302 251.958 502.885 L 251.758 522.082 C 245.24 522.325 238.719 522.467 232.197 522.508 L 232.655 503.031 z"/>
<path transform="translate(0,0)" fill="rgb(191,190,191)" d="M 426.084 368.069 C 432.511 367.993 439.078 367.77 445.513 367.615 C 445.556 373.819 445.446 380.812 445.671 386.945 L 426.051 386.876 L 426.084 368.069 z"/>
<path transform="translate(0,0)" fill="rgb(144,143,143)" d="M 193.877 541.938 C 200.163 542.094 206.668 541.973 212.973 541.941 L 212.977 561.195 L 194.001 561.228 L 193.877 541.938 z"/>
<path transform="translate(0,0)" fill="rgb(191,190,191)" d="M 271.719 445.367 C 278.185 445.158 283.513 444.844 289.992 445.611 L 290.536 447.956 L 290.885 464.289 L 271.528 464.514 C 271.163 456.98 271.145 452.881 271.719 445.367 z"/>
<path transform="translate(0,0)" fill="rgb(191,190,191)" d="M 329.458 483.963 L 348.221 483.897 L 349.07 502.843 C 344.993 502.881 332.208 502.654 329.171 503.782 L 329.024 503.233 L 329.458 483.963 z"/>
<path transform="translate(0,0)" fill="rgb(144,143,143)" d="M 329.024 503.233 L 329.171 503.782 L 329.107 522.082 C 326.312 522.148 311.945 522.338 310.129 522.81 L 309.873 522.29 L 309.604 503.15 C 315.853 503.335 322.727 503.223 329.024 503.233 z"/>
<path transform="translate(0,0)" fill="rgb(113,113,113)" d="M 213.029 522.298 C 219.589 522.905 225.624 523.108 232.197 522.508 L 232.133 541.851 C 225.746 541.834 219.359 541.864 212.973 541.941 C 213.094 535.394 213.112 528.845 213.029 522.298 z"/>
<path transform="translate(0,0)" fill="rgb(70,70,70)" d="M 272.098 541.914 L 289.946 542.047 C 289.738 547.188 289.508 551.129 290.016 556.299 L 289.403 559.395 C 285.848 560.845 276.503 559.964 272.042 559.8 L 272.098 541.914 z"/>
<path transform="translate(0,0)" fill="rgb(35,35,35)" d="M 1026.9 368.051 L 1104.2 368.087 L 1103.81 387.037 L 1123.06 387.181 L 1123.71 387.038 L 1142.72 387.194 C 1150.92 387.201 1155.45 387.065 1163.57 386.035 C 1162.46 393.959 1161.88 398.147 1161.93 406.147 C 1183.76 404.897 1180.32 406.106 1181.4 425.805 C 1182.52 431.117 1182.2 439.761 1182.2 445.428 C 1188.75 445.062 1193.84 444.985 1200.37 445.078 C 1200.73 451.724 1201.07 457.811 1201.01 464.487 L 1201.04 484.031 C 1201.03 496.831 1200.81 510.304 1201.04 523.047 L 1201.01 542.121 L 1200.93 561.041 C 1194.99 561.07 1187.63 560.919 1181.81 561.186 L 1181.87 568.968 C 1182.7 577.601 1181.75 590.17 1181.32 599.158 C 1175.07 599.406 1168.2 599.826 1161.99 599.713 C 1161.22 607.136 1161.07 611.551 1161.14 619.015 L 1143.04 618.906 C 1137.23 619.315 1129.36 619.067 1123.39 619.052 L 1123.19 619.831 C 1123.24 625.991 1123.17 632.947 1123.41 639.034 C 1109.96 639.061 1096.51 639.019 1083.07 638.909 L 1053.4 638.894 C 1042.6 639.796 1018.69 638.998 1006.93 638.961 C 1006.92 633.902 1008.02 623.212 1007.08 619.144 C 1000.76 619.329 994.435 619.403 988.113 619.365 L 968.925 619.225 C 968.624 613.344 968.828 605.996 968.717 599.909 L 949.333 600.042 C 949.112 593.445 949.19 586.685 949.185 580.073 C 944.864 578.941 933.751 579.8 928.865 580.045 C 930.303 572.83 930.046 568.526 929.96 561.226 L 930.06 541.997 L 929.84 535.575 C 928.819 532.06 928.732 526.755 928.513 522.951 C 922.789 522.833 916.708 523.015 910.955 523.088 C 910.939 509.983 910.854 496.877 910.7 483.773 C 913.931 483.782 917.296 484.219 920.531 484.305 C 928.089 484.506 928.356 483.838 929.917 477.418 L 930.084 464.087 C 929.861 457.668 930.046 451.426 930.184 445.012 L 929.181 427.218 C 935.78 426.461 942.392 425.811 949.012 425.27 L 949.072 406.066 C 955.604 406.052 961.876 405.831 968.335 406.855 L 969.192 406.579 C 968.476 402.944 968.1 391.514 967.822 386.959 C 974.975 386.927 980.808 386.158 988.099 387 L 1006.23 386.904 L 1007 387.024 L 1025.83 387.003 L 1026.74 369.009 L 1026.9 368.051 z"/>
<path transform="translate(0,0)" fill="rgb(113,113,113)" d="M 1014.67 619.13 C 1046.94 618.279 1090.94 618.442 1123.39 619.052 L 1123.19 619.831 C 1123.24 625.991 1123.17 632.947 1123.41 639.034 C 1109.96 639.061 1096.51 639.019 1083.07 638.909 L 1053.4 638.894 C 1042.6 639.796 1018.69 638.998 1006.93 638.961 C 1006.92 633.902 1008.02 623.212 1007.08 619.144 L 1007.79 618.966 L 1014.67 619.13 z"/>
<path transform="translate(0,0)" fill="rgb(191,190,191)" d="M 1007.79 618.966 L 1014.67 619.13 C 1018.01 619.414 1021.5 619.767 1024.83 619.982 C 1031.44 619.982 1038.56 619.844 1045.12 620.167 C 1045.44 625.813 1045.98 632.552 1046.09 638.118 L 1053.4 638.894 C 1042.6 639.796 1018.69 638.998 1006.93 638.961 C 1006.92 633.902 1008.02 623.212 1007.08 619.144 L 1007.79 618.966 z"/>
<path transform="translate(0,0)" fill="rgb(169,168,169)" d="M 1024.83 619.982 C 1031.44 619.982 1038.56 619.844 1045.12 620.167 C 1045.44 625.813 1045.98 632.552 1046.09 638.118 C 1039.62 637.832 1032.59 638.101 1026.08 638.218 C 1026.05 630.8 1026.01 627.368 1024.83 619.982 z"/>
<path transform="translate(0,0)" fill="rgb(221,220,220)" d="M 1084.06 619.89 C 1090.6 619.797 1097.15 619.788 1103.69 619.863 L 1123.19 619.831 C 1123.24 625.991 1123.17 632.947 1123.41 639.034 C 1109.96 639.061 1096.51 639.019 1083.07 638.909 L 1083.83 637.892 C 1084.54 630.276 1084.66 627.565 1084.06 619.89 z"/>
<path transform="translate(0,0)" fill="rgb(169,168,169)" d="M 1084.06 619.89 C 1090.6 619.797 1097.15 619.788 1103.69 619.863 C 1103.82 625.835 1104.05 632.102 1103.91 638.05 C 1097.7 638.018 1089.9 638.19 1083.83 637.892 C 1084.54 630.276 1084.66 627.565 1084.06 619.89 z"/>
<path transform="translate(0,0)" fill="rgb(169,168,169)" d="M 1026.9 368.051 L 1104.2 368.087 L 1103.81 387.037 L 1102.75 386.854 C 1084.51 388.229 1045.11 387.144 1025.83 387.003 L 1026.74 369.009 L 1026.9 368.051 z"/>
<path transform="translate(0,0)" fill="rgb(191,190,191)" d="M 1026.9 368.051 L 1104.2 368.087 L 1103.81 387.037 L 1102.75 386.854 C 1098.92 385.534 1087.8 385.828 1083.21 385.777 C 1083.01 380.49 1083.15 374.398 1083.14 369.041 L 1026.74 369.009 L 1026.9 368.051 z"/>
<path transform="translate(0,0)" fill="rgb(221,220,220)" d="M 1142.72 387.194 C 1150.92 387.201 1155.45 387.065 1163.57 386.035 C 1162.46 393.959 1161.88 398.147 1161.93 406.147 C 1183.76 404.897 1180.32 406.106 1181.4 425.805 L 1162.27 425.807 C 1155.44 425.216 1142.41 425.534 1142.13 415.49 C 1142.05 412.446 1142.16 410.868 1141.55 407.764 L 1138.15 406.575 L 1142.93 406.131 L 1142.72 387.194 z"/>
<path transform="translate(0,0)" fill="rgb(70,70,70)" d="M 1138.15 406.575 L 1142.93 406.131 C 1149.04 406.344 1155.98 406.734 1162.03 406.733 L 1162.27 425.807 C 1155.44 425.216 1142.41 425.534 1142.13 415.49 C 1142.05 412.446 1142.16 410.868 1141.55 407.764 L 1138.15 406.575 z"/>
<path transform="translate(0,0)" fill="rgb(70,70,70)" d="M 967.822 386.959 C 974.975 386.927 980.808 386.158 988.099 387 L 1006.23 386.904 L 1007 387.024 C 1007.21 393.628 1007.28 400.437 1007.99 406.992 C 1002.04 407.043 984.218 407.601 979.439 406.382 C 976.988 406.183 971.872 406.489 969.192 406.579 C 968.476 402.944 968.1 391.514 967.822 386.959 z"/>
<path transform="translate(0,0)" fill="rgb(221,220,220)" d="M 967.822 386.959 C 974.975 386.927 980.808 386.158 988.099 387 C 988.25 392.75 989.303 400.367 987.011 405.075 C 984.215 407.045 983.442 406.35 979.439 406.382 C 976.988 406.183 971.872 406.489 969.192 406.579 C 968.476 402.944 968.1 391.514 967.822 386.959 z"/>
<path transform="translate(0,0)" fill="rgb(221,220,220)" d="M 910.7 483.773 C 913.931 483.782 917.296 484.219 920.531 484.305 C 928.089 484.506 928.356 483.838 929.917 477.418 C 929.922 494.928 930.678 518.59 929.84 535.575 C 928.819 532.06 928.732 526.755 928.513 522.951 C 922.789 522.833 916.708 523.015 910.955 523.088 C 910.939 509.983 910.854 496.877 910.7 483.773 z"/>
<path transform="translate(0,0)" fill="rgb(70,70,70)" d="M 988.147 600.302 C 995.009 600.108 1001.28 599.99 1008.15 600.128 C 1008.06 602.97 1007.44 617.04 1007.79 618.966 L 1007.08 619.144 C 1000.76 619.329 994.435 619.403 988.113 619.365 L 968.925 619.225 C 968.624 613.344 968.828 605.996 968.717 599.909 C 974.049 599.982 983.076 599.866 988.147 600.302 z"/>
<path transform="translate(0,0)" fill="rgb(191,190,191)" d="M 968.717 599.909 C 974.049 599.982 983.076 599.866 988.147 600.302 L 988.113 619.365 L 968.925 619.225 C 968.624 613.344 968.828 605.996 968.717 599.909 z"/>
<path transform="translate(0,0)" fill="rgb(113,113,113)" d="M 1201.04 523.047 L 1201.01 542.121 L 1200.93 561.041 C 1194.99 561.07 1187.63 560.919 1181.81 561.186 C 1181.45 555.768 1181.63 547.734 1181.61 542.103 C 1180.96 537.589 1181.67 527.026 1181.87 522.048 C 1186.57 522.855 1195.96 522.885 1201.04 523.047 z"/>
<path transform="translate(0,0)" fill="rgb(169,168,169)" d="M 1181.61 542.103 C 1187.87 541.962 1194.7 542.108 1201.01 542.121 L 1200.93 561.041 C 1194.99 561.07 1187.63 560.919 1181.81 561.186 C 1181.45 555.768 1181.63 547.734 1181.61 542.103 z"/>
<path transform="translate(0,0)" fill="rgb(113,113,113)" d="M 949.012 425.27 L 949.206 425.898 L 949.108 445.058 L 949.198 464.154 L 930.084 464.087 C 929.861 457.668 930.046 451.426 930.184 445.012 L 929.181 427.218 C 935.78 426.461 942.392 425.811 949.012 425.27 z"/>
<path transform="translate(0,0)" fill="rgb(221,220,220)" d="M 949.012 425.27 L 949.206 425.898 L 949.108 445.058 L 930.184 445.012 L 929.181 427.218 C 935.78 426.461 942.392 425.811 949.012 425.27 z"/>
<path transform="translate(0,0)" fill="rgb(113,113,113)" d="M 930.06 541.997 C 937.747 542 941.403 542.076 949.031 543.188 L 949.062 561.221 C 949.118 567.387 949.288 573.945 949.185 580.073 C 944.864 578.941 933.751 579.8 928.865 580.045 C 930.303 572.83 930.046 568.526 929.96 561.226 L 930.06 541.997 z"/>
<path transform="translate(0,0)" fill="rgb(221,220,220)" d="M 929.96 561.226 C 936.326 561.058 942.696 561.056 949.062 561.221 C 949.118 567.387 949.288 573.945 949.185 580.073 C 944.864 578.941 933.751 579.8 928.865 580.045 C 930.303 572.83 930.046 568.526 929.96 561.226 z"/>
<path transform="translate(0,0)" fill="rgb(169,168,169)" d="M 1181.4 425.805 C 1182.52 431.117 1182.2 439.761 1182.2 445.428 C 1188.75 445.062 1193.84 444.985 1200.37 445.078 C 1200.73 451.724 1201.07 457.811 1201.01 464.487 C 1194.02 464.153 1188.71 464.181 1181.72 464.399 C 1181.71 457.717 1181.59 451.036 1181.34 444.358 C 1181.14 437.735 1180.97 432.452 1181.4 425.805 z"/>
<path transform="translate(0,0)" fill="rgb(221,220,220)" d="M 1181.87 568.968 C 1182.7 577.601 1181.75 590.17 1181.32 599.158 C 1175.07 599.406 1168.2 599.826 1161.99 599.713 C 1162.17 593.324 1162.25 586.933 1162.23 580.541 C 1167.82 580.765 1175.63 580.483 1181.38 580.435 C 1181.27 576.97 1181.66 572.507 1181.87 568.968 z"/>
<path transform="translate(0,0)" fill="rgb(113,113,113)" d="M 1181.72 464.399 C 1188.71 464.181 1194.02 464.153 1201.01 464.487 L 1201.04 484.031 L 1181.47 484.095 C 1181.7 477.761 1181.64 470.788 1181.72 464.399 z"/>
<path transform="translate(0,0)" fill="rgb(113,113,113)" d="M 1123.71 387.038 L 1142.72 387.194 L 1142.93 406.131 L 1138.15 406.575 C 1133.91 406.966 1127.86 406.962 1123.47 407.097 C 1123.62 402.487 1124.47 391.026 1123.06 387.181 L 1123.71 387.038 z"/>
<path transform="translate(0,0)" fill="rgb(191,190,191)" d="M 949.072 406.066 C 955.604 406.052 961.876 405.831 968.335 406.855 L 968.591 426.029 C 962.241 425.982 955.52 425.819 949.206 425.898 L 949.012 425.27 L 949.072 406.066 z"/>
<path transform="translate(0,0)" fill="rgb(169,168,169)" d="M 949.185 580.073 C 953.885 580.883 963.15 580.859 968.228 580.992 C 968.639 585.911 968.396 597.286 968.717 599.909 L 949.333 600.042 C 949.112 593.445 949.19 586.685 949.185 580.073 z"/>
<path transform="translate(0,0)" fill="rgb(70,70,70)" d="M 1163.22 560.796 C 1167.72 561.148 1177.67 561.777 1181.81 561.186 L 1181.87 568.968 C 1181.66 572.507 1181.27 576.97 1181.38 580.435 C 1175.63 580.483 1167.82 580.765 1162.23 580.541 C 1162.17 574.896 1162.86 566.585 1163.22 560.796 z"/>
<path transform="translate(0,0)" fill="rgb(113,113,113)" d="M 1124.01 599.877 L 1142.72 600.041 L 1143.04 618.906 C 1137.23 619.315 1129.36 619.067 1123.39 619.052 L 1124.01 599.877 z"/>
<path transform="translate(0,0)" fill="rgb(70,70,70)" d="M 1162.27 425.807 L 1181.4 425.805 C 1180.97 432.452 1181.14 437.735 1181.34 444.358 C 1178.92 444.318 1176.54 443.854 1174.02 444.278 C 1170.13 444.932 1167.8 447.274 1163.97 446.943 C 1161.8 440.641 1163.81 432.46 1162.27 425.807 z"/>
<path transform="translate(0,0)" fill="rgb(221,220,220)" d="M 1142.72 600.041 C 1148.81 599.944 1155.99 600.012 1161.99 599.713 C 1161.22 607.136 1161.07 611.551 1161.14 619.015 L 1143.04 618.906 L 1142.72 600.041 z"/>
<path transform="translate(0,0)" fill="rgb(255,255,255)" d="M 1026.71 425.59 C 1032.97 425.488 1038.78 425.68 1045.02 425.901 C 1058.03 425.843 1071.73 425.614 1084.69 425.993 C 1091.41 425.712 1097.36 425.825 1104.05 425.975 L 1104.2 444.884 L 1123.51 445.299 L 1124.2 483.319 C 1130.14 483.811 1137.23 484.563 1143.1 484.836 C 1142.86 497.163 1142.93 509.495 1143.32 521.818 C 1137.08 522.276 1129.89 523.136 1123.8 522.185 C 1124.48 535.417 1123.47 547.906 1123.7 560.99 C 1117.57 561.064 1110.31 561.341 1104.27 561.037 L 1104.04 561.859 L 1104.08 580.727 L 1085 580.621 C 1072.3 580.831 1059.6 580.888 1046.9 580.792 C 1040.03 580.633 1033.15 580.644 1026.29 580.822 C 1026.39 574.368 1026.53 567.914 1026.71 561.461 C 1024.29 561.043 1010.32 561.112 1007.17 561.089 L 1007.04 541.864 L 988.111 541.952 C 987.766 535.587 987.914 529.409 987.997 523.044 L 987.87 483.669 L 988.081 464.088 L 1007.03 464.12 C 1007.09 457.836 1007.23 451.553 1007.45 445.273 L 1026.26 444.954 C 1026.72 440.582 1026.62 430.429 1026.71 425.59 z"/>
<path transform="translate(0,0)" fill="rgb(169,168,169)" d="M 1045.72 561.488 C 1065.37 561.893 1084.58 560.822 1104.27 561.037 L 1104.04 561.859 L 1104.08 580.727 L 1085 580.621 C 1072.3 580.831 1059.6 580.888 1046.9 580.792 C 1040.03 580.633 1033.15 580.644 1026.29 580.822 C 1026.39 574.368 1026.53 567.914 1026.71 561.461 C 1030.73 561.52 1042.77 561.21 1045.72 561.488 z"/>
<path transform="translate(0,0)" fill="rgb(144,143,143)" d="M 1026.71 561.461 C 1030.73 561.52 1042.77 561.21 1045.72 561.488 C 1045.11 567.181 1044.63 574.484 1046.24 580.058 L 1046.9 580.792 C 1040.03 580.633 1033.15 580.644 1026.29 580.822 C 1026.39 574.368 1026.53 567.914 1026.71 561.461 z"/>
<path transform="translate(0,0)" fill="rgb(113,113,113)" d="M 1085.2 561.831 L 1104.04 561.859 L 1104.08 580.727 L 1085 580.621 C 1085 574.399 1085.13 568.064 1085.2 561.831 z"/>
<path transform="translate(0,0)" fill="rgb(169,168,169)" d="M 1084.69 425.993 C 1091.41 425.712 1097.36 425.825 1104.05 425.975 L 1104.2 444.884 L 1103.54 445.037 L 1084.65 444.976 C 1074.64 445.679 1056.84 445.018 1046.09 444.924 C 1046.16 437.828 1045.7 432.902 1045.02 425.901 C 1058.03 425.843 1071.73 425.614 1084.69 425.993 z"/>
<path transform="translate(0,0)" fill="rgb(70,70,70)" d="M 1084.69 425.993 C 1091.41 425.712 1097.36 425.825 1104.05 425.975 L 1104.2 444.884 L 1103.54 445.037 L 1084.65 444.976 C 1084.96 438.142 1084.89 432.796 1084.69 425.993 z"/>
<path transform="translate(0,0)" fill="rgb(169,168,169)" d="M 1006.98 483.651 L 1007.13 522.326 L 1007.14 541.281 L 1007.04 541.864 L 988.111 541.952 C 987.766 535.587 987.914 529.409 987.997 523.044 L 987.87 483.669 C 994.375 483.537 1000.47 483.386 1006.98 483.651 z"/>
<path transform="translate(0,0)" fill="rgb(113,113,113)" d="M 987.997 523.044 C 993.24 522.618 1003.23 522.867 1007.13 522.326 L 1007.14 541.281 L 1007.04 541.864 L 988.111 541.952 C 987.766 535.587 987.914 529.409 987.997 523.044 z"/>
<path transform="translate(0,0)" fill="rgb(144,143,143)" d="M 1103.54 445.037 L 1104.2 444.884 L 1123.51 445.299 L 1124.2 483.319 L 1123.85 483.936 L 1123.04 483.266 C 1118.77 482.857 1108.84 482.99 1104.23 482.937 C 1104.07 476.73 1104.16 470.781 1104.26 464.581 C 1104.04 458.39 1104.68 451.014 1103.54 445.037 z"/>
<path transform="translate(0,0)" fill="rgb(221,220,220)" d="M 1104.26 464.581 C 1110.27 464.427 1117.32 464.429 1123.23 463.997 L 1123.04 483.266 C 1118.77 482.857 1108.84 482.99 1104.23 482.937 C 1104.07 476.73 1104.16 470.781 1104.26 464.581 z"/>
<path transform="translate(0,0)" fill="url(#Gradient2)" d="M 1124.2 483.319 C 1130.14 483.811 1137.23 484.563 1143.1 484.836 C 1142.86 497.163 1142.93 509.495 1143.32 521.818 C 1137.08 522.276 1129.89 523.136 1123.8 522.185 C 1123.51 509.706 1123.79 496.471 1123.85 483.936 L 1124.2 483.319 z"/>
<path transform="translate(0,0)" fill="rgb(144,143,143)" d="M 1123.8 522.185 C 1124.48 535.417 1123.47 547.906 1123.7 560.99 C 1117.57 561.064 1110.31 561.341 1104.27 561.037 C 1104.09 554.882 1104.22 548.052 1104.21 541.842 L 1122.98 541.734 C 1122.98 535.395 1122.74 528.373 1123.8 522.185 z"/>
<path transform="translate(0,0)" fill="rgb(191,190,191)" d="M 1007.14 541.281 C 1011.58 542.558 1021.81 542.142 1026.86 542.132 C 1026.79 545.157 1026.3 559.365 1026.71 561.461 C 1024.29 561.043 1010.32 561.112 1007.17 561.089 L 1007.04 541.864 L 1007.14 541.281 z"/>
<path transform="translate(0,0)" fill="rgb(113,113,113)" d="M 1026.71 425.59 C 1032.97 425.488 1038.78 425.68 1045.02 425.901 C 1045.7 432.902 1046.16 437.828 1046.09 444.924 L 1026.84 445.133 L 1026.26 444.954 C 1026.72 440.582 1026.62 430.429 1026.71 425.59 z"/>
<path transform="translate(0,0)" fill="rgb(70,70,70)" d="M 988.081 464.088 L 1007.03 464.12 L 1007.18 464.882 L 1006.98 483.651 C 1000.47 483.386 994.375 483.537 987.87 483.669 L 988.081 464.088 z"/>
<path transform="translate(0,0)" fill="rgb(191,190,191)" d="M 1026.26 444.954 L 1026.84 445.133 C 1026.19 451.747 1026.26 457.457 1026.26 464.076 C 1023.18 464.128 1009.35 464.121 1007.18 464.882 L 1007.03 464.12 C 1007.09 457.836 1007.23 451.553 1007.45 445.273 L 1026.26 444.954 z"/>
<path transform="translate(0,0)" fill="rgb(35,35,35)" d="M 658.859 368.121 L 677.482 368.108 C 677.353 375.243 677.361 379.732 677.995 386.893 C 684.629 387.115 690.411 387.303 697.072 387.044 L 697.2 406.259 C 702.961 407.339 710.897 406.297 716.993 406.376 L 716.882 425.784 C 723.273 425.947 729.666 426.008 736.058 425.967 L 735.956 445.082 C 736.056 458.542 736.041 472.002 735.911 485.462 L 735.888 619.239 L 735.964 638.868 C 720.488 638.971 695.589 639.849 680.828 638.818 L 679.696 638.844 L 659.156 638.974 C 658.723 632.519 658.377 626.058 658.115 619.593 C 653.823 618.795 644.072 619.014 639.303 618.987 L 634.065 619.129 C 629.401 619.603 624.721 619.896 620.034 620.008 L 620.322 638.165 C 613.223 638.52 606.117 638.715 599.009 638.75 L 598.28 638.808 C 586.746 640.174 555.944 638.715 541.978 638.981 C 534.785 639.005 530.157 639.32 523.039 640.04 C 523.038 633.407 523.145 626.774 523.361 620.144 L 522.775 619.279 L 504.094 620.15 L 503.742 599.851 C 486.307 600.662 484.336 599.459 484.039 580.234 L 484.093 523.16 C 490.637 522.764 497.272 522.284 503.82 522.169 L 504.225 502.962 L 523.055 502.979 L 522.871 484.018 L 543.006 484.086 L 561.028 484.009 C 568.505 484.016 581.943 484.45 588.94 483.886 C 598.14 482.342 629.557 482.956 640.559 482.999 C 639.958 477.361 640.013 469.999 639.895 464.21 C 639.219 457.818 640.004 451.619 639.171 445.127 L 620.288 444.927 L 580.256 445.027 L 561.81 445.03 L 542.777 445.112 C 541.956 449.839 542.186 458.741 542.164 463.833 L 523.202 464.017 L 523.389 445.076 L 504.083 445.185 L 503.862 425.824 C 503.82 419.477 503.828 413.13 503.887 406.784 L 504.14 386.95 L 523.23 387.116 L 542.899 387.074 C 542.622 381.276 542.727 374.088 542.664 368.183 C 548.937 367.954 555.689 368.08 562.001 368.077 L 658.859 368.121 z"/>
<path transform="translate(0,0)" fill="rgb(113,113,113)" d="M 716.788 483.948 C 723.114 482.937 728.638 483.547 734.99 483.953 L 735.911 485.462 L 735.888 619.239 L 735.964 638.868 C 720.488 638.971 695.589 639.849 680.828 638.818 L 679.696 638.844 L 659.156 638.974 C 658.723 632.519 658.377 626.058 658.115 619.593 L 661.87 619.802 L 661.584 619.059 C 666.563 619.143 673.136 619.048 677.97 619.363 C 684.385 618.527 708.983 619.016 716.799 619.037 C 718.022 574.999 715.291 527.412 716.788 483.948 z"/>
<path transform="translate(0,0)" fill="rgb(169,168,169)" d="M 717.004 619.62 C 721.143 618.873 731.243 619.211 735.888 619.239 L 735.964 638.868 C 720.488 638.971 695.589 639.849 680.828 638.818 L 679.696 638.844 L 659.156 638.974 C 658.723 632.519 658.377 626.058 658.115 619.593 L 661.87 619.802 L 661.584 619.059 C 666.563 619.143 673.136 619.048 677.97 619.363 C 683.418 620.454 711.105 620.515 717.004 619.62 z"/>
<path transform="translate(0,0)" fill="rgb(191,190,191)" d="M 717.004 619.62 C 721.143 618.873 731.243 619.211 735.888 619.239 L 735.964 638.868 C 720.488 638.971 695.589 639.849 680.828 638.818 C 687.128 637.686 708.894 638.08 716.268 638.085 C 716.885 631.052 717.1 626.714 717.004 619.62 z"/>
<path transform="translate(0,0)" fill="rgb(191,190,191)" d="M 658.115 619.593 L 661.87 619.802 C 667.064 620.017 672.285 620.3 677.479 620.206 C 677.635 624.307 677.286 636.535 679.696 638.844 L 659.156 638.974 C 658.723 632.519 658.377 626.058 658.115 619.593 z"/>
<path transform="translate(0,0)" fill="rgb(169,168,169)" d="M 658.859 368.121 L 677.482 368.108 C 677.353 375.243 677.361 379.732 677.995 386.893 L 677.264 387.122 L 658.529 387.103 L 561.494 386.997 L 553.525 387.171 C 550.295 386.993 546.209 387.084 542.899 387.074 C 542.622 381.276 542.727 374.088 542.664 368.183 C 548.937 367.954 555.689 368.08 562.001 368.077 L 658.859 368.121 z"/>
<path transform="translate(0,0)" fill="rgb(221,220,220)" d="M 542.664 368.183 C 548.937 367.954 555.689 368.08 562.001 368.077 C 561.917 373.812 562.028 381.425 561.494 386.997 L 553.525 387.171 C 550.295 386.993 546.209 387.084 542.899 387.074 C 542.622 381.276 542.727 374.088 542.664 368.183 z"/>
<path transform="translate(0,0)" fill="rgb(221,220,220)" d="M 658.859 368.121 L 677.482 368.108 C 677.353 375.243 677.361 379.732 677.995 386.893 L 677.264 387.122 L 658.529 387.103 L 658.859 368.121 z"/>
<path transform="translate(0,0)" fill="rgb(169,168,169)" d="M 484.093 523.16 C 490.637 522.764 497.272 522.284 503.82 522.169 L 504.024 522.668 L 503.697 529.263 C 504.155 547.614 503.686 565.993 503.971 584.348 C 504.043 588.995 504.204 593.661 503.853 598.299 L 503.975 599.341 L 503.742 599.851 C 486.307 600.662 484.336 599.459 484.039 580.234 L 484.093 523.16 z"/>
<path transform="translate(0,0)" fill="rgb(191,190,191)" d="M 484.093 523.16 C 490.637 522.764 497.272 522.284 503.82 522.169 L 504.024 522.668 L 503.697 529.263 C 502.062 531.942 502.584 538.261 502.605 541.772 C 493.197 540.748 493.363 541.301 484.564 541.984 C 484.846 553.899 485.404 568.488 484.989 580.274 L 484.039 580.234 L 484.093 523.16 z"/>
<path transform="translate(0,0)" fill="rgb(221,220,220)" d="M 484.039 580.234 L 484.989 580.274 C 490.599 581.602 497.519 580.941 503.269 580.336 C 503.274 585.221 503.016 593.779 503.853 598.299 L 503.975 599.341 L 503.742 599.851 C 486.307 600.662 484.336 599.459 484.039 580.234 z"/>
<path transform="translate(0,0)" fill="rgb(191,190,191)" d="M 522.775 619.279 C 534.534 619.111 546.295 619.033 558.056 619.042 L 560.775 620.292 C 566.978 620.087 571.726 620.074 577.944 620.281 C 579.642 626.228 582.081 632.722 583.585 638.434 C 586.607 638.463 595.763 638.361 598.28 638.808 C 586.746 640.174 555.944 638.715 541.978 638.981 C 534.785 639.005 530.157 639.32 523.039 640.04 C 523.038 633.407 523.145 626.774 523.361 620.144 L 522.775 619.279 z"/>
<path transform="translate(0,0)" fill="rgb(221,220,220)" d="M 523.361 620.144 L 543.863 620.129 C 542.316 626.461 542.197 632.478 541.978 638.981 C 534.785 639.005 530.157 639.32 523.039 640.04 C 523.038 633.407 523.145 626.774 523.361 620.144 z"/>
<path transform="translate(0,0)" fill="rgb(144,143,143)" d="M 560.775 620.292 C 566.978 620.087 571.726 620.074 577.944 620.281 C 579.642 626.228 582.081 632.722 583.585 638.434 C 576.256 638.249 568.925 638.192 561.594 638.264 L 560.775 620.292 z"/>
<path transform="translate(0,0)" fill="rgb(169,168,169)" d="M 716.882 425.784 C 723.273 425.947 729.666 426.008 736.058 425.967 L 735.956 445.082 C 736.056 458.542 736.041 472.002 735.911 485.462 L 734.99 483.953 C 728.638 483.547 723.114 482.937 716.788 483.948 C 716.94 477.727 716.716 470.491 716.671 464.19 C 716.511 457.715 716.571 451.236 716.849 444.765 C 716.684 438.561 716.839 432.015 716.882 425.784 z"/>
<path transform="translate(0,0)" fill="rgb(221,220,220)" d="M 716.882 425.784 C 723.273 425.947 729.666 426.008 736.058 425.967 L 735.956 445.082 L 716.849 444.765 C 716.684 438.561 716.839 432.015 716.882 425.784 z"/>
<path transform="translate(0,0)" fill="rgb(144,143,143)" d="M 716.671 464.19 C 723.097 464.084 728.745 463.928 735.177 464.424 C 735.128 470.749 735.207 477.687 734.99 483.953 C 728.638 483.547 723.114 482.937 716.788 483.948 C 716.94 477.727 716.716 470.491 716.671 464.19 z"/>
<path transform="translate(0,0)" fill="rgb(113,113,113)" d="M 558.056 619.042 L 607.84 618.976 C 614.76 618.967 627.607 618.561 634.065 619.129 C 629.401 619.603 624.721 619.896 620.034 620.008 L 620.322 638.165 C 613.223 638.52 606.117 638.715 599.009 638.75 L 598.28 638.808 C 595.763 638.361 586.607 638.463 583.585 638.434 C 582.081 632.722 579.642 626.228 577.944 620.281 C 571.726 620.074 566.978 620.087 560.775 620.292 L 558.056 619.042 z"/>
<path transform="translate(0,0)" fill="rgb(169,168,169)" d="M 599.953 620.196 L 620.034 620.008 L 620.322 638.165 C 613.223 638.52 606.117 638.715 599.009 638.75 C 600.578 635.749 600.005 624.142 599.953 620.196 z"/>
<path transform="translate(0,0)" fill="rgb(70,70,70)" d="M 504.14 386.95 L 523.23 387.116 L 542.899 387.074 C 546.209 387.084 550.295 386.993 553.525 387.171 C 548.306 387.743 547.13 386.994 543.583 389.725 C 541.466 393.628 543.415 401.055 543.686 406.094 C 537.798 406.077 529 406.32 523.343 405.976 C 516.854 406.156 510.368 406.425 503.887 406.784 L 504.14 386.95 z"/>
<path transform="translate(0,0)" fill="rgb(169,168,169)" d="M 504.14 386.95 L 523.23 387.116 C 523.208 393.175 523.025 399.984 523.343 405.976 C 516.854 406.156 510.368 406.425 503.887 406.784 L 504.14 386.95 z"/>
<path transform="translate(0,0)" fill="rgb(191,190,191)" d="M 583.849 425.796 L 619.985 425.943 C 619.835 432.792 619.686 438.06 620.288 444.927 L 580.256 445.027 C 580.474 437.847 580.337 432.112 583.849 425.796 z"/>
<path transform="translate(0,0)" fill="rgb(191,190,191)" d="M 503.862 425.824 C 510.43 425.634 516.683 425.713 523.241 425.806 C 523.098 432.206 523.038 438.607 523.062 445.008 C 529.064 445.011 536.289 445.191 542.19 444.969 L 542.777 445.112 C 541.956 449.839 542.186 458.741 542.164 463.833 L 523.202 464.017 L 523.389 445.076 L 504.083 445.185 L 503.862 425.824 z"/>
<path transform="translate(0,0)" fill="rgb(221,220,220)" d="M 639.895 464.21 L 657.965 463.926 C 657.985 468.135 657.828 480.613 658.471 484.026 C 635.294 484.17 612.116 484.124 588.94 483.886 C 598.14 482.342 629.557 482.956 640.559 482.999 C 639.958 477.361 640.013 469.999 639.895 464.21 z"/>
<path transform="translate(0,0)" fill="rgb(144,143,143)" d="M 683.722 406.127 C 689.536 405.624 691.506 405.377 697.2 406.259 C 702.961 407.339 710.897 406.297 716.993 406.376 L 716.882 425.784 L 697 425.866 L 697.126 406.604 C 691.487 406.844 689.289 406.832 683.722 406.127 z"/>
<path transform="translate(0,0)" fill="rgb(70,70,70)" d="M 503.887 406.784 C 510.368 406.425 516.854 406.156 523.343 405.976 C 523.185 411.084 523.97 421.889 523.241 425.806 C 516.683 425.713 510.43 425.634 503.862 425.824 C 503.82 419.477 503.828 413.13 503.887 406.784 z"/>
<path transform="translate(0,0)" fill="rgb(144,143,143)" d="M 639.887 600.012 L 658.715 599.985 L 660.458 601.843 C 660.014 607.234 658.167 613.432 659.044 617.883 C 660.486 618.957 659.859 618.723 661.584 619.059 L 661.87 619.802 L 658.115 619.593 C 653.823 618.795 644.072 619.014 639.303 618.987 C 639.461 612.66 639.655 606.335 639.887 600.012 z"/>
<path transform="translate(0,0)" fill="rgb(169,168,169)" d="M 561.454 425.986 L 583.849 425.796 C 580.337 432.112 580.474 437.847 580.256 445.027 L 561.81 445.03 C 560.73 438.806 561.231 432.32 561.454 425.986 z"/>
<path transform="translate(0,0)" fill="rgb(191,190,191)" d="M 503.975 599.341 C 508.59 600.476 518.136 600.064 523.249 600.03 L 522.775 619.279 L 504.094 620.15 L 503.742 599.851 L 503.975 599.341 z"/>
<path transform="translate(0,0)" fill="rgb(169,168,169)" d="M 639.739 444.942 L 658.746 445.119 C 658.818 452.314 659.489 478.816 658.471 484.026 C 657.828 480.613 657.985 468.135 657.965 463.926 L 639.895 464.21 C 639.219 457.818 640.004 451.619 639.171 445.127 L 639.739 444.942 z"/>
<path transform="translate(0,0)" fill="rgb(144,143,143)" d="M 619.985 425.943 C 626.644 425.904 633.304 425.952 639.962 426.087 C 639.828 429.726 639.126 442.121 639.739 444.942 L 639.171 445.127 L 620.288 444.927 C 619.686 438.06 619.835 432.792 619.985 425.943 z"/>
<path transform="translate(0,0)" fill="rgb(169,168,169)" d="M 522.871 484.018 L 543.006 484.086 C 542.785 490.543 542.41 496.993 541.881 503.431 L 523.055 502.979 L 522.871 484.018 z"/>
<path transform="translate(0,0)" fill="rgb(113,113,113)" d="M 504.225 502.962 L 523.055 502.979 C 523.144 509.19 523.065 516.437 523.469 522.553 C 516.428 522.353 511.096 522.275 504.024 522.668 L 503.82 522.169 L 504.225 502.962 z"/>
<path transform="translate(0,0)" fill="rgb(169,168,169)" d="M 677.995 386.893 C 684.629 387.115 690.411 387.303 697.072 387.044 L 697.2 406.259 C 691.506 405.377 689.536 405.624 683.722 406.127 C 672.484 406.623 679.826 395.485 677.264 387.122 L 677.995 386.893 z"/>
<path transform="translate(0,0)" fill="rgb(113,113,113)" d="M 543.006 484.086 L 561.028 484.009 L 562.08 503.313 C 555.392 503.288 548.553 503.173 541.881 503.431 C 542.41 496.993 542.785 490.543 543.006 484.086 z"/>
<path transform="translate(0,0)" fill="rgb(70,70,70)" d="M 544.238 425.625 C 550.321 425.542 555.411 425.701 561.454 425.986 C 561.231 432.32 560.73 438.806 561.81 445.03 L 542.777 445.112 L 542.19 444.969 C 542.232 437.17 542.825 433.048 544.238 425.625 z"/>
<path transform="translate(0,0)" fill="rgb(113,113,113)" d="M 658.715 599.985 L 677.806 600.06 C 677.349 607.189 677.976 612.526 677.97 619.363 C 673.136 619.048 666.563 619.143 661.584 619.059 C 659.859 618.723 660.486 618.957 659.044 617.883 C 658.167 613.432 660.014 607.234 660.458 601.843 L 658.715 599.985 z"/>
<path transform="translate(0,0)" fill="rgb(255,255,255)" d="M 561.455 522.075 C 567.876 522.216 574.294 522.456 580.708 522.795 L 599.951 522.745 L 658.961 522.74 L 658.702 535.279 C 658.809 543.918 658.785 552.559 658.631 561.197 C 658.392 567.729 658.214 574.263 658.096 580.798 C 650.437 580.916 642.778 580.994 635.118 581.032 L 619.755 580.871 L 619.898 600.01 C 607.059 599.772 594.217 599.835 581.382 600.198 C 580.996 593.749 581.101 587.289 581.12 580.827 L 561.806 580.563 L 561.775 561.76 L 561.795 541.926 C 561.558 535.312 561.445 528.694 561.455 522.075 z"/>
<path transform="translate(0,0)" fill="rgb(221,220,220)" d="M 640.08 541.864 C 643.328 541.669 654.334 542.552 656.255 541.403 L 656.501 542.087 C 657.015 539.614 657.329 537.455 658.702 535.279 C 658.809 543.918 658.785 552.559 658.631 561.197 C 658.392 567.729 658.214 574.263 658.096 580.798 C 650.437 580.916 642.778 580.994 635.118 581.032 L 635.385 580.119 C 631.472 579.717 624.72 579.933 620.587 579.941 C 620.647 573.42 620.491 567.556 620.238 561.057 L 639.852 560.806 C 640.09 554.791 640.012 547.949 640.08 541.864 z"/>
<path transform="translate(0,0)" fill="rgb(113,113,113)" d="M 639.595 561.028 L 658.631 561.197 C 658.392 567.729 658.214 574.263 658.096 580.798 C 650.437 580.916 642.778 580.994 635.118 581.032 L 635.385 580.119 C 636.865 580.019 637.07 579.858 638.528 579.443 C 639.995 575.701 639.535 565.768 639.595 561.028 z"/>
<path transform="translate(0,0)" fill="url(#Gradient1)" d="M 581.12 580.827 C 593.996 581.137 606.878 581.151 619.755 580.871 L 619.898 600.01 C 607.059 599.772 594.217 599.835 581.382 600.198 C 580.996 593.749 581.101 587.289 581.12 580.827 z"/>
<path transform="translate(0,0)" fill="rgb(191,190,191)" d="M 561.775 561.76 C 568.499 560.807 574.4 560.894 581.161 560.832 L 580.89 579.911 C 594.122 580.092 607.355 580.102 620.587 579.941 C 624.72 579.933 631.472 579.717 635.385 580.119 L 635.118 581.032 L 619.755 580.871 C 606.878 581.151 593.996 581.137 581.12 580.827 L 561.806 580.563 L 561.775 561.76 z"/>
<path transform="translate(0,0)" fill="rgb(144,143,143)" d="M 561.455 522.075 C 567.876 522.216 574.294 522.456 580.708 522.795 C 580.814 528.758 581.14 536 580.875 541.861 C 575.354 542.134 567.461 541.923 561.795 541.926 C 561.558 535.312 561.445 528.694 561.455 522.075 z"/>
<path transform="translate(0,0)" fill="rgb(221,220,220)" d="M 580.708 522.795 L 599.951 522.745 C 599.959 529.53 600.133 536.271 599.359 543.01 L 580.875 541.861 C 581.14 536 580.814 528.758 580.708 522.795 z"/>
<path transform="translate(0,0)" fill="rgb(35,35,35)" d="M 794.264 272.246 C 813.284 271.272 853.583 269.868 872.056 272.093 L 872.022 290.85 C 872.889 372.059 872.199 454.368 872.176 535.652 L 872.119 603.514 C 872.058 614.232 871.161 628.031 871.848 638.316 C 866.66 639.36 850.499 639.058 844.451 639.03 C 827.933 638.814 811.413 638.82 794.895 639.05 C 793.334 622.614 793.848 601.308 793.846 584.515 L 793.862 499.425 L 793.828 368.442 C 793.827 343.157 793.36 315.914 794.229 290.79 C 794.372 284.418 794.492 278.635 794.264 272.246 z"/>
<path transform="translate(0,0)" fill="rgb(113,113,113)" d="M 794.901 290.599 C 798.713 289.902 809.756 290.158 814.152 290.152 C 812.851 305.385 813.279 322.935 813.281 338.392 L 813.303 411.106 C 813.337 479.715 812.673 549.209 813.434 617.69 C 814.957 619.019 814.842 619.146 816.799 619.439 L 813.721 619.809 C 813.815 625.847 813.993 631.883 814.256 637.916 C 825.133 637.897 863.027 637.114 871.848 638.316 C 866.66 639.36 850.499 639.058 844.451 639.03 C 827.933 638.814 811.413 638.82 794.895 639.05 C 793.334 622.614 793.848 601.308 793.846 584.515 L 793.862 499.425 L 793.828 368.442 C 793.827 343.157 793.36 315.914 794.229 290.79 L 794.901 290.599 z"/>
<path transform="translate(0,0)" fill="rgb(191,190,191)" d="M 794.229 290.79 L 794.901 290.599 L 794.752 502.059 C 794.753 539.073 793.592 582.918 795.038 619.455 C 798.689 619.336 811.062 618.729 813.721 619.809 C 813.815 625.847 813.993 631.883 814.256 637.916 C 825.133 637.897 863.027 637.114 871.848 638.316 C 866.66 639.36 850.499 639.058 844.451 639.03 C 827.933 638.814 811.413 638.82 794.895 639.05 C 793.334 622.614 793.848 601.308 793.846 584.515 L 793.862 499.425 L 793.828 368.442 C 793.827 343.157 793.36 315.914 794.229 290.79 z"/>
<path transform="translate(0,0)" fill="rgb(221,220,220)" d="M 794.264 272.246 C 813.284 271.272 853.583 269.868 872.056 272.093 L 872.022 290.85 L 871.163 290.603 C 866.378 289.636 821.928 290.129 814.152 290.152 C 809.756 290.158 798.713 289.902 794.901 290.599 L 794.229 290.79 C 794.372 284.418 794.492 278.635 794.264 272.246 z"/>
<path transform="translate(0,0)" fill="rgb(169,168,169)" d="M 871.163 290.603 L 872.022 290.85 C 872.889 372.059 872.199 454.368 872.176 535.652 L 872.119 603.514 C 872.058 614.232 871.161 628.031 871.848 638.316 C 863.027 637.114 825.133 637.897 814.256 637.916 C 813.993 631.883 813.815 625.847 813.721 619.809 L 816.799 619.439 C 832.965 618.561 854.662 619.198 871.239 619.202 C 872.503 511.351 871.628 398.568 871.163 290.603 z"/>
<path transform="translate(0,0)" fill="rgb(191,190,191)" d="M 174.215 561.032 C 180.81 561.133 187.405 561.199 194.001 561.228 L 193.823 580.893 C 187.68 580.82 181.23 580.635 175.112 580.757 L 174.503 579.209 C 174.106 573.732 174.255 566.64 174.215 561.032 z"/>
<path transform="translate(0,0)" fill="rgb(221,220,220)" d="M 1104.2 368.087 L 1123.93 367.97 C 1123.85 371.326 1123.34 384.639 1123.71 387.038 L 1123.06 387.181 L 1103.81 387.037 L 1104.2 368.087 z"/>
<path transform="translate(0,0)" fill="rgb(221,220,220)" d="M 344.062 367.849 L 348.867 368.071 C 348.86 373.123 349.109 382.149 348.536 386.862 C 342.141 387.077 335.744 387.218 329.345 387.286 C 329.236 380.946 328.92 374.305 329.705 368.04 C 333.922 368.006 340.001 368.15 344.062 367.849 z"/>
<path transform="translate(0,0)" fill="rgb(221,220,220)" d="M 1006.99 368.205 C 1013.48 368.026 1020.37 368.094 1026.9 368.051 L 1026.74 369.009 L 1025.83 387.003 L 1007 387.024 L 1006.23 386.904 C 1007.6 383.127 1007.04 372.769 1006.99 368.205 z"/>
<path transform="translate(0,0)" fill="rgb(221,220,220)" d="M 464.988 348.959 L 464.887 367.91 C 458.431 367.71 451.972 367.611 445.513 367.615 C 445.441 361.32 445.669 354.462 445.759 348.12 C 450.568 348.836 459.816 348.819 464.988 348.959 z"/>
<path transform="translate(0,0)" fill="rgb(221,220,220)" d="M 639.303 618.987 C 639.48 625.141 639.837 632.257 639.801 638.343 C 635.321 638.393 624.182 638.758 620.322 638.165 L 620.034 620.008 C 624.721 619.896 629.401 619.603 634.065 619.129 L 639.303 618.987 z"/>
</svg>