<svg xmlns="http://www.w3.org/2000/svg" xmlns:xlink="http://www.w3.org/1999/xlink" width="500" zoomAndPan="magnify" viewBox="0 0 375 374.999991" height="500" preserveAspectRatio="xMidYMid meet" version="1.0"><defs><clipPath id="3ca11b5a12"><path d="M 23 40 L 171 40 L 171 222 L 23 222 Z M 23 40 " clip-rule="nonzero"/></clipPath><clipPath id="75687a1a6d"><path d="M 8.371094 31.96875 L 363.109375 35.066406 L 360.371094 348.550781 L 5.636719 345.457031 Z M 8.371094 31.96875 " clip-rule="nonzero"/></clipPath><clipPath id="a6998af267"><path d="M 8.371094 31.96875 L 1085.332031 41.367188 L 1082.484375 367.605469 L 5.523438 358.207031 Z M 8.371094 31.96875 " clip-rule="nonzero"/></clipPath><clipPath id="371098be91"><path d="M 135 46 L 286 46 L 286 273 L 135 273 Z M 135 46 " clip-rule="nonzero"/></clipPath><clipPath id="dbdfb22797"><path d="M 8.371094 31.96875 L 363.109375 35.066406 L 360.371094 348.550781 L 5.636719 345.457031 Z M 8.371094 31.96875 " clip-rule="nonzero"/></clipPath><clipPath id="5c97e5a167"><path d="M 8.371094 31.96875 L 1085.332031 41.367188 L 1082.484375 367.605469 L 5.523438 358.207031 Z M 8.371094 31.96875 " clip-rule="nonzero"/></clipPath><clipPath id="0abbb2d36f"><path d="M 166 48 L 351 48 L 351 330 L 166 330 Z M 166 48 " clip-rule="nonzero"/></clipPath><clipPath id="a275669472"><path d="M 8.371094 31.96875 L 363.109375 35.066406 L 360.371094 348.550781 L 5.636719 345.457031 Z M 8.371094 31.96875 " clip-rule="nonzero"/></clipPath><clipPath id="a87a50938c"><path d="M 8.371094 31.96875 L 1085.332031 41.367188 L 1082.484375 367.605469 L 5.523438 358.207031 Z M 8.371094 31.96875 " clip-rule="nonzero"/></clipPath></defs><g clip-path="url(#3ca11b5a12)"><g clip-path="url(#75687a1a6d)"><g clip-path="url(#a6998af267)"><path fill="#0a7444" d="M 31.609375 64.648438 C 27.644531 57.753906 20.871094 51.222656 24.546875 42.511719 C 24.691406 42.167969 24.929688 41.914062 25.261719 41.753906 C 26.523438 41.152344 27.691406 40.871094 28.757812 40.902344 C 32.722656 41 38.015625 41.464844 42.53125 41.558594 C 55.988281 41.835938 79.378906 42.460938 112.691406 43.433594 C 114.945312 43.5 116.746094 44 118.085938 44.933594 C 119.886719 46.183594 121.347656 47.84375 122.46875 49.914062 C 126.5625 57.480469 129.234375 62.402344 130.492188 64.679688 C 143.378906 88.042969 156.277344 110.875 169.1875 133.167969 C 173.632812 140.851562 168.335938 147.859375 164.078125 154.539062 C 154.816406 169.054688 141.871094 190.011719 125.242188 217.417969 C 124.292969 218.980469 122.703125 220.382812 120.476562 221.621094 C 120.171875 221.789062 119.851562 221.816406 119.515625 221.695312 C 117.742188 221.0625 116.402344 219.828125 115.5 217.992188 C 113.433594 213.792969 111.738281 210.464844 110.417969 207.996094 C 100.269531 189.109375 92.3125 174.472656 86.542969 164.09375 C 76.332031 145.742188 64.15625 122.949219 56.316406 109.140625 C 48.257812 94.964844 39.738281 78.792969 31.609375 64.648438 Z M 31.609375 64.648438 " fill-opacity="1" fill-rule="nonzero"/></g></g></g><g clip-path="url(#371098be91)"><g clip-path="url(#dbdfb22797)"><g clip-path="url(#5c97e5a167)"><path fill="#af3335" d="M 285.289062 51.882812 C 285.167969 53.375 284.148438 55.679688 282.222656 58.800781 C 250.664062 109.910156 216.414062 165.808594 179.464844 226.496094 C 177.902344 229.054688 175.167969 232.84375 173.667969 235.4375 C 167.84375 245.558594 161.484375 256.105469 154.597656 267.078125 C 153.179688 269.339844 151.503906 271.085938 149.578125 272.308594 C 145.765625 274.730469 138.746094 261.738281 136.980469 258.234375 C 136.0625 256.402344 135.609375 254.238281 135.625 251.738281 C 135.644531 247.855469 135.742188 245.230469 135.921875 243.859375 C 136.855469 236.699219 143.007812 230.117188 146.539062 224.066406 C 150.972656 216.496094 155.273438 209.570312 159.441406 203.289062 C 163.558594 197.070312 166.703125 192.007812 168.867188 188.101562 C 172.523438 181.511719 177.332031 174.910156 181.636719 167.925781 C 205.429688 129.269531 228.066406 92.238281 249.542969 56.824219 C 251.523438 53.546875 254.027344 50.765625 257.046875 48.480469 C 259.117188 46.90625 262.480469 46.515625 264.601562 46.664062 C 270.335938 47.042969 276.074219 47.324219 281.816406 47.503906 C 284.363281 47.582031 285.523438 49.042969 285.289062 51.882812 Z M 285.289062 51.882812 " fill-opacity="1" fill-rule="nonzero"/></g></g></g><g clip-path="url(#0abbb2d36f)"><g clip-path="url(#a275669472)"><g clip-path="url(#a87a50938c)"><path fill="#af3335" d="M 167.214844 302.503906 C 168.15625 299.125 169.566406 295.917969 171.445312 292.882812 C 200.082031 246.574219 227.035156 202.792969 252.3125 161.542969 C 287.246094 104.527344 307.253906 71.734375 312.332031 63.15625 C 314.605469 59.320312 316.917969 56.140625 319.265625 53.613281 C 321.332031 51.390625 325.964844 48.585938 329.703125 48.578125 C 337.15625 48.570312 343.617188 48.792969 349.082031 49.242188 C 349.414062 49.269531 349.695312 49.402344 349.929688 49.640625 C 350.160156 49.875 350.289062 50.160156 350.3125 50.492188 C 350.480469 53.128906 350.289062 55.410156 348.964844 57.855469 C 346.769531 61.914062 344.480469 65.882812 342.097656 69.769531 C 284.007812 164.5625 232 249.527344 186.074219 324.65625 C 185.429688 325.707031 184.785156 326.675781 184.128906 327.558594 C 181.777344 330.78125 176.945312 330.328125 174.867188 327.402344 C 171.976562 323.320312 170.480469 321.230469 170.390625 321.128906 C 168.855469 319.351562 168.53125 316.976562 167.429688 314.6875 C 166.984375 313.769531 166.734375 312.875 166.679688 311.996094 C 166.59375 310.761719 166.535156 309.710938 166.5 308.839844 C 166.398438 306.695312 166.636719 304.582031 167.214844 302.503906 Z M 167.214844 302.503906 " fill-opacity="1" fill-rule="nonzero"/></g></g></g></svg>