<?xml version="1.0" standalone="no"?><svg xmlns="http://www.w3.org/2000/svg" viewBox="0 0 1440 320"><path fill="#0099ff" fill-opacity="1" d="M0,0L12,48C24,96,48,192,72,197.3C96,203,120,117,144,96C168,75,192,117,216,138.7C240,160,264,160,288,154.7C312,149,336,139,360,165.3C384,192,408,256,432,261.3C456,267,480,213,504,176C528,139,552,117,576,144C600,171,624,245,648,240C672,235,696,149,720,122.7C744,96,768,128,792,133.3C816,139,840,117,864,101.3C888,85,912,75,936,90.7C960,107,984,149,1008,149.3C1032,149,1056,107,1080,122.7C1104,139,1128,213,1152,202.7C1176,192,1200,96,1224,64C1248,32,1272,64,1296,85.3C1320,107,1344,117,1368,154.7C1392,192,1416,256,1428,288L1440,320L1440,0L1428,0C1416,0,1392,0,1368,0C1344,0,1320,0,1296,0C1272,0,1248,0,1224,0C1200,0,1176,0,1152,0C1128,0,1104,0,1080,0C1056,0,1032,0,1008,0C984,0,960,0,936,0C912,0,888,0,864,0C840,0,816,0,792,0C768,0,744,0,720,0C696,0,672,0,648,0C624,0,600,0,576,0C552,0,528,0,504,0C480,0,456,0,432,0C408,0,384,0,360,0C336,0,312,0,288,0C264,0,240,0,216,0C192,0,168,0,144,0C120,0,96,0,72,0C48,0,24,0,12,0L0,0Z"></path></svg>