<svg version="1.1" xmlns="http://www.w3.org/2000/svg" viewBox="0 0 1200 1200" width="300" height="300" preserveAspectRatio="none" display="block"><path fill="#ffffff" d="M624.218 39.584C628.991 41.6925 644.503 71.4791 648.593 78.1839 657.275 92.7276 666.581 106.89 676.483 120.633 680.577 126.395 697.362 149.301 698.194 154.557 700.048 166.276 699.424 187.355 699.376 199.698L699.307 278.938C700.331 425.954 697.858 573.519 700.16 720.367 672.212 719.751 644.529 702.516 632.67 677.07 621.418 652.925 623.122 626.631 623.033 600.718 622.971 582.739 623.019 564.818 622.994 546.869 622.78 482.015 622.929 417.16 623.439 352.308L623.517 151.926C623.462 136.869 621.249 48.0749 624.218 39.584zM579.533 39.3062 581.087 39.9822C583.411 43.1766 582.306 70.3463 582.238 76.5641 582.036 94.7894 581.954 113.016 581.991 131.242L582.067 328.611 582.117 546.003 582.052 612.94C582.031 622.156 581.706 631.66 581.839 640.832 582.453 683.363 551.231 716.635 508.304 720.293 506.171 717.177 506.772 614.48 506.746 602.168L506.964 321.986C507.02 266.25 505.622 209.271 508.358 153.713 508.598 148.855 542.267 102.397 547.82 93.2356 558.377 75.8192 569.88 57.7603 579.533 39.3062zM733.522 360.247C735.85 361.29 747.152 368.494 749.039 370.02 764.241 382.319 795.858 395.186 808.819 408.626 810.543 433.764 809.13 474.051 809.127 500.547L809.115 675.981 808.962 731.128C808.947 741.839 808.641 758.655 809.967 768.963 793.383 766.329 768.213 749.22 757.932 735.522 750.92 726.18 739.04 707.563 737.205 696.257 732.758 668.869 733.949 636.446 733.833 608.472L733.828 456.735 733.755 391.204C733.696 382.624 732.705 367.684 733.522 360.247zM471.652 360.885C473.378 364.19 472.386 439.037 472.386 447.941L472.688 592.742C472.767 621.98 472.932 650.438 471.52 679.676 469.681 717.752 438.596 756.584 401.655 767.093 399.543 767.34 399.624 767.419 397.554 766.524 396.696 761.485 397.223 741.234 397.237 735.282L397.286 668.462C397.673 581.696 397.507 494.929 396.788 408.165 405.999 400.866 423.362 391.562 433.624 385.172 446.464 377.176 458.902 368.988 471.652 360.885zM835.875 492.791C849.005 497.652 898.01 508.356 911.207 508.331 912.779 624.138 909.838 741.111 912.188 856.754 904.864 861.931 884.144 842.047 878.68 836.779 859.747 818.649 846.408 795.472 840.244 769.993 834.616 746.661 836.323 684.486 836.398 657.39 836.626 602.523 836.451 547.655 835.875 492.791zM369.023 493.202 369.485 493.538C370.954 497.097 369.661 727.407 369.639 747.81 369.63 755.957 365.447 773.998 362.552 782.711 352.279 813.62 325.811 844.838 296.513 859.263 293.757 855.905 295.14 829.289 295.154 823.016L295.176 750.801 294.977 510.112C313.59 503.98 345.604 500.215 369.023 493.202zM212.306 1039.8C192.026 1034.6 174.667 1028.57 162.203 1010.08 153.147 996.564 149.938 979.961 153.305 964.044 160.854 928.155 200.611 911.014 233.992 919.14 269.281 927.73 287.818 958.361 279.585 993.691 274.692 1014.69 258.499 1025.86 241.408 1036.06 259.081 1042.63 261.035 1041.88 276.245 1030.79 280.155 1036.47 285.234 1043.83 288.477 1049.79 286.308 1054.86 282.456 1056.25 277.39 1058.3 274.122 1059.61 270.799 1060.79 267.43 1061.81 241.57 1071.43 229.031 1056.41 212.306 1039.8zM222.948 1011.91C254.84 998.878 261.615 961.468 227.429 945.393 223.199 943.405 215.821 943.944 210.997 944.258 200.914 947.768 193.686 951.518 188.661 961.633 184.454 970.193 183.913 980.097 187.163 989.064 190.514 998.224 197.419 1005.64 206.315 1009.64 212.148 1012.26 216.591 1012.34 222.948 1011.91zM599.254 916.676 600.617 918.053C601.228 958.063 601.353 998.078 600.994 1038.09 592.023 1037.99 584.918 1037.91 576.028 1036.96 558.321 1024.06 536.956 983 517.555 965.197 521.125 981.718 521.261 1019.49 521.17 1037.67L491.288 1038.06C488.336 1034.91 489.656 931.49 489.872 916.931 497.66 916.859 508.544 916.579 515.788 919.936 533.159 927.985 558.156 979.537 570.952 987.474 571.422 986.956 570.783 923.717 571.1 917.063 580.233 917.104 590.224 917.348 599.254 916.676zM752.734 917.371C777.395 917.734 815.094 918.957 839.02 916.978L839.094 942.116C828.539 944.522 789.942 943.653 776.085 943.794 775.927 951.672 776.292 956.788 776.99 964.645 794.036 964.833 817.773 963.656 833.579 964.585L833.898 989.59C822.501 990.886 789.421 990.97 778.057 990.094 776.624 990.599 777.308 990.259 776.233 991.964 775.948 997.59 774.734 1006.11 777.995 1009.99 786.403 1014.03 828.802 1011.94 839.615 1010.93 840.885 1021.38 841.43 1027.38 841.122 1037.82 811.791 1038.92 775.422 1037.31 744.813 1037.81 745.003 1012.84 745.014 987.867 744.847 962.899 744.77 952.316 743.943 927.862 745.275 918.828 747.232 917.195 749.992 917.493 752.734 917.371zM893.884 917.402C906.273 916.946 943.205 918.241 948.816 930.551 949.794 938.096 943.205 948.72 938.964 954.77 930.25 950.509 921.658 945.962 911.954 944.478 904.985 943.412 888.435 940.646 888.34 951.648 895.034 964.153 931.24 966.068 942.656 978.921 949.12 985.008 950.959 991.386 951.478 1000.16 953.194 1029.18 924.541 1037.75 899.729 1037.93 888.765 1036.86 854.237 1030.64 850.604 1016.58 849.795 1013.46 857.245 994.198 864.752 997.495 876.75 1002.76 887.661 1012.36 901.748 1012.39 916.232 1013.96 928.057 1000.32 909.437 993.563 882.935 983.948 841.201 975.698 859.966 936.764 865.714 924.839 880.738 919.27 893.884 917.402zM702.592 917.157C713.835 916.602 723.163 917.777 735.306 916.663 732.414 926.021 727.722 937.349 724.15 946.648 714.194 969.779 700.922 1012.2 687.807 1034.84 685.21 1039.32 664.233 1038.13 657.437 1038.01 645.566 1011.34 635.565 983.151 624.778 955.948 621.861 948.591 611.43 923.012 610.433 916.805 620.857 917.391 632.849 917.014 642.729 918.703 650.853 933.191 657.259 958.476 663.503 974.612 666.532 982.44 667.921 992.195 672.724 999.64L674.552 999.684C676.935 995.271 681.717 978.199 683.695 972.167 689.747 953.746 696.046 935.408 702.592 917.157zM956.875 917.123C978.895 916.875 1001.97 918.309 1024.16 917.721 1035.26 917.427 1045.8 918.227 1056.98 916.639L1057.36 944.699C1045.75 944.066 1033.67 944.107 1022.01 943.984L1022.08 1009.25C1022.09 1018.76 1022.38 1028.51 1022.48 1038.06 1011.98 1037.69 1000.95 1037.74 990.407 1037.62 990.037 1027.48 990.708 1016.75 990.779 1006.5L990.827 943.182C981.875 943.978 968.795 946.111 960.28 943.907 952.786 941.967 953.845 922.297 956.875 917.123zM436.639 917.152C445.49 917.339 460.665 918.102 468.92 916.891 469.085 928.673 470.635 1033.1 467.797 1037.4 457.368 1037.5 446.94 1037.5 436.511 1037.4 436.363 1031.43 436.531 1024.89 436.724 1018.9 437.811 985.306 435.478 950.615 436.639 917.152z" data-c-fill="fefefe" fill-opacity="1"/><path fill="#ffffff" d="M 536.213 1111.68 C 538.578 1107.34 541.991 1101.59 547.658 1104.34 C 549.847 1110 547.713 1111.86 545.025 1117.22 L 544.991 1117.68 C 545.352 1124.98 547.141 1139.01 543.181 1144.52 C 538.604 1146.9 536.281 1145.85 532.177 1142.62 C 532.707 1136.99 533.438 1134.98 535.223 1129.53 L 530.715 1129.78 C 529.727 1134.57 528.832 1139.62 527.232 1144.21 C 521.427 1143.66 511.531 1146.27 506.79 1142.27 C 516.879 1122.71 512.499 1128.08 512.01 1106.63 C 513.676 1103.77 513.447 1104.55 516.851 1102.69 C 525.655 1102.79 525.24 1115.62 525.35 1122 C 525.429 1126.61 525.384 1126.18 528.509 1129.27 C 532.6 1123.53 532.631 1118.15 536.213 1111.68 z M 519.57 1141.32 C 520.134 1137.32 520.675 1134.57 520.323 1130.52 C 518.605 1128.31 519.496 1128.99 516.328 1128.28 C 516.407 1132.13 516.175 1137.08 517.546 1140.52 L 519.57 1141.32 z" data-c-fill="b0c2d3" fill-opacity="1"/><path fill="#ffffff" d="M535.223 1129.53C544.892 1126.9 538.912 1122.03 544.991 1117.68 545.352 1124.98 547.141 1139.01 543.181 1144.52 538.604 1146.9 536.281 1145.85 532.177 1142.62 532.707 1136.99 533.438 1134.98 535.223 1129.53zM536.213 1111.68C538.578 1107.34 541.991 1101.59 547.658 1104.34 549.847 1110 547.713 1111.86 545.025 1117.22 539.588 1117.22 539.303 1115.57 536.213 1111.68z" data-c-fill="c0d0d6" fill-opacity="1"/><path fill="#ffffff" fill-opacity="1" d="M 516.328 1128.28 C 519.496 1128.99 518.605 1128.31 520.323 1130.52 C 520.675 1134.57 520.134 1137.32 519.57 1141.32 L 517.546 1140.52 C 516.175 1137.08 516.407 1132.13 516.328 1128.28 z" data-c-fill="1b5872" data-o-fill=".035"/><path fill="#ffffff" d="M 333.653 975.229 C 339.697 974.321 376.41 973.714 379.38 976.816 C 380.849 981.299 381.491 990.195 380.745 994.848 C 373.292 994.897 364.906 994.869 357.476 995.292 C 343.052 996.113 323.793 996.707 333.653 975.229 z" data-c-fill="fefefe" fill-opacity="1"/><path fill="#ffffff" d="M 611.573 1103.93 C 620.85 1103.9 626.744 1103.85 635.272 1108.5 C 640.54 1115.71 627.221 1122.72 625.021 1130.34 L 625.161 1130.64 L 622.076 1132 C 618.026 1136.05 618.529 1138.57 616.053 1144.16 C 612.697 1146.92 611.978 1147.88 608.668 1145.18 C 606.313 1139.34 610.612 1113.35 611.573 1103.93 z" data-c-fill="c0d0d6" fill-opacity="1"/><path fill="#ffffff" d="M 611.573 1103.93 C 620.85 1103.9 626.744 1103.85 635.272 1108.5 C 640.54 1115.71 627.221 1122.72 625.021 1130.34 C 625.041 1127.43 625.21 1126.63 624.299 1123.92 C 616.965 1120 618.315 1116.92 617.844 1109.4 C 615.745 1106.17 614.787 1105.79 611.573 1103.93 z" data-c-fill="83abc4" fill-opacity="1"/><path fill="#ffffff" d="M 319.904 1095.66 C 324.075 1096.1 327.218 1095.65 329.396 1099.44 C 329.081 1102.82 327.814 1103.94 325.766 1106.68 C 327.482 1115.03 328.703 1123.58 330.666 1131.83 C 331.772 1136.48 335.618 1138.59 335.941 1143.39 C 333.623 1145.54 329.282 1145.65 326.453 1144.46 C 323.394 1141.68 321.986 1136.52 320.515 1132.5 C 312.902 1136.19 311.852 1145.78 305.315 1145.62 C 300.785 1137.96 313.665 1127.92 315.426 1119.48 C 316.972 1112.07 317.781 1108.26 316.351 1100.67 C 315.966 1098.63 318.121 1097.34 319.904 1095.66 z" data-c-fill="b0c2d3" fill-opacity="1"/><path fill="#ffffff" d="M 268.996 1112.27 C 268.481 1108.5 267.508 1105.42 272.003 1103.44 C 281.265 1105.53 279.839 1116.6 286.301 1123.06 L 287.339 1122.75 C 288.462 1117.2 288.068 1109.12 290 1104.86 C 292.866 1103.3 291.764 1103.73 295.438 1104.01 C 299.007 1106.41 297.986 1105.13 299.683 1108.74 C 299.861 1113.42 297.878 1115.42 294.798 1118.76 L 294.12 1119.49 C 294.126 1126.6 295.783 1141.27 292.12 1145.71 C 284.625 1145.29 282.008 1134.9 281.125 1128.93 C 279.188 1127.14 275.405 1123.46 273.45 1122.09 C 272.598 1119.67 270.521 1116.74 268.996 1112.27 z" data-c-fill="8cacb5" fill-opacity="1"/><path fill="#ffffff" d="M 485.369 1106.98 C 487.881 1107.33 489.123 1107.75 491.49 1107.04 L 492.277 1112.77 C 494.172 1121.46 496.587 1132.55 499.731 1140.77 C 500.297 1142.24 500.269 1141.98 500.556 1143.61 C 485.522 1154.56 488.351 1127.46 485.974 1126.58 C 481.634 1133.47 481.644 1135.57 478.368 1142.04 C 476.001 1144.5 473.833 1146.21 470.409 1146.29 C 465.362 1141.96 471.499 1134.64 474.373 1130.77 C 479.534 1123.74 480.834 1117.81 484.288 1109.8 L 485.369 1106.98 z" data-c-fill="97b7d3" fill-opacity="1"/><path fill="#ffffff" d="M 485.369 1106.98 C 487.881 1107.33 489.123 1107.75 491.49 1107.04 L 492.277 1112.77 C 492.239 1114.64 492.188 1116.51 492.123 1118.38 C 490.261 1121.43 491.227 1120.79 488.367 1122.13 L 486.333 1120.91 C 483.469 1116.04 484.42 1116.24 484.288 1109.8 L 485.369 1106.98 z" data-c-fill="b0c2d3" fill-opacity="1"/><path fill="#ffffff" d="M474.373 1130.77C478.936 1136.15 475.058 1137.33 478.368 1142.04 476.001 1144.5 473.833 1146.21 470.409 1146.29 465.362 1141.96 471.499 1134.64 474.373 1130.77zM457.424 1104.24C461.127 1103.95 463.828 1103.3 467.027 1104.97 469.14 1111.57 456.811 1114.26 456.702 1121.8 456.632 1126.59 456.048 1132.98 455.656 1137.84 455.854 1142.95 452.742 1145.57 447.769 1146.14 440.366 1142.57 445.384 1132.83 447.476 1126.87 448.399 1122.1 448.71 1119.42 449.038 1114.56 445.229 1116.06 442.561 1117.78 438.808 1115.58L438.3 1113.22C438.855 1109.33 441.141 1107.24 443.693 1104.22L457.424 1104.24z" data-c-fill="83abc4" fill-opacity="1"/><path fill="#ffffff" d="M 443.693 1104.22 L 457.424 1104.24 C 453.231 1106.17 449.299 1109.41 449.038 1114.56 C 445.229 1116.06 442.561 1117.78 438.808 1115.58 L 438.3 1113.22 C 438.855 1109.33 441.141 1107.24 443.693 1104.22 z" data-c-fill="6595c0" fill-opacity="1"/><path fill="#ffffff" d="M 447.476 1126.87 L 448.064 1127.82 C 451.899 1134.07 450.355 1133.41 452.549 1139.27 C 453.532 1138.69 454.609 1138.29 455.656 1137.84 C 455.854 1142.95 452.742 1145.57 447.769 1146.14 C 440.366 1142.57 445.384 1132.83 447.476 1126.87 z" data-c-fill="8cacb5" fill-opacity="1"/><path fill="#ffffff" d="M808.669 1104.02C812.653 1103.96 813.59 1103.92 817.559 1104.8 822.222 1108.97 816.677 1110.53 818.911 1117.39 820.216 1121.4 820.374 1122.52 822.378 1126.68L824.028 1127.13C829.68 1121.98 826.739 1113.93 828.676 1107.5 829.904 1103.41 837.783 1101.83 840.13 1107.4 839.573 1110.82 837.594 1113.11 835.598 1115.92 827.127 1129.15 829.852 1133.02 817.5 1147.26 816.515 1142.71 815.719 1137.2 814.716 1132.56 813.274 1125.88 806.239 1109.36 808.669 1104.02zM581.113 1131.67C581.589 1127.38 582.629 1122.25 581.039 1118.38 575.13 1112.5 572.863 1118.34 571.485 1113.63 577.505 1106.6 570.723 1104.89 580.095 1103.85 585.774 1103.22 594.62 1102.14 599.51 1105.67 601.532 1111.47 594.771 1115.5 590.39 1118.09 589.88 1122.73 589.479 1127.84 588.261 1132.31 588.241 1136.18 588.324 1140.05 588.51 1143.92 585.683 1146.14 586.904 1145.45 582.81 1146.11 579.383 1144.8 580.585 1145.7 578.358 1142.55 577.294 1138.94 579.541 1135.25 581.113 1131.67z" data-c-fill="83abc4" fill-opacity="1"/><path fill="#ffffff" d="M 581.113 1131.67 C 582.715 1129.88 583.842 1128.14 586.146 1127.69 L 587.748 1128.86 L 588.261 1132.31 C 588.241 1136.18 588.324 1140.05 588.51 1143.92 C 585.683 1146.14 586.904 1145.45 582.81 1146.11 C 579.383 1144.8 580.585 1145.7 578.358 1142.55 C 577.294 1138.94 579.541 1135.25 581.113 1131.67 z" data-c-fill="b0c2d3" fill-opacity="1"/><path fill="#ffffff" d="M 761.892 1109.11 C 764.138 1102.55 767.015 1098.39 773.471 1095.28 C 775.198 1094.46 776.948 1093.69 778.716 1092.96 C 791.282 1118.37 780.32 1111.2 781.252 1120.36 C 780.415 1122.01 779.486 1124.26 778.238 1125.44 L 775.438 1122.06 C 769.413 1119.87 766.034 1119.74 762.583 1125.15 C 761.727 1119.12 761.839 1115.13 761.892 1109.11 z" data-c-fill="83abc4" fill-opacity="1"/><path fill="#ffffff" d="M 761.892 1109.11 C 768.905 1106.6 765.962 1107.75 772.573 1107.46 L 773.434 1108.93 C 771.974 1113.82 769.584 1114.53 770.129 1117.86 C 776.001 1119.28 776.886 1117.52 781.252 1120.36 C 780.415 1122.01 779.486 1124.26 778.238 1125.44 L 775.438 1122.06 C 769.413 1119.87 766.034 1119.74 762.583 1125.15 C 761.727 1119.12 761.839 1115.13 761.892 1109.11 z" data-c-fill="97b7d3" fill-opacity="1"/><path fill="#ffffff" d="M 657.87 1092.66 C 660.305 1092.82 659.254 1092.4 661.127 1093.97 C 662.869 1103.45 655.817 1112.95 654.812 1120.38 C 654.333 1123.93 654.446 1137.8 654.407 1141.86 C 651.552 1145.14 651.406 1144.43 646.769 1146.12 C 643.881 1145.45 643.595 1145.45 641.125 1143.91 C 640.485 1140.12 645.719 1134.49 646.828 1129.32 C 648.786 1120.21 646.087 1109.23 649.715 1100.58 C 650.359 1099.05 656.233 1094.11 657.87 1092.66 z" data-c-fill="b0c2d3" fill-opacity="1"/><path fill="#ffffff" d="M 762.583 1125.15 C 766.034 1119.74 769.413 1119.87 775.438 1122.06 L 778.238 1125.44 C 772.73 1127.75 764.748 1132.64 769.083 1139.77 C 772.489 1139.9 778.583 1135.5 781.972 1133.52 L 783.213 1134.03 C 782.456 1140.24 773.167 1154.61 765.468 1152.93 C 753.429 1137.6 757.788 1141.15 762.583 1125.15 z" data-c-fill="8cacb5" fill-opacity="1"/><path fill="#ffffff" d="M 850.105 1104.22 C 854.266 1104.01 855.413 1103.87 859.532 1104.77 C 860.263 1110.67 854.067 1127.97 853.668 1134.78 C 853.27 1141.59 856.821 1140.06 854.101 1146.25 C 849.264 1145.75 847.435 1145.67 842.891 1144.03 L 842.28 1142.66 C 850.255 1127.72 844.519 1111.74 850.105 1104.22 z" data-c-fill="b0c2d3" fill-opacity="1"/><path fill="#ffffff" d="M912.023 1123.13C911.95 1118.52 912.639 1119.37 910.339 1116.07 904.586 1112.68 901.603 1117.4 900.157 1113.64 902.027 1112.91 903.91 1112.21 905.805 1111.55 906.318 1109.36 905.694 1108.37 904.917 1106.25 908.74 1101.85 931.971 1101.26 934.581 1111.35L933.675 1113.44C929.082 1114.54 925.051 1114.28 921.872 1117.17 920.227 1120.53 920.146 1121.64 919.57 1125.21 919.144 1123.79 918.394 1122.91 917.546 1121.7 914.162 1121.26 915.56 1121.08 912.023 1123.13zM719.849 1105.8C722.908 1104.13 723.701 1104.02 727.136 1103.3L729.475 1104.57C730.78 1113.26 721.182 1131.04 728.642 1140.16L732.215 1140.78C732.742 1142.26 733.261 1143.75 733.772 1145.24 706.337 1145.04 721.817 1123.16 719.431 1107.02L719.849 1105.8zM385.423 1119.17C388.44 1117.38 389.732 1116.27 392.142 1113.78L394.112 1113.5C395.514 1115.78 395.57 1115.88 396.061 1118.49 394.477 1124.71 393.05 1134.53 398.996 1138.97 402.555 1139.22 401.99 1138.81 405.613 1136.83 407.47 1139.53 408.257 1140.98 410.977 1142.94 400.635 1147.82 394.24 1144.03 385.268 1138.9 383.949 1130.38 384.383 1127.64 385.423 1119.17z" data-c-fill="97b7d3" fill-opacity="1"/><path fill="#ffffff" d="M 873.229 1111 C 875.297 1108.25 876.204 1106.36 879.406 1105.3 C 882.703 1107.74 881.54 1113.58 882.06 1117.48 C 884.074 1119.27 884.915 1119.84 887.511 1120.57 C 889.658 1123.31 889.792 1122.55 889.604 1125.16 C 886.063 1127.77 883.772 1127.87 879.444 1128.64 L 875.68 1139.91 L 874.058 1142.22 L 872.391 1141.97 C 870.829 1139.18 871.044 1137.01 870.886 1133.79 C 870.7 1130.64 873.023 1116.76 873.229 1111 z" data-c-fill="b0c2d3" fill-opacity="1"/><path fill="#ffffff" d="M 728.642 1140.16 L 729.651 1139.89 C 745.428 1135.47 735.597 1111.99 744.13 1103.77 C 747.544 1103.7 746.424 1103.67 749.78 1105.57 C 752.574 1110.86 748.457 1115.27 747.298 1120.58 C 745.896 1126.99 745.433 1133.37 743.347 1139.6 L 733.772 1145.24 C 733.261 1143.75 732.742 1142.26 732.215 1140.78 L 728.642 1140.16 z" data-c-fill="99a6c6" fill-opacity="1"/><path fill="#ffffff" d="M 694.161 1113.78 C 696.942 1111.53 696.604 1111.11 699.896 1110.59 C 701.968 1111.84 701.968 1111.72 703.286 1113.69 C 698.274 1128.84 700.621 1131.35 698.093 1143.45 C 694.629 1146.79 689.186 1146.3 686.089 1143.1 C 692.421 1131.31 690.091 1123.83 694.161 1113.78 z" data-c-fill="97b7d3" fill-opacity="1"/><path fill="#ffffff" d="M 694.161 1113.78 L 692.715 1113.18 C 690.829 1113.92 688.959 1114.7 687.108 1115.53 C 683.872 1114.74 684.92 1115.47 683.092 1112.89 C 682.857 1109.57 682.862 1109.16 684.53 1106.3 C 691.866 1100.27 708.308 1106.26 718.904 1105.85 L 719.849 1105.8 L 719.431 1107.02 C 714.028 1108.38 714.153 1113.69 708.004 1113.66 C 706.868 1113.66 704.331 1113.57 703.286 1113.69 C 701.968 1111.72 701.968 1111.84 699.896 1110.59 C 696.604 1111.11 696.942 1111.53 694.161 1113.78 z" data-c-fill="83abc4" fill-opacity="1"/><path fill="#ffffff" d="M 873.229 1111 C 874.208 1100.84 878.967 1098.39 886.496 1092.5 C 889.759 1096.94 893 1100.93 895.099 1106.04 C 895.103 1109.69 895.442 1112.03 893.524 1115.18 L 891.678 1116.32 C 887.929 1114.12 888.306 1112.18 887.313 1107.9 L 885.38 1106.31 C 882.662 1108.23 882.518 1114.05 882.06 1117.48 C 881.54 1113.58 882.703 1107.74 879.406 1105.3 C 876.204 1106.36 875.297 1108.25 873.229 1111 z" data-c-fill="8cacb5" fill-opacity="1"/><path fill="#ffffff" d="M 887.313 1107.9 L 895.099 1106.04 C 895.103 1109.69 895.442 1112.03 893.524 1115.18 L 891.678 1116.32 C 887.929 1114.12 888.306 1112.18 887.313 1107.9 z" data-c-fill="83abc4" fill-opacity="1"/><path fill="#ffffff" d="M 487.693 1086.36 C 491.278 1088.53 498.575 1091.93 500.508 1094.7 C 499.746 1100.94 492.479 1104.46 491.49 1107.04 C 489.123 1107.75 487.881 1107.33 485.369 1106.98 C 484.348 1105.05 483.822 1104.32 482.111 1102.95 C 481.456 1097.37 485.229 1093.82 487.693 1086.36 z" data-c-fill="99a6c6" fill-opacity="1"/><path fill="#ffffff" d="M 875.68 1139.91 C 883.496 1141.47 885.017 1135.4 892.448 1134.31 L 893.384 1135.35 C 891.03 1144.33 882.491 1150.64 875.373 1155.69 C 871.473 1146.68 868.895 1143.24 870.886 1133.79 C 871.044 1137.01 870.829 1139.18 872.391 1141.97 L 874.058 1142.22 L 875.68 1139.91 z" data-c-fill="8cacb5" fill-opacity="1"/><path fill="#ffffff" d="M 268.996 1112.27 C 270.521 1116.74 272.598 1119.67 273.45 1122.09 C 271.885 1128.93 278.564 1137.67 274.126 1144.27 C 271.357 1146.32 270.082 1146.25 266.752 1146.62 C 261.781 1142.05 269.831 1121.21 268.996 1112.27 z" data-c-fill="6595c0" fill-opacity="1"/><path fill="#ffffff" d="M 358.389 1128.7 C 354.865 1124.04 339.675 1109.4 349.616 1104.4 C 357.972 1105.04 360.748 1115.89 362.156 1122.72 C 359.824 1124.64 359.557 1125.93 358.389 1128.7 z" data-c-fill="c0d0d6" fill-opacity="1"/><path fill="#ffffff" d="M 398.308 1104.16 L 412.563 1104.04 C 414.441 1107.37 417.348 1111.22 417.278 1114.58 C 405.224 1123.66 409.835 1097.95 396.061 1118.49 C 395.57 1115.88 395.514 1115.78 394.112 1113.5 L 392.142 1113.78 C 389.732 1116.27 388.44 1117.38 385.423 1119.17 C 388.375 1112.96 393.309 1109.01 398.308 1104.16 z" data-c-fill="83abc4" fill-opacity="1"/><path fill="#ffffff" d="M912.023 1123.13C915.56 1121.08 914.162 1121.26 917.546 1121.7 918.394 1122.91 919.144 1123.79 919.57 1125.21 918.217 1132.42 918.758 1135.64 918.711 1142.86 916.155 1145.4 913.221 1145.87 909.921 1144.94 906.772 1139.67 910.751 1131 912.023 1123.13zM362.156 1122.72 371.821 1131.12C372.059 1135.01 372.824 1140.1 371.183 1143.45 367.801 1144.92 366.048 1142.9 363.038 1140.81 362.02 1138 359.656 1130.98 358.389 1128.7 359.557 1125.93 359.824 1124.64 362.156 1122.72z" data-c-fill="c0d0d6" fill-opacity="1"/><path fill="#ffffff" d="M348.37 1123.75C353.539 1131.78 356.918 1142.14 345.574 1146.13L342.095 1144.64 341.246 1142.45C341.629 1136.27 344.65 1128.62 348.37 1123.75zM367.493 1104.13C372.643 1103.85 375.632 1102.69 378.768 1107.01 379.233 1110.83 376.604 1115.91 375.055 1119.66 371.666 1120.32 373.084 1120.39 369.536 1118.96 365.695 1114.75 364.349 1109 367.493 1104.13z" data-c-fill="83abc4" fill-opacity="1"/><path fill="#ffffff" d="M 405.613 1136.83 C 407.384 1129.59 407.662 1130.64 402.188 1125.05 C 403.042 1122.22 402.432 1123.23 405.093 1121.29 C 415.689 1120.83 417.071 1135.86 410.977 1142.94 C 408.257 1140.98 407.47 1139.53 405.613 1136.83 z" data-c-fill="c0d0d6" fill-opacity="1"/><path fill="#ffffff" fill-opacity="1" d="M 288.477 1049.79 C 298.61 1065.77 276.377 1063.78 267.43 1061.81 C 270.799 1060.79 274.122 1059.61 277.39 1058.3 C 282.456 1056.25 286.308 1054.86 288.477 1049.79 z" data-c-fill="1e+38" data-o-fill=".016"/><path fill="#ffffff" d="M 622.076 1132 L 625.161 1130.64 C 629.561 1133.61 636.216 1138.46 633.963 1144.05 C 625.522 1148.2 623.176 1137.78 622.076 1132 z" data-c-fill="c0d0d6" fill-opacity="1"/><path fill="#ffffff" fill-opacity="1" d="M 530.715 1129.78 L 535.223 1129.53 C 533.438 1134.98 532.707 1136.99 532.177 1142.62 L 527.232 1144.21 C 528.832 1139.62 529.727 1134.57 530.715 1129.78 z" data-c-fill="1b5872" data-o-fill=".184"/><path fill="#ffffff" fill-opacity="1" d="M 940.516 1033.81 C 941.414 1034.74 941.035 1034.45 941.37 1036.1 L 939.159 1037.12 L 936.906 1036.97 L 936.847 1036.16 L 940.516 1033.81 z" data-c-fill="0" data-o-fill=".078"/></svg>