<svg width="1731" height="359" viewBox="0 0 1731 359" fill="none" xmlns="http://www.w3.org/2000/svg">
<path d="M0.000469744 358.064V-3.8147e-06H186.26C215.543 -3.8147e-06 239.451 5.37467 257.984 16.124C276.888 26.8733 290.974 41.8853 300.24 61.16C309.507 80.064 314.14 102.119 314.14 127.324C314.14 151.417 308.024 172.731 295.792 191.264C283.931 209.427 267.992 223.327 247.976 232.964C252.054 236.3 255.575 240.377 258.54 245.196C261.506 249.644 264.842 255.945 268.548 264.1L309.693 358.064H200.716L162.908 271.884C159.943 265.212 156.236 260.579 151.788 257.984C147.711 255.019 141.78 253.536 133.996 253.536H104.528V358.064H0.000469744ZM104.528 173.472H159.572C174.77 173.472 186.446 169.58 194.6 161.796C203.126 153.641 207.388 142.151 207.388 127.324C207.388 95.8174 192.562 80.064 162.908 80.064H104.528V173.472ZM472.93 358.064V-3.8147e-06H744.258V80.064H577.458V138.444H723.686V219.62H577.458V278H744.258V358.064H472.93ZM897.536 358.064V-3.8147e-06H986.496L1121.6 189.596V-3.8147e-06H1226.13V358.064H1136.62L1002.06 169.024V358.064H897.536ZM1395.98 358.064V-3.8147e-06H1556.11C1592.81 -3.8147e-06 1624.13 6.11601 1650.08 18.348C1676.02 30.2093 1695.85 49.484 1709.57 76.172C1723.28 102.489 1730.14 137.517 1730.14 181.256C1730.14 242.787 1715.13 287.637 1685.1 315.808C1655.08 343.979 1612.08 358.064 1556.11 358.064H1395.98ZM1500.51 278H1542.77C1560.19 278 1574.83 275.591 1586.69 270.772C1598.55 265.583 1607.64 256.131 1613.94 242.416C1620.24 228.331 1623.39 207.944 1623.39 181.256C1623.39 154.568 1620.42 133.996 1614.49 119.54C1608.93 104.713 1600.22 94.52 1588.36 88.96C1576.5 83.0294 1561.3 80.064 1542.77 80.064H1500.51V278Z" fill="#BFF747"/>
</svg>
