<?xml version="1.0" ?>
<!DOCTYPE svg  PUBLIC '-//W3C//DTD SVG 1.1//EN'  'http://www.w3.org/Graphics/SVG/1.1/DTD/svg11.dtd'>
<!-- Uploaded to: SVG Repo, www.svgrepo.com, Generator: SVG Repo Mixer Tools -->
<svg fill="#000000" width="800px" height="800px" viewBox="0 0 512 512" enable-background="new 0 0 512 512" id="Belt" version="1.1" xml:space="preserve" xmlns="http://www.w3.org/2000/svg" xmlns:xlink="http://www.w3.org/1999/xlink">
<g>
<path d="M447.683,237.203c-0.005-0.021-0.012-0.04-0.017-0.062c-0.041-0.188-0.098-0.371-0.17-0.548   c-0.018-0.043-0.037-0.084-0.056-0.125c-0.068-0.152-0.147-0.297-0.235-0.436c-0.029-0.044-0.056-0.088-0.086-0.131   c-0.096-0.135-0.201-0.262-0.315-0.383c-0.031-0.031-0.058-0.066-0.09-0.098c-0.297-0.29-0.644-0.526-1.029-0.695   c-0.057-0.024-0.116-0.041-0.174-0.063c-0.098-0.036-0.192-0.079-0.294-0.107l-171.434-51.573c-1.825-0.549-3.75,0.484-4.299,2.311   c-0.549,1.824,0.486,3.748,2.311,4.297l149.062,44.844h-35.265c-7.694-7.422-17.738-11.5-28.461-11.5H247.823   c-1.905,0-3.45,1.544-3.45,3.45v8.05H229.78h-13.052h-26.83h-24.403l19.875-65.827c0.373-1.234,1.201-2.247,2.332-2.854   c1.127-0.605,2.422-0.734,3.652-0.361l35.28,10.614c1.826,0.553,3.749-0.485,4.298-2.311s-0.486-3.749-2.31-4.298l-35.272-10.611   c-2.992-0.906-6.158-0.592-8.913,0.887c-2.752,1.479-4.766,3.941-5.673,6.938l-20.477,67.824h-45.174   c-6.104,0-11.971,2.701-15.694,7.227l-29.074,35.365c-5.469,6.662-5.467,15.958,0.001,22.607l29.073,35.364   c3.723,4.524,9.589,7.226,15.693,7.226h50.692h26.093h26.83h13.052h14.594v8.05c0,1.905,1.544,3.45,3.45,3.45h109.308   c10.73,0,20.779-4.079,28.472-11.5h58.698c1.905,0,3.45-1.545,3.45-3.45V237.939c0-0.02,0.006-0.037,0.006-0.056   C447.757,237.65,447.727,237.424,447.683,237.203z M160.354,335.322h-47.242c-4.064,0-7.938-1.761-10.364-4.709L73.675,295.25   c-3.402-4.137-3.401-9.701,0-13.845l29.072-35.361c2.426-2.949,6.301-4.71,10.365-4.71h47.242V335.322z M186.448,335.322h-19.193   v-93.988h19.193V335.322z M213.277,335.322h-19.93v-93.988h19.93V335.322z M226.33,335.322h-6.153v-93.988h6.153V335.322z    M233.23,335.322v-93.988h14.593h109.308c12.512,0,22.689,10.173,22.689,22.678v17.354h-30.98c-1.438,0-2.749,0.586-3.691,1.541   c-0.943,0.942-1.53,2.242-1.53,3.68c0,2.875,2.347,5.221,5.222,5.221h30.98v20.838c0,12.504-10.178,22.678-22.689,22.678H247.823   H233.23z M391.32,312.645c0,8.899-3.412,17.325-9.611,23.731c-6.508,6.735-15.236,10.446-24.578,10.446H251.273v-4.6h105.857   c16.316,0,29.59-13.27,29.59-29.578v-20.838h2.828c0.624,0,1.216-0.128,1.771-0.33V312.645z M391.32,281.697   c-0.555-0.203-1.146-0.332-1.771-0.332h-2.828v-17.354c0-16.31-13.273-29.578-29.59-29.578H251.273v-4.6h105.857   c9.335,0,18.061,3.71,24.567,10.446c0,0.001,0.001,0.002,0.002,0.002c6.204,6.411,9.62,14.838,9.62,23.729V281.697z    M440.852,335.322h-49.475c4.445-6.675,6.844-14.509,6.844-22.678v-48.633c0-8.165-2.402-15.998-6.854-22.678h49.484V335.322z"/>
<path d="M248.659,182.631l1.102,0.331c0.331,0.101,0.666,0.147,0.995,0.147c1.483,0,2.853-0.964,3.302-2.457   c0.549-1.825-0.485-3.749-2.31-4.298l-1.101-0.332c-1.825-0.55-3.749,0.485-4.297,2.311   C245.801,180.158,246.835,182.082,248.659,182.631z"/>
<path d="M294.054,278.352c-5.504,0-9.982,4.479-9.982,9.982c0,5.498,4.479,9.971,9.982,9.971c5.498,0,9.97-4.473,9.97-9.971   C304.023,282.83,299.552,278.352,294.054,278.352z M294.054,291.404c-1.7,0-3.083-1.377-3.083-3.07c0-1.7,1.383-3.082,3.083-3.082   c1.692,0,3.07,1.382,3.07,3.082C297.124,290.027,295.746,291.404,294.054,291.404z"/>
<path d="M420.6,298.305c5.504,0,9.981-4.473,9.981-9.971c0-5.504-4.478-9.982-9.981-9.982c-5.498,0-9.971,4.479-9.971,9.982   C410.629,293.832,415.102,298.305,420.6,298.305z M420.6,285.252c1.699,0,3.082,1.382,3.082,3.082c0,1.693-1.383,3.07-3.082,3.07   c-1.693,0-3.07-1.377-3.07-3.07C417.529,286.634,418.906,285.252,420.6,285.252z"/>
</g>
</svg>