<svg fill="#000" width="800" height="800" viewBox="144 144 512 512" xmlns="http://www.w3.org/2000/svg"><path d="m365.68 213.12c-3.9258-7.5508-6.082-15.895-6.2969-24.402-.14062-6.1914 1.6875-12.266 5.2266-17.344 3.5391-5.082 8.5977-8.9062 14.453-10.918.86719-.38672 1.7617-.69922 2.6758-.94531.35156-.10547.69531-.23437 1.0234-.39453.39453-.078125.70703-.15625.70703-.15625h.003906c.21484-.066406.42188-.14453.62891-.23438.14453-.089844.30469-.14453.47266-.16016 5.0195-1.4375 10.207-2.2305 15.43-2.3594 5.1641.125 10.293.89062 15.27 2.2812.0-.078125.15625.0.15625.0 2.5039.70703 4.9531 1.6016 7.3242 2.6758.078125.0.15625.078125.31641.15625l-.003906.003906c5.3633 2.2422 9.9141 6.0664 13.051 10.957 3.1367 4.8945 4.707 10.629 4.5039 16.438-.21484 8.5078-2.3672 16.852-6.2969 24.402-5.3594 10.363-11.574 20.266-18.578 29.598-5.7305 7.7305-10.988 15.801-15.742 24.168-4.7539-8.3672-10.012-16.438-15.746-24.168-7.0039-9.332-13.219-19.234-18.578-29.598zm-68.012 257.73h204.67v-23.617h-204.67zm130.91-219.08c-10.629 15.035-20.625 29.285-20.703 41.957v44.793c9.3945-14.402 19.539-28.305 30.387-41.645 20.941-26.766 42.746-54.395 42.746-75.887h-.003906c.019531-2.6445-.24219-5.2812-.78516-7.8711-3.7266-14.117-12.562-26.352-24.797-34.324.64844 3.2656.96484 6.5898.94531 9.9219-.089843 8.375-1.7734 16.656-4.9609 24.402-5.9883 13.773-13.656 26.758-22.828 38.652zm-36.449 86.75v-44.793c-.078125-12.676-10.078-26.922-20.703-41.957-9.1719-11.895-16.84-24.879-22.828-38.652-3.1875-7.7461-4.8711-16.027-4.957-24.402-.023438-3.332.29297-6.6562.94141-9.9219-12.23 7.9727-21.07 20.207-24.797 34.324-.53906 2.5898-.80469 5.2266-.78516 7.8711.0 21.492 21.805 49.121 42.746 75.887 10.848 13.34 20.988 27.242 30.383 41.645zm-112.02 76.906c-3.543-30.699-11.414-72.422-13.305-81.004v.003906c-.47656-2.0391-.125-4.1797.98437-5.9531 1.1094-1.7734 2.8789-3.0312 4.918-3.4961 4.2305-.92187 8.4219 1.6992 9.4492 5.9062 1.2578 5.668 6.4531 32.195 10.391 58.883 2.5977 17.16 4.25 31.41 4.8789 41.723h31.723v-7.875c0-4.3477 3.5273-7.8711 7.875-7.8711s7.8711 3.5234 7.8711 7.8711v7.8711h15.742v-39.359c0-4.3477 3.5273-7.8711 7.875-7.8711s7.8711 3.5234 7.8711 7.8711v39.359h15.742v-48.961c0-21.492-21.727-49.199-42.746-75.887-22.672-28.891-46.129-58.727-46.129-85.648-.015625-1.8672.089844-3.7344.31641-5.5898l-27 10.391c-6.4375 1.5352-12.348 4.7578-17.121 9.3398-4.7734 4.5781-8.2383 10.352-10.039 16.719l-54.945 195.38v.078125l62.188 16.609zm170.51-108.79c-21.02 26.688-42.746 54.395-42.746 75.887v48.965h15.742v-15.746c0-4.3477 3.5273-7.8711 7.875-7.8711s7.8711 3.5234 7.8711 7.8711v15.742h63.211c.62891-10.312 2.2812-24.562 4.8789-41.723 3.9375-26.688 9.1328-53.215 10.391-58.883l.003906.003906c1.0391-4.1953 5.2188-6.8047 9.4453-5.9062 2.0391.46484 3.8086 1.7227 4.918 3.4961 1.1094 1.7734 1.4648 3.9141.98438 5.9531-1.8906 8.582-9.7617 50.301-13.305 81.004l23.457 48.492 62.188-16.609.003906-.082031-54.945-195.38c-1.7969-6.3672-5.2617-12.141-10.039-16.719-4.7734-4.582-10.684-7.8047-17.117-9.3398l-27.004-10.391c.22656 1.8555.33203 3.7227.31641 5.5898.0 26.922-23.461 56.758-46.129 85.648zm-155.16 179.95h96.668v157.44h-39.359c-4.1719-.011719-8.168-1.6758-11.117-4.625-2.9492-2.9492-4.6133-6.9453-4.625-11.117v-39.363c0-4.3477-3.5273-7.8711-7.875-7.8711s-7.8711 3.5234-7.8711 7.8711v37.391l-34.793-9.918v.003906c-5.9062-1.6523-10.93-5.5547-13.992-10.867-3.0586-5.3125-3.9141-11.617-2.3828-17.551zm25.82 70.848c0 4.3477 3.5234 7.875 7.8711 7.875 4.3477.0 7.875-3.5273 7.875-7.875v-7.8711c0-4.3477-3.5273-7.8711-7.875-7.8711s-7.8711 3.5234-7.8711 7.8711zm208.61 30.543v.003906c1.5234 5.9453.65625 12.254-2.4219 17.566-3.0742 5.3164-8.1133 9.2109-14.031 10.852l-34.715 9.918v-37.395c0-4.3477-3.5234-7.8711-7.8711-7.8711s-7.8711 3.5234-7.8711 7.8711v39.363c-.015624 4.1719-1.6758 8.168-4.625 11.117-2.9531 2.9492-6.9492 4.6133-11.121 4.625h-39.359v-157.44h39.359v15.746c0 4.3477 3.5234 7.8711 7.8711 7.8711 4.3477.0 7.875-3.5234 7.875-7.8711v-15.746h41.562zm-51.168-38.414c0-4.3477-3.5234-7.8711-7.8711-7.8711s-7.8711 3.5234-7.8711 7.8711v7.8711c0 4.3477 3.5234 7.875 7.8711 7.875s7.8711-3.5273 7.8711-7.875zm147.86-57.902-6.3438-23.887c-1.1484-4.2188-5.4922-6.707-9.7109-5.5664-30.785 8.2852-37.262 9.9414-62.367 16.723-4.2031 1.1289-6.7109 5.4453-5.6055 9.6562l6.3906 23.789c1.125 4.1953 5.4375 6.6836 9.6328 5.5625l62.426-16.652v.003907c4.1992-1.1211 6.6953-5.4297 5.5781-9.6289zm-374.75-12.73c-24.516-6.6211-31.098-8.3047-62.371-16.723-4.2148-1.1406-8.5586 1.3516-9.707 5.5664l-6.3438 23.887c-1.1172 4.1992 1.3828 8.5078 5.5781 9.6289l62.426 16.652.003906-.003906c4.1953 1.1211 8.5039-1.3672 9.6289-5.5625l6.3906-23.789h.003906c1.1016-4.2109-1.4023-8.5234-5.6094-9.6562z"/></svg>