<svg fill="#000" width="800" height="800" viewBox="144 144 512 512" xmlns="http://www.w3.org/2000/svg"><g><path d="m411.78 188.75c-3.8281-1.0938-7.9023-1.5859-11.984-1.5859-16.383.0-33.004 7.9023-35.562 16.609-4.8203 16.383-.92578 30.535 11.562 42.066 7.5664 6.9883 16.234 11.09 20.113 12.715 4.4688-1.1797 8.4414-2.4219 11.918-3.6406 11.828-4.1523 19.711-8.6094 23.273-10.832 7.5312-30.023.72266-49.625-19.32-55.332z"/><path d="m313.26 197.12c-.30469.5625-.60937 1.1328-.90625 1.6914-.039062.078125-.078124.14844-.11719.22656-.25391.49219-.5.98438-.74609 1.4766-.039062.078125-.078125.14844-.10938.22656-.26562.54297-.52344 1.0742-.76562 1.6055-7.793 16.746-8.6875 31.988-8.6992 32.156.86719 1.2383 4.1133 4.4492 8.6797 4.4492 1.1992.0 2.4492-.21484 3.7188-.66016 10.301-3.5508 18.609-3.0195 30.102-2.293.77734.050782 1.9297.12891 3.3047.21484.74609.050781 1.5742.10938 2.4414.15625-4.5547-11.258-4.9492-23.762-1.0312-37.059 6.0234-20.469 39.812-33.457 66.953-25.73 13.52 3.8477 23.566 12.328 29.047 24.52 4.3867 9.7617 5.6992 21.617 3.9766 35.383 16.168.52344 38.652 4.5938 39.773 4.793.78906-26.656-4.2617-45.895-15.398-58.648-.089844-.097656-.16797-.19531-.25391-.28516-.66016-.74609-1.3398-1.4648-2.0469-2.1641-17.211-17.121-47.074-21.695-90.234-19.867-37.551 1.5938-57.297 20.879-67.668 39.762l-.019532.046875z"/><path d="m366.93 597.71c12.652 2.4102 27.68 4.2695 44.309 4.4961-9.3789-88.68-29.254-166.76-45.391-219.38-20.184-65.828-39.016-107.18-39.203-107.59-1.1523-2.5195-.89453-5.4609.66797-7.7422 1.5664-2.2812 4.2422-3.5625 6.9883-3.3945 14.07.89453 26.707.34375 37.746-1.0039-2.1758-1.5859-4.3789-3.3438-6.5234-5.293-1.7695-1.6133-3.4258-3.2773-4.9492-4.9805-4.1719-.22656-9.8203-.60156-13.902-.86719-1.3594-.089843-2.4883-.16797-3.2578-.21484-10.383-.66016-16.66-1.0547-23.988 1.4648-2.9219 1.0039-5.8945 1.5156-8.8359 1.5156-10.164.0-17.977-6.0234-21.578-11.18-1.9961-2.8633-3-6.3672-2.8125-9.8516v-.058594c-9.3281 3.4727-18.352 7.7227-26.156 13.285 26.016 63.625 32.395 154.6 35.109 193.43.38281 5.4531 2.8945 36.988 2.9023 37.125 1.7891 26.793 2.3711 52.469 3.0117 81.172v.011718c.12891 5.6758.25391 11.445.40234 17.32.13672.070312.27734.12891.41406.20703.26172.13281 26.102 14.117 65.047 21.527z"/><path d="m504.63 229.75c.058594 2.9414.058594 5.9336-.03125 9.0312-.13672 4.5859-2.2617 8.875-5.8242 11.77-2.8242 2.293-6.3164 3.5117-9.8984 3.5117-.93359.0-1.8789-.078125-2.8125-.25391-7.5977-1.3789-28.023-4.5859-40.039-4.6055-.15625.62109-.31641 1.2305-.48047 1.8594-.46094 1.6914-1.4844 3.1797-2.8945 4.2305-1.4766 1.0938-34.363 24.992-94.445 24.992-.72656.0-1.4648.0-2.2031-.011719 7.0078 16.738 20.449 50.793 34.824 97.633 16.461 53.656 36.762 133.4 46.227 224.01 26.5-1.3477 56.148-7.2227 86.426-21.441 1.2383-16.562 1.8125-37.941 2.4492-62.109 2.293-86.07 5.4336-203.93 41.723-268.3-14.535-8.5781-37.316-14.785-53.02-20.316z"/><path d="m183.79 534.16c-1.918 17.77-3.4648 35.957-4.5273 54.395-.22656 4.0039 4.9102 8.4609 12.754 12.164 8.0391-38.551-2.2148-58.625-8.2266-66.559z"/><path d="m428.55 617.61c.73828 8.2461 1.3867 16.562 1.918 24.953.011719.14844.011719.30469.011719.45312 34.973-.70703 65.457-9.9688 77.02-30.207 1.6836-2.9414 2.9727-7.793 3.9961-14.219-29.07 12.301-57.371 17.652-82.945 19.02z"/><path d="m593.86 620.62c-7.2109-35.68-6.5742-62.938 1.8906-81.012 7.1523-15.281 17.574-18.559 18.734-18.883.42188-.10937.80859-.1875 1.1914-.25391-11.73-97.75-40.09-242.82-44.734-256.86-.31641-.94531-.72656-1.8594-1.25-2.7539-28.781 54.109-34.637 147.86-37.125 226.11 10.609 58.449 22.238 127.52 29.371 133.79.0.0 15.93 3.9961 32.078.54297-.054688-.23047-.10547-.44922-.15625-.67578z"/><path d="m608.88 615.41c2.9922-1.8906 5.7969-4.2227 8.2539-7.125 5.1445-6.0625 4.3477-34.027.375-71.625-4.9766 3.4453-20.23 19.219-8.6289 78.75z"/><path d="m412.78 617.98c-18.586-.12891-35.344-2.2031-49.379-4.9102-30.582-5.8828-53.176-15.398-63.281-20.172-1.1133 5.5703-2.3711 10.883-1.8008 15.863 1.1797 10.332 9.918 18.145 20.309 18.281 21.41.29688 33.562 6.0508 57.828 10.941 12.625 2.5469 25.586 4.1836 38.25 4.8008-.53906-8.3359-1.1875-16.609-1.9258-24.805z"/><path d="m279.44 441.46c-2.5898-36.988-8.5508-122.12-31.824-183.13-4.2812 5.1953-7.6758 11.227-9.8516 18.273-10.715 34.812-37.883 126.98-51.73 238.12 1.082.71875 2.332 1.6914 3.7305 2.9414 1.2695.99219 30.977 24.953 17.367 87.695-.039062.1875-.089844.36328-.14844.55078 4.5859 1.1328 9.4258 1.9766 14.289 2.3906 11.277.97266 28.734-5.4102 31.762-18.953 5.5703-24.848 17.484-79.617 27.836-129.65-.12109-1.5508-1.0234-12.465-1.4297-18.23z"/></g></svg>