<svg width="800" height="800" viewBox="144 144 512 512" xmlns="http://www.w3.org/2000/svg"><defs><clipPath id="a"><path d="m148.09 171H651.9v458H148.09z"/></clipPath></defs><g clip-path="url(#a)"><path d="m392.12 628.29h-31.488v-39.363h31.488zm107.61-140.26-45.645 28.836c-2.5664 1.625-5.8398 1.625-8.4102.0l-45.609-28.836-45.652 28.836c-2.5664 1.6211-5.8359 1.6211-8.4023.003907l-45.695-28.836-42.023 26.516v50.766c0 2.0859.83203 4.0898 2.3086 5.5664 1.4766 1.4766 3.4766 2.3047 5.5664 2.3047h267.65c2.0859.0 4.0898-.82812 5.5664-2.3047 1.4766-1.4766 2.3047-3.4805 2.3047-5.5664v-50.766zM200.46 331.8c11.887 11.785 18.543 27.852 18.477 44.59-.011718 12.086-3.4961 23.914-10.035 34.078-6.5391 10.164-15.855 18.238-26.848 23.262-8.1289 3.7109-16.961 5.625-25.895 5.6133-2.6992-.023438-5.3945-.21094-8.0703-.5625v87.176h81.285l28.922-109.11v39.727l37.82-23.867c2.5664-1.6172 5.8359-1.6172 8.4023.0l45.695 28.836 45.652-28.836c2.5703-1.6172 5.8398-1.6172 8.4102.0l45.609 28.836 45.641-28.836c2.5703-1.6172 5.8398-1.6172 8.4102.0l37.754 23.855v-39.715l28.926 109.11h81.281v-87.074c-2.6445.33594-5.3047.51172-7.9727.52344-11.328.011718-22.449-3.0664-32.164-8.9023-19.004-11.418-30.652-31.945-30.711-54.113-.070313-14.242 4.7383-28.074 13.621-39.207 8.8789-11.129 21.305-18.887 35.203-21.977l-33.562-91.105c-.77344-2.0938-2.3945-3.7617-4.4688-4.5898l-82.09-32.836c-.93359 14.816-6.2227 29.031-15.203 40.852-18.641 24.203-53.996 38.656-94.555 38.656-39.84.0-74.859-14.031-93.68-37.539h-.003906c-9.5352-12.004-15.184-26.629-16.191-41.926l-81.98 32.793c-2.0703.83203-3.6875 2.4961-4.4609 4.5898l-33.559 91.086c11.484 2.5469 22.008 8.3086 30.34 16.613zm238.89 257.13h-31.488v39.359h31.488zm157.44-212.54c-.03125 13.91 6.0898 27.121 16.715 36.094 10.629 8.9727 24.68 12.793 38.387 10.43v-46.523c.003906-.92969-.16016-1.8516-.48438-2.7227l-16.016-43.477c-7.5352 1.2969-14.633 4.4336-20.66 9.1367-11.383 8.9219-18.004 22.602-17.941 37.062zM318.6 218.8c15.855 19.809 46.285 31.633 81.391 31.633 35.715.0 66.398-12.156 82.086-32.52 8.1523-10.742 12.492-23.895 12.332-37.379l-20.648-8.2578v-.003907c-2.4297-.96875-5.1836-.66797-7.3438.80078-2.1641 1.4727-3.457 3.918-3.4492 6.5352.29688 8.3633-2.918 16.469-8.8672 22.355-12.484 12.523-36.137 16.98-54.109 16.98-17.977.0-41.637-4.457-54.117-16.98-5.9453-5.8867-9.1562-13.992-8.8594-22.355.007812-2.6172-1.2852-5.0664-3.4492-6.5352-2.168-1.4727-4.918-1.7695-7.3477-.80078l-20.594 8.2383c-.19141 13.875 4.3906 27.391 12.977 38.289zm26.285 409.49v-39.363h-31.488v39.359zm157.44.0h23.617-.003906c2.0898.0 4.0938-.82812 5.5703-2.3047 1.4766-1.4766 2.3047-3.4805 2.3047-5.5703v-31.488h-31.488zm-15.742-39.359-31.492-.003907v39.359h31.488zm86.594-47.23v23.617l-.003906-.003906c0 2.0859.82812 4.0898 2.3047 5.5664 1.4766 1.4766 3.4805 2.3047 5.5664 2.3047h62.977c2.0898.0 4.0898-.82812 5.5664-2.3047 1.4766-1.4766 2.3086-3.4805 2.3047-5.5664v-23.617zm-275.52 47.227h-31.488v31.488c-.003906 2.0898.82812 4.0898 2.3047 5.5664 1.4766 1.4766 3.4766 2.3086 5.5664 2.3086h23.617zm-149.57-47.23v23.617c0 2.0859.82812 4.0898 2.3047 5.5664 1.4766 1.4766 3.4805 2.3047 5.5664 2.3047h62.977c2.0898.0 4.0898-.82812 5.5664-2.3047 1.4766-1.4766 2.3086-3.4805 2.3047-5.5664v-23.617zm306-64.191c-2.5703 1.6133-5.8359 1.6133-8.4102.0l-45.609-28.836-45.652 28.836c-2.5703 1.6133-5.8359 1.6133-8.4062.0l-45.695-28.836-42.02 26.52v20.742l37.82-23.867c2.5664-1.6133 5.8359-1.6133 8.4023.0l45.695 28.836 45.652-28.836c2.5703-1.6133 5.8398-1.6133 8.4102.0l45.609 28.836 45.641-28.836c2.5703-1.6133 5.8398-1.6133 8.4102.0l37.754 23.855v-20.73l-41.957-26.52zm-278.56-58.109c8.2461-3.7695 15.234-9.8242 20.137-17.449 4.9062-7.625 7.5156-16.496 7.5273-25.562.050781-12.551-4.9375-24.594-13.844-33.434-6.7227-6.7266-15.359-11.211-24.73-12.844l-16.047 43.555c-.32031.87109-.48438 1.793-.48438 2.7227v46.512-.003906c9.2891 1.6094 18.852.39062 27.441-3.4961z"/></g></svg>