<svg width="800" height="800" viewBox="144 144 512 512" xmlns="http://www.w3.org/2000/svg"><defs><clipPath id="a"><path d="m148.09 163H651.9v474H148.09z"/></clipPath></defs><g clip-path="url(#a)"><path d="m299.16 246.26c5.6992-20.09 14.461-39.18 25.98-56.602 26.395 14.656 51.355 31.762 74.547 51.09 23.352-19.344 48.469-36.449 75.02-51.09 11.586 17.434 20.402 36.551 26.137 56.68-18.344 9.7617-45.738 28.262-45.738 52.27v46.133c-16.879 9.5195-35.746 14.965-55.102 15.898-19.355-.94531-38.223-6.3906-55.105-15.898v-46.133c0-22.672-25.742-41.641-45.738-52.348zm293.47 54.789v-.23438c-9.3125-6.8008-19.375-12.504-29.992-17.004-1.9297-.78516-3.4727-2.3008-4.2852-4.2227-.80859-1.918-.82812-4.082-.042968-6.0117.75-1.9609 2.2578-3.5352 4.1875-4.3672 1.9258-.82812 4.1055-.84375 6.0469-.042969 8.8242 3.7188 17.285 8.25 25.27 13.543 3.1484-82.5-29.363-115.17-30.859-116.66-1.4883-1.4141-3.457-2.2031-5.5117-2.207-23.969 1.082-47.398 7.5117-68.562 18.816 33.379 52.742 39.988 97.613 19.68 133.27-23.539 41.25-78.641 60.457-108.55 60.457s-85.098-19.207-108.55-60.379c-20.312-35.66-13.621-80.609 19.598-133.43-21.156-11.25-44.551-17.648-68.484-18.738-2.0508.003906-4.0234.79297-5.5117 2.207-1.4961 1.4961-34.008 34.164-30.859 116.66 7.9844-5.293 16.445-9.8242 25.27-13.543 1.9414-.80078 4.1211-.78516 6.0508.042969 1.9258.83203 3.4336 2.4062 4.1836 4.3672.78516 1.9297.76953 4.0938-.042968 6.0117-.8125 1.9219-2.3555 3.4375-4.2852 4.2227-10.617 4.5-20.68 10.203-29.992 17.004v.23438c-23.695 17.004-59.043 51.797-59.043 107.69.0 38.496 10.629 69.43 30.781 89.504 18.422 18.418 44.555 27.707 77.461 27.707h83.68c14.309-.050781 27.746-6.8828 36.211-18.418 5.4844-7.5195 14.23-11.965 23.539-11.965 9.3047.0 18.051 4.4453 23.535 11.965 8.4688 11.535 21.902 18.367 36.211 18.418h83.602c32.984.0 59.117-9.2891 77.539-27.711 20.152-20.074 30.781-51.012 30.781-89.504.0-55.891-35.348-90.684-59.043-107.69zm-132.88 240.65c-19.348-.035156-37.523-9.2734-48.965-24.875-2.5938-3.3164-6.5703-5.2539-10.781-5.2539-4.2148.0-8.1914 1.9375-10.785 5.2539-11.441 15.602-29.617 24.84-48.965 24.875h-83.207c-24.332.78516-48.414-5.1523-69.59-17.16v20.941-.003906c.019531 9.6289 3.543 18.922 9.918 26.137l22.375 25.191h360.47l22.41-25.191c6.375-7.2148 9.9023-16.508 9.918-26.137v-20.938c-21.02 11.973-44.938 17.91-69.117 17.16zm-216.71 81.316c7.5195 8.3398 18.211 13.113 29.441 13.148h255.05c11.25-.027344 21.953-4.8359 29.441-13.227l9.2461-10.391h-332.48z"/></g></svg>