<svg width="800" height="800" viewBox="144 144 512 512" xmlns="http://www.w3.org/2000/svg"><defs><clipPath id="c"><path d="m351 148.09h98v47.906h-98z"/></clipPath><clipPath id="b"><path d="m405 180h152v471.9H405z"/></clipPath><clipPath id="a"><path d="m243 180h152v471.9H243z"/></clipPath></defs><path d="m392.04 203.51-53.328-52.469-16.293 22.883 42.395 54.723z"/><path d="m203.11 588.12h56.117l6.9688-187.59-30.926-179.23c-29.641 70.746-31.086 214.17-32.16 366.82z"/><path d="m477.63 173.93-16.293-22.883-53.383 52.469 27.227 25.137z"/><path d="m564.84 221.31-31.031 179.44 6.9688 187.59 55.898-.003906c-.85938-152.86-2.3047-296.28-31.836-367.03z"/><g clip-path="url(#c)"><path d="m351.3 148.09 48.719 47.863 48.668-47.863z"/></g><path d="m203.27 599.06-.16406 31.137h54.562l1.1797-31.137z"/><path d="m541.2 599.06 1.125 31.137h54.562l-.16016-31.137z"/><g clip-path="url(#b)"><path d="m522.92 399.46 33.23-192.41-69.676-26.531-46.254 59.547c-.92969 1.25-2.3594 2.0312-3.9141 2.1445h-.42969.003906c-1.3789.003906-2.7109-.49219-3.7539-1.3945l-26.797-24.656v421.7l19.777 14.043 106.55-13.453-8.793-237.86c-.035157-.37891-.015626-.75781.054687-1.1289zm-19.668-40.516c.023438 2.0234-1.0977 3.8906-2.8945 4.8203l-28.941 15.438c-.79297.42578-1.6758.64844-2.5742.64453-.89453-.011718-1.7773-.23047-2.5742-.64453l-28.887-15.438c-1.8203-.91406-2.9609-2.7852-2.9492-4.8203v-43.629c0-2.9609 2.4023-5.3594 5.3594-5.3594h58.102c1.4219.0 2.7812.5625 3.7891 1.5703 1.0039 1.0039 1.5703 2.3672 1.5703 3.7891z"/></g><path d="m445.58 355.68 23.422 12.484 23.422-12.484v-34.895H445.58z"/><g clip-path="url(#a)"><path d="m394.5 216.16-26.797 24.602c-1.0156.95312-2.3633 1.4727-3.7539 1.4492h-.050781c-1.5469-.10156-2.9727-.86328-3.9141-2.0898l-46.254-59.492-69.891 26.422 33.23 192.41c.054687.375.054687.75391.0 1.1289l-8.7344 237.86 106.6 13.453 19.562-13.988z"/></g></svg>