<svg width="800" height="800" viewBox="144 144 512 512" xmlns="http://www.w3.org/2000/svg"><defs><clipPath id="a"><path d="m148.09 155H651.9v490H148.09z"/></clipPath></defs><g clip-path="url(#a)"><path d="m329.15 157.37c19.121 18.016 44.586 27.75 70.852 27.082 26.262.66797 51.727-9.0664 70.848-27.082v11.336c0 25.312-13.504 48.703-35.426 61.355-21.918 12.656-48.926 12.656-70.848.0-21.922-12.652-35.426-36.043-35.426-61.355zm321.5 156.65-70.852-110.21c-.76172-1.1914-1.832-2.1523-3.0977-2.7812l-90.113-45.059v10.203c.25391 21.852-7.6055 43.023-22.059 59.414s-34.473 26.84-56.184 29.32c-24.301 2.3242-48.453-5.7031-66.523-22.113-18.074-16.406-28.391-39.676-28.418-64.086v-12.738l-90.109 45.055c-1.2656.63281-2.3398 1.5977-3.1055 2.7891l-70.844 110.2c-1.4141 2.1992-1.6445 4.957-.61719 7.3633l47.23 110.21h.003906c1.0625 2.4766 3.3125 4.2383 5.9727 4.6719 2.6562.41016 5.3438-.54688 7.1445-2.543l49.219-55.371v257.82c0 2.0859.83203 4.0898 2.3086 5.5664 1.4766 1.4766 3.4766 2.3047 5.5664 2.3047h267.65c2.0859.0 4.0898-.82812 5.5664-2.3047 1.4766-1.4766 2.3047-3.4805 2.3047-5.5664v-257.82l49.219 55.375v-.003906c1.7891 2.0156 4.4844 2.9727 7.1445 2.543 2.6602-.43359 4.9141-2.1953 5.9727-4.6719l47.234-110.21c1.0312-2.3984.80078-5.1523-.61328-7.3516z"/></g></svg>