<svg fill="#000" width="800" height="800" viewBox="144 144 512 512" xmlns="http://www.w3.org/2000/svg"><g><path d="m494.97 553.71-9.5273 9.5234-63.238-63.227c3.6562-2.7656 7.5586-5.2383 11.68-7.375z"/><path d="m309.64 368.38c-2.1367 4.1211-4.6016 8.0273-7.3672 11.68l-63.238-63.238 9.5234-9.5234z"/><path d="m478.39 570.29-37.207 37.207c-69.809 20.59-144.98 1.5078-196.45-49.961-51.473-51.473-70.555-126.64-49.961-196.44l37.207-37.215 63.777 63.789c-13.336 13.766-31.312 22.754-50.812 24.723-.089843.0-.16016.03125-.24609.050781-.17188.019532-.33594.058594-.50781.10547-.15234.039063-.30078.089844-.44922.13672-.16016.058594-.3125.11719-.45703.19531-.15234.074219-.29297.14063-.41797.23047-.14063.082031-.27344.17188-.40234.26172-.13281.10156-.24609.19531-.36719.3125-.12109.10547-.22656.22266-.33594.33594-.10156.11719-.20312.23828-.30078.36719-.089844.125-.17969.26172-.26563.39844-.082031.13672-.15234.27344-.21484.41797-.070313.14062-.13281.29297-.19141.4375-.058593.16016-.10547.3125-.14453.47266-.039062.15625-.070312.3125-.089843.46875-.03125.17187-.039063.34766-.050782.52344-.011718.089844-.03125.16797-.03125.24609.011719 38.586 15.039 74.867 42.316 102.15 27.293 27.285 63.566 42.316 102.15 42.316.070313.0.125-.011719.20312-.019531.25781-.011719.51953-.019532.76562-.070313.14062-.03125.25781-.082031.39844-.11719.17188-.054688.33594-.089844.5-.16016.14062-.050781.27344-.125.39844-.19531.15234-.070313.30078-.14062.42969-.23047.13281-.082031.23828-.16797.35938-.26172.13281-.10156.25781-.19531.37891-.31641.10156-.10547.19141-.20312.29297-.3125.10547-.13281.21484-.25.31641-.38672.082031-.12109.15234-.24219.22656-.36328.089843-.13672.17187-.28906.23828-.44922.058593-.125.10938-.26172.16016-.39844.058594-.15625.12109-.32812.16016-.5.03125-.14062.058594-.29297.089844-.4375.011719-.097657.039063-.17188.050781-.27344 1.9648-19.504 10.949-37.477 24.711-50.812z"/><path d="m485.41 184.52c-70.473.0-127.8 57.328-127.8 127.8.0 52.34 32.77 100.23 81.547 119.16.64453.25 1.2344.64062 1.7227 1.1289l45.785 45.781 47.508-47.508c.44922-.44922.97656-.80469 1.5664-1.0586 47.062-20.184 77.48-66.301 77.48-117.5.0-70.469-57.344-127.8-127.81-127.8zm-38.094 61.344h76.18c2.7656.0 4.9922 2.2305 4.9922 4.9883.0 2.7539-2.2266 4.9922-4.9922 4.9922h-76.18c-2.7539.0-4.9883-2.2383-4.9883-4.9922.0-2.7578 2.2305-4.9883 4.9883-4.9883zm118.46 123.95h-160.73c-2.7656.0-4.9922-2.2383-4.9922-4.9922.0-2.75 2.2266-4.9883 4.9922-4.9883h160.73c2.7539.0 4.9922 2.2383 4.9922 4.9883.0 2.7539-2.2422 4.9922-4.9922 4.9922zm0-28.496h-160.73c-2.7656.0-4.9922-2.2383-4.9922-4.9922s2.2266-4.9883 4.9922-4.9883h160.73c2.7539.0 4.9922 2.2305 4.9922 4.9883.0 2.7539-2.2422 4.9922-4.9922 4.9922zm0-28.496h-160.73c-2.7656.0-4.9922-2.2227-4.9922-4.9883.0-2.7539 2.2266-4.9922 4.9922-4.9922h160.73c2.7539.0 4.9922 2.2383 4.9922 4.9922.0 2.7617-2.2422 4.9883-4.9922 4.9883zm0-28.484h-160.73c-2.7656.0-4.9922-2.2383-4.9922-4.9922.0-2.75 2.2266-4.9883 4.9922-4.9883h160.73c2.7539.0 4.9922 2.2383 4.9922 4.9883.0 2.7539-2.2422 4.9922-4.9922 4.9922z"/></g></svg>