<svg fill="#222" width="25" height="25" viewBox="144 144 512 512" xmlns="http://www.w3.org/2000/svg"><g><path d="m478.72 486.59H321.28c-6.2617.0-12.27-2.4883-16.699-6.918-4.4297-4.4258-6.9141-10.434-6.9141-16.695v-125.95c0-6.2656 2.4844-12.27 6.9141-16.699 4.4297-4.4297 10.438-6.918 16.699-6.918h157.44c6.2617.0 12.27 2.4883 16.699 6.918 4.4297 4.4297 6.918 10.434 6.918 16.699v125.95c0 6.2617-2.4883 12.27-6.918 16.695-4.4297 4.4297-10.438 6.918-16.699 6.918zM321.28 329.15c-4.3477.0-7.8711 3.5273-7.8711 7.875v125.95c0 2.0859.82812 4.0898 2.3047 5.5664 1.4766 1.4727 3.4805 2.3047 5.5664 2.3047h157.44c2.0859.0 4.0898-.83203 5.5664-2.3047 1.4766-1.4766 2.3047-3.4805 2.3047-5.5664v-125.95c0-2.0898-.82812-4.0898-2.3047-5.5664-1.4766-1.4766-3.4805-2.3086-5.5664-2.3086z"/><path d="m478.72 329.15h-31.488c-4.3477.0-7.8711-3.5234-7.8711-7.8711v-47.23c0-14.062-7.5039-27.055-19.68-34.086-12.18-7.0312-27.184-7.0312-39.359.0-12.18 7.0312-19.684 20.023-19.684 34.086v47.23c0 2.0898-.82812 4.0898-2.3047 5.5664-1.4766 1.4766-3.4766 2.3047-5.5664 2.3047h-31.488c-4.3477.0-7.8711-3.5234-7.8711-7.8711v-47.23c0-30.938 16.504-59.523 43.297-74.992 26.789-15.469 59.801-15.469 86.59.0 26.793 15.469 43.297 44.055 43.297 74.992v47.23c0 2.0898-.82812 4.0898-2.3047 5.5664-1.4766 1.4766-3.4805 2.3047-5.5664 2.3047zm-23.617-15.742h15.742l.003906-39.359c0-25.312-13.504-48.703-35.426-61.355-21.918-12.656-48.926-12.656-70.848.0-21.922 12.652-35.426 36.043-35.426 61.355v39.359h15.742l.003906-39.359c0-19.688 10.504-37.879 27.551-47.723 17.051-9.8438 38.055-9.8438 55.105.0s27.551 28.035 27.551 47.723z"/><path d="m4e2 455.1c-6.2656.0-12.273-2.4883-16.699-6.9141-4.4297-4.4297-6.918-10.438-6.918-16.699v-34.246c-5.375-6.0898-8.1836-14.023-7.8438-22.141.33984-8.1172 3.8008-15.789 9.6641-21.41 5.8633-5.625 13.672-8.7617 21.797-8.7617 8.1211.0 15.93 3.1367 21.793 8.7617 5.8633 5.6211 9.3281 13.293 9.668 21.41.33594 8.1172-2.4727 16.051-7.8477 22.141v34.246c0 6.2617-2.4883 12.27-6.9141 16.699-4.4297 4.4258-10.438 6.9141-16.699 6.9141zm0-94.465c-4.1758.0-8.1797 1.6602-11.133 4.6133-2.9531 2.9531-4.6133 6.957-4.6133 11.133-.046875 4.4336 1.8516 8.6641 5.1953 11.57 1.7188 1.5117 2.6953 3.6953 2.6758 5.9844v37.551c0 4.3477 3.5273 7.8711 7.875 7.8711s7.8711-3.5234 7.8711-7.8711v-37.551c.003906-2.2617.97656-4.4141 2.6758-5.9062 2.8906-2.6562 4.6836-6.3008 5.0234-10.215.33984-3.9141-.79297-7.8125-3.1797-10.934-2.3828-3.1172-5.8516-5.2344-9.7148-5.9297-.87891-.19531-1.7773-.30078-2.6758-.31641z"/><path d="m588.93 612.54H211.07c-6.2656.0-12.27-2.4883-16.699-6.918-4.4297-4.4258-6.918-10.434-6.918-16.699v-62.977c0-6.2617 2.4883-12.27 6.918-16.699 4.4297-4.4258 10.434-6.9141 16.699-6.9141h377.86c6.2656.0 12.273 2.4883 16.699 6.9141 4.4297 4.4297 6.918 10.438 6.918 16.699v62.977c0 6.2656-2.4883 12.273-6.918 16.699-4.4258 4.4297-10.434 6.918-16.699 6.918zm-377.86-94.465c-4.3477.0-7.8711 3.5234-7.8711 7.8711v62.977c0 2.0898.82812 4.0898 2.3047 5.5664 1.4766 1.4766 3.4766 2.3086 5.5664 2.3086h377.86c2.0898.0 4.0898-.83203 5.5664-2.3086 1.4766-1.4766 2.3086-3.4766 2.3086-5.5664v-62.977c0-2.0859-.83203-4.0898-2.3086-5.5664-1.4766-1.4727-3.4766-2.3047-5.5664-2.3047z"/><path d="m242.56 581.05c-6.2656.0-12.27-2.4883-16.699-6.918-4.4297-4.4258-6.918-10.434-6.918-16.699.0-6.2617 2.4883-12.27 6.918-16.699 4.4297-4.4258 10.434-6.9141 16.699-6.9141 6.2617.0 12.27 2.4883 16.699 6.9141 4.4297 4.4297 6.918 10.438 6.918 16.699.0 6.2656-2.4883 12.273-6.918 16.699-4.4297 4.4297-10.438 6.918-16.699 6.918zm0-31.488c-3.1836.0-6.0547 1.918-7.2734 4.8594-1.2188 2.9414-.54297 6.3281 1.707 8.5781 2.25 2.2539 5.6367 2.9258 8.5781 1.707 2.9414-1.2188 4.8594-4.0898 4.8594-7.2734.0-2.0859-.82813-4.0898-2.3047-5.5664-1.4766-1.4766-3.4805-2.3047-5.5664-2.3047z"/><path d="m305.54 581.05c-6.2656.0-12.27-2.4883-16.699-6.918-4.4297-4.4258-6.918-10.434-6.918-16.699.0-6.2617 2.4883-12.27 6.918-16.699 4.4297-4.4258 10.434-6.9141 16.699-6.9141 6.2617.0 12.27 2.4883 16.699 6.9141 4.4297 4.4297 6.9141 10.438 6.9141 16.699.0 6.2656-2.4844 12.273-6.9141 16.699-4.4297 4.4297-10.438 6.918-16.699 6.918zm0-31.488c-3.1836.0-6.0547 1.918-7.2734 4.8594-1.2188 2.9414-.54688 6.3281 1.707 8.5781 2.25 2.2539 5.6367 2.9258 8.5781 1.707s4.8594-4.0898 4.8594-7.2734c0-2.0859-.82812-4.0898-2.3047-5.5664-1.4766-1.4766-3.4805-2.3047-5.5664-2.3047z"/><path d="m368.51 581.05c-6.2656.0-12.273-2.4883-16.699-6.918-4.4297-4.4258-6.918-10.434-6.918-16.699.0-6.2617 2.4883-12.27 6.918-16.699 4.4258-4.4258 10.434-6.9141 16.699-6.9141 6.2617.0 12.27 2.4883 16.699 6.9141 4.4258 4.4297 6.9141 10.438 6.9141 16.699.0 6.2656-2.4883 12.273-6.9141 16.699-4.4297 4.4297-10.438 6.918-16.699 6.918zm0-31.488c-3.1836.0-6.0547 1.918-7.2734 4.8594-1.2188 2.9414-.54688 6.3281 1.707 8.5781 2.25 2.2539 5.6367 2.9258 8.5781 1.707s4.8594-4.0898 4.8594-7.2734c0-2.0859-.82812-4.0898-2.3047-5.5664-1.4766-1.4766-3.4805-2.3047-5.5664-2.3047z"/><path d="m431.49 581.05c-6.2656.0-12.273-2.4883-16.699-6.918-4.4297-4.4258-6.918-10.434-6.918-16.699.0-6.2617 2.4883-12.27 6.918-16.699 4.4258-4.4258 10.434-6.9141 16.699-6.9141 6.2617.0 12.27 2.4883 16.699 6.9141 4.4258 4.4297 6.9141 10.438 6.9141 16.699.0 6.2656-2.4883 12.273-6.9141 16.699-4.4297 4.4297-10.438 6.918-16.699 6.918zm0-31.488c-3.1875.0-6.0547 1.918-7.2734 4.8594-1.2188 2.9414-.54688 6.3281 1.707 8.5781 2.25 2.2539 5.6367 2.9258 8.5781 1.707s4.8594-4.0898 4.8594-7.2734c0-2.0859-.83203-4.0898-2.3047-5.5664-1.4766-1.4766-3.4805-2.3047-5.5664-2.3047z"/><path d="m494.46 581.05c-6.2617.0-12.27-2.4883-16.695-6.918-4.4297-4.4258-6.918-10.434-6.918-16.699.0-6.2617 2.4883-12.27 6.918-16.699 4.4258-4.4258 10.434-6.9141 16.695-6.9141 6.2656.0 12.273 2.4883 16.699 6.9141 4.4297 4.4297 6.918 10.438 6.918 16.699.0 6.2656-2.4883 12.273-6.918 16.699-4.4258 4.4297-10.434 6.918-16.699 6.918zm0-31.488c-3.1836.0-6.0508 1.918-7.2695 4.8594-1.2188 2.9414-.54688 6.3281 1.7031 8.5781 2.2539 2.2539 5.6406 2.9258 8.582 1.707s4.8594-4.0898 4.8594-7.2734c0-2.0859-.83203-4.0898-2.3086-5.5664-1.4727-1.4766-3.4766-2.3047-5.5664-2.3047z"/><path d="m557.44 581.05c-6.2617.0-12.27-2.4883-16.699-6.918-4.4258-4.4258-6.9141-10.434-6.9141-16.699.0-6.2617 2.4883-12.27 6.9141-16.699 4.4297-4.4258 10.438-6.9141 16.699-6.9141 6.2656.0 12.273 2.4883 16.699 6.9141 4.4297 4.4297 6.918 10.438 6.918 16.699.0 6.2656-2.4883 12.273-6.918 16.699-4.4258 4.4297-10.434 6.918-16.699 6.918zm0-31.488c-3.1836.0-6.0547 1.918-7.2695 4.8594-1.2188 2.9414-.54688 6.3281 1.7031 8.5781 2.2539 2.2539 5.6406 2.9258 8.582 1.707s4.8594-4.0898 4.8594-7.2734c0-2.0859-.83203-4.0898-2.3086-5.5664-1.4766-1.4766-3.4766-2.3047-5.5664-2.3047z"/></g></svg>