<svg width="800" height="800" viewBox="144 144 512 512" xmlns="http://www.w3.org/2000/svg"><defs><clipPath id="a"><path d="m148.09 218H651.9v364H148.09z"/></clipPath></defs><g clip-path="url(#a)"><path d="m648.5 347.78c-45.227 64.617-61.891 234.01-61.891 234.01h-16.434s-.96875-153.75-5.8047-160.52c-4.8359-6.7734-11.449-11.246-24.172-5.8008-35.453 15.148-129.57 148.91-165.35 158.58-30.805 8.3242-167.29.0-192.43.0-25.141.0-35.227-9.7891-34.254-17.359.97266-7.5117 68.105-38.602 111.61-65.805 12.191-7.6172 47.066 23.527 111.2-25.141 30.543-23.168 194.36-247.53 207.89-247.53 13.547.0 89.934 100.57 69.633 129.57z"/></g></svg>