<svg width="800" height="800" viewBox="144 144 512 512" xmlns="http://www.w3.org/2000/svg"><defs><clipPath id="a"><path d="m148.09 258H651.9v284H148.09z"/></clipPath></defs><g clip-path="url(#a)"><path d="m314.23 378.02c8.0312-1.7188 16.637-3.8398 25.523-6.4727l10.23 17.922c1.0312 1.8203 2.7422 3.1523 4.7578 3.707 2.0195.55078 4.1719.28125 5.9844-.75781 1.8164-1.0352 3.1445-2.75 3.6953-4.7695.54688-2.0156.26953-4.168-.76953-5.9805l-8.6211-15.098c5.9414-2.1172 11.898-4.457 17.789-7.0781l9.6055 16.832v-.003906c1.0312 1.8203 2.7422 3.1523 4.7578 3.7031 2.0195.55469 4.1719.28125 5.9844-.75391 1.8164-1.0352 3.1445-2.7539 3.6953-4.7695.54688-2.0156.26953-4.168-.76953-5.9805l-9.1211-15.98c6.0703-3.2578 11.934-6.8828 17.566-10.848l8.8359 15.496c2.1523 3.7734 6.9609 5.0898 10.734 2.9375 3.7773-2.1523 5.0977-6.957 2.9492-10.734l-10.031-17.59c11.172-9.75 20.102-21.797 26.188-35.316.86719-1.9766 2.5234-3.4961 4.5625-4.1992 2.0391-.69922 4.2773-.51562 6.1758.50781 24.41 13.09 56.539 16.605 83.566 16.605 22.543.15625 45.016-2.5547 66.871-8.0664l.10938-.011719.125-.046875.003906-.003906c8.4805-2.0547 16.754-4.8789 24.727-8.4297 2.0586-.96875 4.4414-.98828 6.5195-.058594 2.0781.93359 3.6484 2.7227 4.2969 4.9062 7.5586 25.477 11.508 51.887 11.73 78.461.0 7.8125-.39062 15.406-1.0469 22.676-27.367-15.039-58.832-20.91-89.781-16.754-32.387 5.8125-61.445 23.48-81.508 49.562-25.023-9.0859-51.461-13.66-78.086-13.508-67.066.0-83.613-30.18-87.25-40.105zm-23.047 97.562c56.301 2.4375 126.07 1.2578 185.78-12.406v.003906c.57422-.13672 1.1641-.20312 1.7539-.19922h21.164c-5.8984-6.0312-12.867-10.91-20.555-14.383-.45312-.15625-.89062-.35547-1.3086-.58984l-.03125-.027344c-32.098-14.672-75.77-14.164-76.359-14.109-80.633.0-99.262-40.809-103-52.84-8.2383 1.4023-15.32 2.3359-20.688 2.9336 14.09 13.996 21.918 33.094 21.699 52.953.5625 13.402-2.3555 26.723-8.4609 38.664zm309.96-189.68c-57.508 9.8477-111.02-25.875-111.55-26.234-1.875-1.2734-4.2031-1.6758-6.3945-1.1094-2.1914.57031-4.0352 2.0547-5.0547 4.0742l-9.9688 19.758.003906.003906c22.172 8.1719 45.715 11.996 69.336 11.258 21.457.15625 42.84-2.4492 63.629-7.75zm-107.07 152.84c10.406 5.7656 19.152 14.113 25.398 24.238h118.08c5.0859-15.5 8.8594-31.395 11.285-47.523-29.98-16.16-58.527-22.168-85.262-17.84-27.32 5.0039-51.961 19.586-69.5 41.125zm147.67 39.98h-162.14c-47.25 9.7812-95.422 14.41-143.67 13.801-51.047-.078125-102.03-3.6836-152.58-10.797l-21.148-3.2461c-3.2969-.51562-6.5625 1.1133-8.1367 4.0586-1.3633 2.5664-2.7617 5.3594-3.6953 7.168h.003906c-2.7578 5.4141-3.0312 11.754-.75391 17.383 2.375 5.7969 7.1445 10.281 13.074 12.297 30.918 10.641 75.391 13.742 137.14 15.301 61.25 1.582 143.56-10.742 171.02-15.184v14.324c0 2.0859.82812 4.0898 2.3047 5.5664 1.4766 1.4766 3.4805 2.3047 5.5664 2.3047h148.94c.5625.0 1.1211-.0625 1.668-.17578.92188-.20312 22.578-5.2773 22.578-39.184.10547-6.2422-.81641-12.461-2.7188-18.406-1.1094-3.1523-4.1016-5.2461-7.4414-5.2109zm-456.01-12.555c.76953.11719 36.371 5.4531 86.551 8.4453 2.7266-2.4297 11.66-12.297 11.621-37.668.35547-17.996-7.8281-35.102-22.062-46.113l-7.6836-5.0664c-34.578 3.0039-59.285 13.84-73.406 32.402-9.6875 13.016-14.062 29.234-12.227 45.359z"/></g></svg>