<svg fill="#222" width="25" height="25" viewBox="144 144 512 512" xmlns="http://www.w3.org/2000/svg"><g><path d="m455.56 224.45H344.42c-6.3359.0-11.488 5.1523-11.488 11.527v111.14c0 6.3359 5.1523 11.488 11.488 11.488h111.14c6.375.0 11.527-5.1523 11.527-11.488l-.003907-111.14c0-6.3711-5.1523-11.527-11.523-11.527zm-55.535 26.336c10.496.0 19.008 8.5508 19.008 19.047.0 10.496-8.5117 19.008-19.008 19.008-10.496.0-19.047-8.5117-19.047-19.008.0-10.496 8.5508-19.047 19.047-19.047zm41.984 100.19h-84.047v-16.105c0-12.367 10.074-22.441 22.48-22.441h4.8086l11.258 24.273c.60938 1.375 1.9844 2.2148 3.4727 2.2148s2.8242-.83984 3.4727-2.2148l11.258-24.273h4.8086c12.406.0 22.48 10.074 22.48 22.441z"/><path d="m417.89 396.05c0 9.8477-8.0156 17.863-17.902 17.863-9.8477.0-17.863-8.0156-17.863-17.863.0-9.8438 8.0156-17.898 17.863-17.898 9.8867.0 17.902 8.0547 17.902 17.898z"/><path d="m477.66 396.05c0 9.8477-8.0156 17.863-17.863 17.863-9.8867.0-17.902-8.0156-17.902-17.863.0-9.8438 8.0156-17.898 17.902-17.898 9.8477.0 17.863 8.0547 17.863 17.898z"/><path d="m358.08 396.05c0 9.8477-8.0156 17.863-17.863 17.863s-17.863-8.0156-17.863-17.863c0-9.8438 8.0156-17.898 17.863-17.898s17.863 8.0547 17.863 17.898z"/><path d="m515.75 464.68c0 15.266-12.406 27.672-27.672 27.672h-176.18c-15.23.0-27.672-12.406-27.672-27.672.0-15.227 12.441-27.672 27.672-27.672h176.18c15.27.0 27.672 12.445 27.672 27.672z"/><path d="m488.07 508.57H311.89c-15.23.0-27.672 12.445-27.672 27.672.0 15.266 12.441 27.672 27.672 27.672l176.18-.003906c15.266.0 27.672-12.406 27.672-27.672.0-15.227-12.402-27.668-27.672-27.668zm-144.65 36.285-5.3984 5.3984-8.5977-8.5977-8.5977 8.5977-5.3984-5.3984 8.5977-8.5977-8.5977-8.5977 5.3984-5.3984 8.5977 8.5977 8.5977-8.5977 5.3984 5.3984-8.5977 8.5977zm47.051.0-5.3984 5.3984-8.5977-8.5977-8.5977 8.5977-5.3984-5.3984 8.5977-8.5977-8.5977-8.5977 5.3984-5.3984 8.5977 8.5977 8.5977-8.5977 5.3984 5.3984-8.5977 8.5977zm47.043.0-5.3984 5.3984-8.5977-8.5977-8.5977 8.5977-5.3984-5.3984 8.5977-8.5977-8.5977-8.5977 5.3984-5.3984 8.5977 8.5977 8.5977-8.5977 5.3984 5.3984-8.5977 8.5977zm47.047.0-5.3984 5.3984-8.5977-8.5977-8.5977 8.5977-5.3984-5.3984 8.5977-8.5977-8.5977-8.5977 5.3984-5.3984 8.5977 8.5977 8.5977-8.5977 5.3984 5.3984-8.5977 8.5977z"/><path d="m415.46 594.02c0 8.5234-6.9336 15.457-15.457 15.457-8.5703.0-15.457-6.9336-15.457-15.457s6.8867-15.457 15.457-15.457c8.5234.0 15.457 6.9336 15.457 15.457z"/><path d="m523.85 157.64H276.14c-15.914.0-28.855 12.902-28.855 28.855v427.05c0 15.914 12.938 28.816 28.855 28.816h247.71c15.953.0 28.855-12.898 28.855-28.816v-427.05c0-15.953-12.902-28.855-28.855-28.855zm5.9531 455.91c0 3.2617-2.6719 5.9141-5.9531 5.9141H276.14c-3.2812.0-5.9531-2.6523-5.9531-5.9141V186.5c0-3.2852 2.6719-5.957 5.9531-5.957h54.285l2.0234 5.9297c2.2852 6.6836 9.1328 11.246 16.887 11.246h101.33c7.7539.0 14.602-4.5625 16.883-11.246l2.0234-5.9297h54.273c3.2812.0 5.9531 2.6719 5.9531 5.9531z"/></g></svg>