<svg width="800" height="800" viewBox="144 144 512 512" xmlns="http://www.w3.org/2000/svg"><defs><clipPath id="d"><path d="m620 357h31.902v22H620z"/></clipPath><clipPath id="c"><path d="m148.09 253H526v295H148.09z"/></clipPath><clipPath id="b"><path d="m148.09 567H526v84.902H148.09z"/></clipPath><clipPath id="a"><path d="m148.09 148.09H526v84.906H148.09z"/></clipPath></defs><path d="m567.97 327.77v-58.746h-20.961v27.059c-47.723 45.656-96.531 46.148-115.42 44.184V326.49h-68.191c-26.074.0-47.23 21.156-47.23 47.23.0 23.52 17.418 42.902 39.949 46.543l22.043 73.406c2.4609 7.8711 7.7734 14.27 15.055 18.203 4.5273 2.4609 9.4453 3.6406 14.367 3.6406 3.0508.0 6.1016-.39453 9.0547-1.3789 9.6445-2.9531 17.219-10.43 20.367-19.977 3.1484-9.543 1.3789-19.977-4.625-28.043-3.3438-4.3281-6.6914-8.9531-9.9375-19.582-3.2461-10.727-2.9531-15.941-2.6562-22.043.097656-1.082.097656-2.2617.19531-3.4453l11.512.007813v-12.004c18.598-2.4609 67.895-3.1484 115.42 42.41v21.746h20.961v-53.531c20.961-4.7227 36.703-23.52 36.703-45.855.097656-22.531-15.648-41.227-36.605-46.047z"/><g clip-path="url(#d)"><path d="m620.41 357.98h31.488v20.961H620.41z"/></g><path d="m595.45 329.18 22.266-22.266 14.82 14.82L610.27 344z"/><path d="m602.89 410.8 14.816-14.824 22.273 22.258-14.816 14.824z"/><g clip-path="url(#c)"><path d="m452.45 442.02h-9.6445c2.0664 6.1992 3.7383 8.4609 5.9023 11.219 10.332 14.07 13.285 31.586 7.9688 47.527-5.3125 16.039-18.105 28.535-34.145 33.457-4.625 1.4766-9.8398 2.2617-15.152 2.2617-8.3633.0-16.727-2.1641-24.305-6.1016-12.203-6.5938-21.156-17.418-25.191-30.504l-18.695-62.289c-26.273-9.7422-44.184-34.734-44.184-63.664.0-37.59 30.602-68.191 68.191-68.191h89.25v13.875c18.105-1.5742 45.559-8.5625 73.504-32.668v-33.75l-377.85-.003906v293.92h377.86v-86.199c-27.059-23.223-53.727-30.207-73.504-31.391z"/></g><g clip-path="url(#b)"><path d="m148.09 651.9h377.86v-84.035l-377.86.003906zm136.48-52.543h104.99c5.8047.0 10.527 4.7227 10.527 10.527.0 5.8047-4.7227 10.527-10.527 10.527H284.57c-5.8047.0-10.527-4.7227-10.527-10.527.0-5.8047 4.7227-10.527 10.527-10.527z"/></g><g clip-path="url(#a)"><path d="m525.95 148.09H148.09v83.934h377.86zm-178.4 52.449h-62.977v-20.961h62.977zm41.918.0h-20.957v-20.961h20.961z"/></g></svg>