<svg fill="#000" width="800" height="800" viewBox="144 144 512 512" xmlns="http://www.w3.org/2000/svg"><path d="m344.93 258.33c-19.656.0-35.551 8.6914-46.895 21.555-11.344 12.867-18.668 29.648-23.664 47.125l-17.359 60.73c37.602 19.09 80.469 28.012 143 28.012 62.562.0 105.39-8.9375 142.99-28.043l-17.359-60.699c-4.9922-17.477-12.301-34.258-23.648-47.125-11.344-12.867-27.234-21.555-46.895-21.555-13.559.0-23.215 4.7188-31.09 8.6562-7.8711 3.9375-13.941 7.0273-24 7.0273s-16.191-3.0898-24.062-7.0273c-7.8711-3.9375-17.469-8.6562-31.027-8.6562zm-96.508 102.15c-4.3789 1.5664-8.75 3.1289-12.852 4.8281-21.309 8.8164-38.852 19.367-51.43 31.672s-20.281 26.746-20.281 42.359 7.7031 30.117 20.281 42.418c12.578 12.305 30.121 22.855 51.43 31.672 42.621 17.637 100.53 28.242 164.45 28.242s121.77-10.609 164.39-28.242c21.309-8.8164 38.852-19.367 51.43-31.672s20.34-26.805 20.34-42.418-7.7656-30.055-20.34-42.359c-12.578-12.305-30.121-22.855-51.43-31.672-4.0938-1.6953-8.4531-3.2656-12.824-4.8281l20.727 72.355h-.007812v.058594c2.5977 9.1328-.57813 19.031-8.0117 24.938l.003906.003906c-.042969.019531-.082031.039062-.12109.058594.0.0-14.195 10.844-40.559 19.633-26.227 8.7422-66.242 16.973-123.6 16.973-57.355.0-97.371-8.2305-123.6-16.973-26.355-8.7852-40.621-19.574-40.621-19.574-.0625-.058593-.12109-.11719-.18359-.17578-7.3359-5.9258-10.422-15.812-7.8398-24.875v-.058594c.003907-.019531-.003906-.03125.0-.058594zm4.1992 42.621-9.7305 34.086h-.007813c-.88281 3.0469.14844 6.3242 2.6172 8.3164.0.0 11.43 8.918 35.918 17.082 24.488 8.1641 62.75 16.16 118.6 16.16 55.855.0 94.117-7.9961 118.6-16.16 24.488-8.1641 35.855-17.082 35.855-17.082 2.4883-1.9766 3.543-5.2578 2.6758-8.3164l-9.7461-34.07c-39.445 19.336-84.781 28.383-147.39 28.383-62.613.0-107.95-9.0547-147.4-28.398z"/></svg>