<svg width="800" height="800" viewBox="144 144 512 512" xmlns="http://www.w3.org/2000/svg"><defs><clipPath id="a"><path d="m226 148.09h348V651.9H226z"/></clipPath></defs><g clip-path="url(#a)"><path d="m329.15 195.32h-23.613v-47.23h23.617zm49.07-20.793c2.7891-3.3242 7.7422-3.7617 11.07-.98047 3.332 2.7773 3.7852 7.7266 1.0156 11.066v.007812c-2.6211 3.3789-4.9688 6.957-7.0312 10.699h33.449c-2.0586-3.7422-4.4102-7.3203-7.0312-10.699-2.7852-3.3359-2.3359-8.3008 1-11.086 3.3359-2.7891 8.2969-2.3438 11.086.99219 5.0273 6.4219 9.3047 13.398 12.746 20.793h20.578v-47.23h-110.21v47.23h20.582c3.4375-7.3945 7.7148-14.371 12.742-20.793zm-124.86 65.844 6.6289 1.0977h-.003906c12.574 2.1016 25.488.31641 37.02-5.1172 11.531-5.4336 21.133-14.254 27.52-25.285h-61.395zm241.1-92.281h-23.613v47.23h23.617zM368.51 250.43c0 4.3477-3.5273 7.8711-7.875 7.8711s-7.8711-3.5234-7.8711-7.8711c.019531-13.375 2.1797-26.664 6.3945-39.359h-17.008c-6.0977 13.965-16.133 25.848-28.883 34.199-12.746 8.3477-27.652 12.797-42.891 12.801-4.3438.003907-8.6758-.35547-12.961-1.0664l-9.0977-1.5078-5.3516 16.059h-.003906c-.25.74609-.38672 1.5234-.40625 2.3086l-7.6914 322.94h89.355l67.902-209.87v-38.141c-19.809 11.031-36.605 36.465-42.059 46.766-2.0273 3.8438-6.7891 5.3125-10.629 3.2812-3.8438-2.0273-5.3125-6.7891-3.2852-10.629.97266-1.8477 22.41-41.734 53.293-55.641-6.0586-9.8516-14.781-17.785-25.164-22.887-1.9062-.85156-3.3984-2.4219-4.1445-4.3711-.75-1.9492-.69531-4.1172.15625-6.0234 1.7695-3.9727 6.4219-5.7578 10.395-3.9922 7.9414 3.8203 15.191 8.9453 21.438 15.164v-99.387h-16.215c-4.8477 12.559-7.3555 25.898-7.3984 39.359zm106.97-39.359c6.3828 11.031 15.98 19.855 27.512 25.289s24.445 7.2148 37.02 5.1133l6.625-1.0977-9.7656-29.305zm-154.2 401.47h-86.59c-4.3477.0-7.875 3.5234-7.875 7.8711v23.617c0 2.0859.83203 4.0898 2.3086 5.5664 1.4766 1.4766 3.4766 2.3047 5.5664 2.3047h86.59c2.0898.0 4.0898-.82812 5.5664-2.3047 1.4766-1.4766 2.3047-3.4805 2.3047-5.5664v-23.617c0-2.0859-.82813-4.0898-2.3047-5.5664-1.4766-1.4766-3.4766-2.3047-5.5664-2.3047zm243.85-15.742-7.6914-322.94c-.019531-.78516-.15625-1.5625-.40625-2.3086l-5.3516-16.059-9.0898 1.5078h-.003906c-4.2852.71094-8.625 1.0664-12.969 1.0664-15.238-.003906-30.141-4.4531-42.891-12.805-12.746-8.3477-22.781-20.23-28.879-34.195h-17.012c4.2148 12.695 6.375 25.984 6.3945 39.359.0 4.3477-3.5234 7.8711-7.8711 7.8711s-7.8711-3.5234-7.8711-7.8711c-.046875-13.461-2.5547-26.801-7.4023-39.359h-16.215v99.387c6.2461-6.2188 13.496-11.344 21.441-15.164 3.9688-1.7578 8.6133.03125 10.379 4s-.019531 8.6133-3.9844 10.387c-10.379 5.0977-19.102 13.035-25.16 22.887 30.887 13.902 52.324 53.793 53.297 55.641 2.0312 3.8398.5625 8.6016-3.2812 10.633-3.8398 2.0312-8.6016.56641-10.633-3.2773-.20313-.37891-18.109-33.68-42.059-46.836v38.203l67.902 209.87zm.18359 15.742h-86.594c-4.3477.0-7.8711 3.5234-7.8711 7.8711v23.617c0 2.0859.82812 4.0898 2.3047 5.5664 1.4766 1.4766 3.4805 2.3047 5.5664 2.3047h86.594c2.0859.0 4.0898-.82812 5.5664-2.3047 1.4766-1.4766 2.3047-3.4805 2.3047-5.5664v-23.617c0-2.0859-.82812-4.0898-2.3047-5.5664-1.4766-1.4766-3.4805-2.3047-5.5664-2.3047zm-15.746-432.96v-15.746c0-4.1719-1.6562-8.1797-4.6094-11.133-2.9531-2.9492-6.957-4.6094-11.133-4.6094h-23.617v47.23h23.617c4.1758.0 8.1797-1.6562 11.133-4.6094s4.6094-6.957 4.6094-11.133zm-283.39 15.742h23.617l-.003907-47.23h-23.613c-4.1758.0-8.1836 1.6602-11.133 4.6094-2.9531 2.9531-4.6133 6.9609-4.6133 11.133v15.746c0 4.1758 1.6602 8.1797 4.6133 11.133 2.9492 2.9531 6.957 4.6094 11.133 4.6094z"/></g></svg>