<svg width="800" height="800" viewBox="144 144 512 512" xmlns="http://www.w3.org/2000/svg"><defs><clipPath id="a"><path d="m226 148.09h348V651.9H226z"/></clipPath></defs><g clip-path="url(#a)"><path d="m502.34 234.69c4.3438.003906 7.8672 3.5234 7.8711 7.8711v15.742H502.34c-4.1758-.003906-8.1758-1.6641-11.129-4.6133-2.9531-2.9531-4.6133-6.957-4.6172-11.129v-7.8711zm-70.848-86.594h-62.977v39.359h62.977zm14.012 432.96-38.102-186.64c.27734-.73047.4375-1.5039.47266-2.2852v-118.08h7.8711c8.3516.0 16.363-3.3164 22.27-9.2227 5.9062-5.9023 9.2227-13.914 9.2188-22.266v-39.359h23.617v39.359c-.003906 8.3516 3.3125 16.363 9.2188 22.266 5.9062 5.9062 13.918 9.2227 22.27 9.2227h62.977v307.01zm88.324-267.65c0 4.3477 3.5234 7.8711 7.8711 7.8711 4.3477.0 7.8711-3.5234 7.8711-7.8711v-7.8711c0-4.3477-3.5234-7.8711-7.8711-7.8711-4.3477.0-7.8711 3.5234-7.8711 7.8711zm0 39.359c0 4.3477 3.5234 7.8711 7.8711 7.8711 4.3477.0 7.8711-3.5234 7.8711-7.8711v-7.8711c0-4.3477-3.5234-7.8711-7.8711-7.8711-4.3477.0-7.8711 3.5234-7.8711 7.8711zm0 39.359c0 4.3477 3.5234 7.875 7.8711 7.875 4.3477.0 7.8711-3.5273 7.8711-7.875v-7.8711c0-4.3477-3.5234-7.8711-7.8711-7.8711-4.3477.0-7.8711 3.5234-7.8711 7.8711zm0 39.359v.003906c0 4.3477 3.5234 7.8711 7.8711 7.8711 4.3477.0 7.8711-3.5234 7.8711-7.8711v-7.875c0-4.3477-3.5234-7.8711-7.8711-7.8711-4.3477.0-7.8711 3.5234-7.8711 7.8711zm0 39.359v.003906c0 4.3477 3.5234 7.8711 7.8711 7.8711 4.3477.0 7.8711-3.5234 7.8711-7.8711v-7.8711c0-4.3477-3.5234-7.875-7.8711-7.875-4.3477.0-7.8711 3.5273-7.8711 7.875zm0 39.359v.003906c0 4.3477 3.5234 7.8711 7.8711 7.8711 4.3477.0 7.8711-3.5234 7.8711-7.8711v-7.8711c0-4.3477-3.5234-7.875-7.8711-7.875-4.3477.0-7.8711 3.5273-7.8711 7.875zm-15.742 47.23-.003906.003906c.015625 4.3438 3.5312 7.8594 7.8711 7.875h15.746c4.3438-.015625 7.8594-3.5312 7.8711-7.875v-15.742c0-4.3477-3.5234-7.8711-7.8711-7.8711-4.3477.0-7.8711 3.5234-7.8711 7.8711v7.8711h-7.875c-4.3398.011719-7.8555 3.5312-7.8711 7.8711zm-39.359.0-.003906.003906c.011719 4.3438 3.5312 7.8594 7.8711 7.875h7.8711c4.3477.0 7.875-3.5273 7.875-7.875s-3.5273-7.8711-7.875-7.8711h-7.8711c-4.3398.011719-7.8594 3.5312-7.8711 7.8711zm-125.96-409.34h-47.23v39.359h47.23zm141.7.0h-47.23v39.359h47.23zm-102.34 244.03c.035156.78125.19531 1.5547.47266 2.2852l-38.098 186.64h-119.81v-307.01h62.977c8.3516.0 16.359-3.3164 22.266-9.2227 5.9062-5.9023 9.2227-13.914 9.2188-22.266v-39.359h23.617v7.8711c0 4.3477 3.5234 7.8711 7.8711 7.8711 4.3477.0 7.875-3.5234 7.875-7.8711v-7.8711h23.617zm-141.7-78.719c0 4.3477 3.5234 7.8711 7.8711 7.8711 4.3477.0 7.875-3.5234 7.875-7.8711v-7.8711c0-4.3477-3.5273-7.8711-7.875-7.8711-4.3477.0-7.8711 3.5234-7.8711 7.8711zm0 39.359c0 4.3477 3.5234 7.8711 7.8711 7.8711 4.3477.0 7.875-3.5234 7.875-7.8711v-7.8711c0-4.3477-3.5273-7.8711-7.875-7.8711-4.3477.0-7.8711 3.5234-7.8711 7.8711zm0 39.359c0 4.3477 3.5234 7.875 7.8711 7.875 4.3477.0 7.875-3.5273 7.875-7.875v-7.8711c0-4.3477-3.5273-7.8711-7.875-7.8711-4.3477.0-7.8711 3.5234-7.8711 7.8711zm0 39.359v.003906c0 4.3477 3.5234 7.8711 7.8711 7.8711 4.3477.0 7.875-3.5234 7.875-7.8711v-7.875c0-4.3477-3.5273-7.8711-7.875-7.8711-4.3477.0-7.8711 3.5234-7.8711 7.8711zm0 39.359v.003906c0 4.3477 3.5234 7.8711 7.8711 7.8711 4.3477.0 7.875-3.5234 7.875-7.8711v-7.8711c0-4.3477-3.5273-7.875-7.875-7.875-4.3477.0-7.8711 3.5273-7.8711 7.875zm0 39.359v.003906c0 4.3477 3.5234 7.8711 7.8711 7.8711 4.3477.0 7.875-3.5234 7.875-7.8711v-7.8711c0-4.3477-3.5273-7.875-7.875-7.875-4.3477.0-7.8711 3.5273-7.8711 7.875zm31.488 47.23v.003906c-.011719-4.3398-3.5312-7.8594-7.8711-7.8711h-7.8711v-7.8711c0-4.3477-3.5273-7.8711-7.875-7.8711-4.3477.0-7.8711 3.5234-7.8711 7.8711v15.742c.011718 4.3438 3.5312 7.8594 7.8711 7.875h15.746c4.3398-.015625 7.8594-3.5312 7.8711-7.875zm39.359.0v.003906c-.011719-4.3398-3.5273-7.8594-7.8711-7.8711h-7.8711c-4.3477.0-7.8711 3.5234-7.8711 7.8711s3.5234 7.875 7.8711 7.875h7.8711c4.3438-.015625 7.8594-3.5312 7.8711-7.875zm94.465-299.13c4.1758-.003906 8.1758-1.6641 11.129-4.6133 2.9531-2.9531 4.6133-6.957 4.6172-11.129v-39.359h-23.617v55.105zm-181.05-70.848h55.105l-.003907-39.359h-55.102c-4.3477.0-7.875 3.5234-7.875 7.8711v23.617c0 2.0859.83203 4.0898 2.3086 5.5664 1.4766 1.4766 3.4766 2.3047 5.5664 2.3047zm118.08 409.35h-118.08c-4.3477.0-7.875 3.5234-7.875 7.8711v39.359c.015625 4.3438 3.5312 7.8594 7.875 7.8711h118.08c4.3438-.011719 7.8594-3.5273 7.8711-7.8711v-15.742h-62.973c-4.3477.0-7.875-3.5273-7.875-7.875s3.5273-7.8711 7.875-7.8711h62.977l-.003906-7.8711c0-2.0898-.82812-4.0898-2.3047-5.5664-1.4766-1.4766-3.4766-2.3047-5.5664-2.3047zm212.54.0h-118.08c-4.3477.0-7.8711 3.5234-7.8711 7.8711v39.359c.011719 4.3438 3.5273 7.8594 7.8711 7.8711h118.08c4.3398-.011719 7.8594-3.5273 7.8711-7.8711v-15.742h-62.977c-4.3477.0-7.8711-3.5273-7.8711-7.875s3.5234-7.8711 7.8711-7.8711h62.977v-7.8711c0-2.0898-.82812-4.0898-2.3047-5.5664-1.4766-1.4766-3.4805-2.3047-5.5664-2.3047zm-251.9-393.6H234.69v55.105h39.359v-15.746c.007813-6.2617 2.4961-12.266 6.9219-16.691 4.4297-4.4297 10.434-6.918 16.695-6.9258h15.742zm251.91-55.105h-55.105v39.359h55.105c2.0859.0 4.0898-.82812 5.5664-2.3047 1.4766-1.4766 2.3047-3.4805 2.3047-5.5664v-23.617c0-2.0859-.82812-4.0898-2.3047-5.5664-1.4766-1.4766-3.4805-2.3047-5.5664-2.3047zm-275.52 94.465v15.742h7.875c4.1719-.003906 8.1758-1.6641 11.125-4.6133 2.9531-2.9531 4.6133-6.957 4.6172-11.129v-7.8711h-15.742c-4.3477.003906-7.8672 3.5234-7.875 7.8711zm275.52 15.742.003906-55.102h-78.723v15.742h15.746c6.2617.007813 12.262 2.4961 16.691 6.9258 4.4258 4.4258 6.918 10.43 6.9219 16.691v15.742z"/></g></svg>