<svg fill="#222" width="20" height="20" viewBox="144 144 512 512" xmlns="http://www.w3.org/2000/svg"><g><path d="m392.95 491.19c5.0391 2.5195 12.594 3.5273 19.648-2.0156l93.203-74.562c4.5352-3.5273 7.0547-9.0703 7.0547-14.609.0-5.543-2.5195-11.082-7.0547-14.609l-92.699-74.566c-5.543-4.5352-13.098-5.543-19.648-2.0156-6.5508 3.0234-10.578 9.5742-10.578 17.129v18.137h-79.102c-5.0391.0-9.5742 4.0312-9.5742 9.5742v93.707c0 5.0391 4.0312 9.5742 9.5742 9.5742h78.594v18.137c0 6.5508 4.0312 13.098 10.582 16.121z"/><path d="m284.62 446.85v-93.707c0-5.0391-4.0312-9.5742-9.5742-9.5742h-28.719c-5.0391.0-9.5742 4.0312-9.5742 9.5742v93.707c0 5.0391 4.0312 9.5742 9.5742 9.5742h28.719c5.543.0 9.5742-4.5352 9.5742-9.5742z"/><path d="m218.63 343.57h-15.113c-13.098.0-23.68 10.578-23.68 23.68v65.496c0 13.098 10.578 23.68 23.68 23.68h15.113c5.0391.0 9.5742-4.0312 9.5742-9.5742l-.003906-93.707c-.50391-5.0391-4.5352-9.5742-9.5703-9.5742zm-15.117 9.5742h5.543c5.0391.0 9.5742 4.0312 9.5742 9.5742.0 5.0391-4.0312 9.5742-9.5742 9.5742h-2.0156c-1.5117 3.0234-4.5352 4.5352-8.0625 4.5352-5.0391.0-9.5742-4.0312-9.5742-9.5742.003906-8.0625 6.5547-14.109 14.109-14.109z"/><path d="m586.91 173.79H305.79c-18.137.0-32.746 14.609-32.746 32.746v99.25c0 5.0391 4.0312 9.5742 9.5742 9.5742s9.5742-4.0312 9.5742-9.5742l-.003906-99.25c0-7.5586 6.5508-14.105 14.105-14.105h281.63c7.5586.0 14.105 6.5508 14.105 14.105v386.42c0 7.5586-6.5508 14.105-14.105 14.105h-282.13c-7.5586.0-14.105-6.5508-14.105-14.105v-99.25c0-5.0391-4.0312-9.5742-9.5742-9.5742s-9.5742 4.0312-9.5742 9.5742v99.25c0 18.137 14.609 32.746 32.746 32.746h281.63c18.137.0 32.746-14.609 32.746-32.746l.007812-386.42c.50391-18.137-14.609-32.746-32.75-32.746z"/></g></svg>