<svg fill="#000" width="800" height="800" viewBox="144 144 512 512" xmlns="http://www.w3.org/2000/svg"><path d="m615.85 247.12-62.977-62.977h.003906c-2.9727-2.9492-6.9961-4.5898-11.18-4.5664h-125.95c-4.1836-.023437-8.207 1.6172-11.18 4.5664l-209.24 209.39c-10.094 10.047-15.77 23.703-15.77 37.945s5.6758 27.895 15.77 37.941l135.24 135.24c10.047 10.094 23.703 15.77 37.945 15.77s27.895-5.6758 37.941-15.77l209.39-209.24c2.9492-2.9727 4.5898-6.9961 4.5664-11.18v-125.95c.023438-4.1836-1.6172-8.207-4.5664-11.176zm-231.59 89.898c4.1758.0 8.1797 1.6562 11.133 4.6094 2.9531 2.9531 4.6133 6.957 4.6133 11.133s-1.6602 8.1797-4.6133 11.133c-2.9531 2.9531-6.957 4.6133-11.133 4.6133-4.1758.0-8.1797-1.6602-11.133-4.6133-2.9531-2.9531-4.6094-6.957-4.6094-11.133s1.6562-8.1797 4.6094-11.133c2.9531-2.9531 6.957-4.6094 11.133-4.6094zm0 157.44v-.003906c-4.1758.0-8.1797-1.6562-11.133-4.6094-2.9531-2.9531-4.6094-6.957-4.6094-11.133s1.6562-8.1797 4.6094-11.133c2.9531-2.9531 6.957-4.6094 11.133-4.6094 4.1758.0 8.1797 1.6562 11.133 4.6094 2.9531 2.9531 4.6133 6.957 4.6133 11.133s-1.6602 8.1797-4.6133 11.133c-2.9531 2.9531-6.957 4.6094-11.133 4.6094zm62.977-62.977h-125.95c-5.625.0-10.82-3.0039-13.633-7.875-2.8125-4.8711-2.8125-10.871.0-15.742s8.0078-7.8711 13.633-7.8711h125.95c5.625.0 10.824 3 13.637 7.8711s2.8125 10.871.0 15.742c-2.8125 4.8711-8.0117 7.875-13.637 7.875zm47.23-78.719v-.003906c-12.523.0-24.539-4.9766-33.395-13.832-8.8594-8.8594-13.836-20.871-13.836-33.398s4.9766-24.543 13.836-33.398c8.8555-8.8594 20.871-13.836 33.395-13.836 12.527.0 24.543 4.9766 33.398 13.836 8.8594 8.8555 13.836 20.871 13.836 33.398s-4.9766 24.539-13.836 33.398c-8.8555 8.8555-20.871 13.832-33.398 13.832z"/></svg>