<svg fill="#000" width="800" height="800" viewBox="144 144 512 512" xmlns="http://www.w3.org/2000/svg"><g><path d="m647.47 335.34-67.531-102.5c-19.754-25.211-55.902-34.762-87.18-38.059l1.7852-2.6641c2.582-3.8398 1.5547-9.0703-2.2656-11.652l-19.879-13.395c-.23047-.14844-.50391-.16797-.73438-.31641-.48438-.27344-1.0078-.46094-1.5547-.62891-.48438-.14844-.98828-.25-1.5117-.31641-.31641-.019532-.56641-.16797-.88281-.16797h-134.98c-.31641.0-.56641.14844-.88281.16797-.54297.085937-1.0469.19141-1.5312.31641-.56641.16797-1.0703.37891-1.5742.65234-.23047.125-.50391.14453-.73438.29297l-19.898 13.395c-3.8633 2.6016-4.8711 7.8086-2.2891 11.648l1.7422 2.625c-31.301 3.2344-67.719 12.848-87.895 38.645l-67.172 101.94c-1.8672 2.832-1.8477 6.5078.042969 9.3203l42.004 62.219c1.5312 2.2656 4.0742 3.6523 6.8242 3.6953h.125c2.6875.0 5.2266-1.3008 6.8008-3.4844l47.23-65.348v284.21c0 4.6406 3.7578 8.3984 8.3984 8.3984h272.06c4.6406.0 8.3984-3.7773 8.3984-8.3984l-.003907-284.14 47.23 65.305c1.5742 2.1836 4.1133 3.4844 6.8008 3.4844h.14844c2.7305-.042969 5.2891-1.4258 6.8242-3.6953l41.984-62.219c1.9492-2.8359 1.9727-6.4883.10156-9.3203zM4e2 512.72l-13.812-24.625L4e2 363.905l13.812 124.21zm-75.551-323 5.9609-4.0078 56.824 84.492-5.8789 3.9453c-.019531.0-.019531.0-.042969.019531l-.042969.042969zm75.758 69.648-51.742-76.934h103.45zm18.914 14.844-5.9609-4.0078 56.805-84.492 5.9609 4.0078-3.9453 5.8984c-1.1133.92188-1.8672 2.1406-2.3711 3.5039zm179.11 113.29-55.188-76.305c-.29297-.39844-.69141-.62891-1.0273-.94531-.042969-.042968-.082031-.082031-.125-.125-.73438-.67187-1.4922-1.2188-2.3711-1.5938-.21094-.10547-.41797-.14844-.60938-.23047-.75391-.25-1.4922-.44141-2.2656-.46094-.21094-.019531-.39844-.125-.58594-.125-.31641.0-.54688.14844-.83984.16797-.46094.0625-.94531.125-1.3867.27344-.83984.23047-1.5547.58594-2.2461 1.0273-.082031.042969-.16797.042969-.23047.10547-.042968.019531-.0625.082031-.125.125-2.0977 1.5312-3.5703 3.8828-3.5703 6.6758v301.43l-255.29-.003907v-301.41c0-2.8125-1.4688-5.1836-3.6094-6.7188-.042968-.019531-.066406-.0625-.085937-.082031-.0625-.042969-.125-.042969-.16797-.082031-.73438-.48438-1.4922-.83984-2.3516-1.0703-.44141-.125-.88281-.21094-1.3242-.27344-.29297-.023438-.54297-.16797-.85938-.16797-.21094.0-.39844.10547-.62891.125-.77734.042969-1.5117.21094-2.2656.46094-.1875.0625-.39844.125-.58594.21094-1.3477.56641-2.6289 1.3867-3.5508 2.6875l-55.168 76.328-32.16-47.633 63.691-96.711c18.156-23.176 55.355-30.523 85.02-32.496l53.719 79.875c1.2383 1.8477 3.168 3.1289 5.3516 3.5469.52344.10547 1.0703.14844 1.6172.14844 1.6602.0 3.2969-.48438 4.6797-1.4258l1.3242-.88281c1.5938 1.1953 3.5039 2.2266 5.75 3.1289l-21.559 193.86c-.1875 1.7422.16797 3.5039 1.0273 5.0156l22.441 40.012c.082031.14844.23047.1875.31641.33594.67188 1.0703 1.5312 1.9961 2.6445 2.6875.082032.0625.125.14844.21094.1875l.019531.019531c1.3008.73438 2.707 1.0898 4.0938 1.0898s2.793-.35547 4.0938-1.0898l.019531-.019531c.0625-.042969.125-.125.1875-.1875 1.1562-.67188 1.9961-1.6172 2.6641-2.6875.082031-.14844.25-.1875.31641-.33594l22.461-40.012c.85938-1.5117 1.2383-3.2734 1.0273-5.0156l-21.535-194.33c1.7422-.75391 3.4844-2.1836 5.2266-3.3164l2.2891 1.5312c1.3867.92188 3.0234 1.4258 4.6797 1.4258.52344.0 1.0898-.042968 1.6172-.14844 2.1836-.44141 4.0938-1.7227 5.3516-3.5469l53.676-79.832c29.703 2.0352 66.609 9.3828 84.305 31.906l64.047 97.277z"/><path d="m494.84 332.95h-34.891c-4.6406.0-8.3984 3.7578-8.3984 8.3984s3.7773 8.3984 8.3984 8.3984h34.891c4.6406.0 8.3984-3.7578 8.3984-8.3984s-3.7812-8.3984-8.3984-8.3984z"/></g></svg>