<svg width="800" height="800" viewBox="144 144 512 512" xmlns="http://www.w3.org/2000/svg"><defs><clipPath id="a"><path d="m155 148.09h490V651.9H155z"/></clipPath></defs><g clip-path="url(#a)"><path d="m392.12 148.14v23.57c0 4.3477 3.5273 7.8711 7.875 7.8711s7.8711-3.5234 7.8711-7.8711v-23.57c42.965.44922 94.008 4.8203 117.82 21.188-31.434 29.203-82.992 34.086-125.7 33.871-39.555.19922-100.77-2.9922-124.68-34.527 24.219-15.82 74.422-20.086 116.8-20.531zm7.875 70.801c-43.523.22656-104.46-3.9727-133.82-36.402v33.215c29.57 36.723 86.879 42.785 133.82 42.547 47.074.23828 104.29-5.8633 133.82-42.547V183.32c-34.816 30.152-87.879 35.863-133.82 35.621zm244.03 342.99c0 .74609-.10547 1.4883-.31641 2.207-7.8047 22.355-25.402 39.914-47.777 47.672-1.9688-7.8711-3.6797-14.969-8.4492-31.238-2.1836-6.3516-4.3711-12.793-6.5664-19.336-8.9453-26.473-18.473-54.59-29.852-81.406l.003907.003906c5.1523-23.512 5.8594-47.781 2.082-71.555-.27344-2.0703-1.3594-3.9492-3.0195-5.2227-1.6602-1.2695-3.7578-1.8281-5.8281-1.5508-2.0742.27734-3.9492 1.3672-5.2188 3.0312-1.2656 1.6641-1.8203 3.7617-1.5391 5.832 2.0352 14.43 2.6016 29.023 1.6875 43.566-9.543-19.906-21.516-38.555-35.641-55.52-2.8398-3.2852-7.8047-3.6523-11.094-.82031-3.293 2.832-3.668 7.7969-.83984 11.09 34.738 40.344 55.781 102.64 74.348 157.59 2.207 6.5508 4.3984 13.031 6.4727 19.066 5.2734 17.996 6.875 25.035 11.562 43.789l-.003906.003906c-8.6953 7.3516-18.812 12.844-29.719 16.133-11.195 4.1445-23.008 6.3945-34.945 6.6484-1.0117.0-1.9297-.042968-2.8594-.082031l-4.9102-13c-.13672-.36719-14.082-37.332-28.004-80.527h-.003907c-1.3398-4.1328-5.7734-6.4023-9.9062-5.0703-4.1367 1.332-6.4102 5.7617-5.0859 9.8984 11.336 35.168 22.691 66.246 26.723 77.125-27.254 14.191-59.531 15-87.461 2.1953v-131.67c0-4.3477-3.5234-7.875-7.8711-7.875s-7.875 3.5273-7.875 7.875v131.67c-27.93 12.797-60.207 11.988-87.461-2.1914 4.0312-10.879 15.383-41.957 26.719-77.125 1.332-4.1367-.94141-8.5742-5.0781-9.9062-4.1367-1.332-8.5703.94141-9.9023 5.0781-13.918 43.172-27.867 80.156-28.008 80.527l-4.9141 13.008-.003907-.003907c-12.91.20312-25.746-2.0312-37.832-6.5859-10.895-3.2852-20.996-8.7695-29.688-16.113l5.1836-20.723c.019531-.085937 2.2383-8.9258 6.3711-23.078l.003906-.003906c1.2148-4.1719-1.1797-8.543-5.3516-9.7617-4.1758-1.2188-8.5469 1.1758-9.7656 5.3516-4.2617 14.582-6.5352 23.664-6.5352 23.668l-1.8047 7.2227c-22.371-7.7578-39.973-25.316-47.777-47.672-.20703-.71875-.31641-1.4609-.31641-2.207-.33594-117.48 37.262-231.93 107.2-326.33 19.195 16.844 42.652 28.082 67.805 32.484-12.828 25.617-24.883 52.438-25.434 84.547-.074218 4.3477 3.3867 7.9336 7.7383 8.0078h.13672c4.293.0 7.7891-3.4414 7.8672-7.7305.52344-30.379 13.102-56.676 25.902-82.012v-.003906c14.895 2.0664 29.91 3.1133 44.945 3.1367v31.508c0 4.3477 3.5273 7.8711 7.875 7.8711s7.8711-3.5234 7.8711-7.8711v-31.508c15.035-.023438 30.051-1.0703 44.945-3.1367 12.805 25.332 25.387 51.633 25.902 82.012v.003906c.078125 4.293 3.5781 7.7305 7.8711 7.7305h.14062c4.3477-.074219 7.8086-3.6602 7.7305-8.0078-.55469-32.105-12.609-58.93-25.434-84.547 25.152-4.4062 48.609-15.645 67.801-32.488 69.941 94.398 107.54 208.85 107.2 326.34zm-336.43-164.26c-1.5586-1.3867-3.6055-2.1016-5.6914-1.9805-2.0859.12109-4.0352 1.0664-5.4258 2.6289-14.203 16.902-26.215 35.535-35.738 55.453-.89844-14.488-.32812-29.027 1.6953-43.402.56641-4.3047-2.457-8.2539-6.7578-8.832-4.3047-.57422-8.2617 2.4414-8.8477 6.7422-3.7188 23.566-3.0547 47.613 1.957 70.938-6.082 13.887-12.105 28.922-18.043 45.367-.71094 1.9648-.60938 4.1289.27734 6.0195s2.4883 3.3516 4.4492 4.0586c.85938.3125 1.7656.47266 2.6758.46875 3.3164.0 6.2773-2.0781 7.4023-5.1953 20.168-55.836 41.844-97.723 62.691-121.15 2.8945-3.25 2.6055-8.2227-.64453-11.117z"/></g></svg>